<svg width="57" height="244" viewBox="0 0 57 244" fill="none" xmlns="http://www.w3.org/2000/svg">
<path d="M57 1.72847V34.9271C57.0018 35.2722 56.8704 35.6096 56.6233 35.8939L27.675 70.23C27.476 70.4628 27.2091 70.6542 26.8968 70.7879C26.5846 70.9216 26.2363 70.9935 25.8815 70.9977H-54.8294C-55.405 70.9977 -55.957 70.8165 -56.364 70.4939C-56.771 70.1712 -56.9996 69.7336 -56.9996 69.2773V33.3063C-56.9996 32.8487 -56.7716 32.4096 -56.3651 32.0847C-55.9586 31.7598 -55.4066 31.5754 -54.8294 31.5717H25.8815C26.2363 31.5675 26.5846 31.4955 26.8968 31.3618C27.2091 31.2282 27.476 31.0368 27.675 30.8039L53.0003 0.761621C53.2626 0.454771 53.6419 0.222599 54.0828 0.0991091C54.5237 -0.0243808 55.0028 -0.0326899 55.4501 0.0754185C55.8973 0.183527 56.2891 0.402358 56.568 0.699835C56.8469 0.997312 56.9983 1.35782 57 1.72847Z" fill="#172B38"/>
<path d="M57 174.717V206.337C56.9977 207.708 56.4862 209.048 55.5293 210.19L27.6751 243.218C27.477 243.453 27.2106 243.646 26.8985 243.782C26.5864 243.918 26.2376 243.993 25.8815 244H-54.8294C-55.4066 243.996 -55.9586 243.812 -56.3651 243.487C-56.7715 243.162 -56.9996 242.723 -56.9996 242.265V206.294C-56.9996 205.837 -56.7715 205.398 -56.3651 205.073C-55.9586 204.748 -55.4066 204.564 -54.8294 204.56H25.8815C26.2363 204.556 26.5846 204.484 26.8968 204.35C27.2091 204.216 27.476 204.025 27.6751 203.792L53.0003 173.764C53.2617 173.458 53.6395 173.226 54.0786 173.103C54.5177 172.979 54.9952 172.969 55.4416 173.076C55.888 173.182 56.2799 173.398 56.5602 173.694C56.8405 173.989 56.9946 174.347 57 174.717Z" fill="#172B38"/>
<path d="M56.9998 117.063V150.248C57.0052 150.593 56.8734 150.932 56.6232 151.215L27.6749 185.565C27.4738 185.796 27.2063 185.986 26.8946 186.12C26.5828 186.253 26.2356 186.326 25.8813 186.333H-54.8295C-55.4067 186.329 -55.9587 186.144 -56.3652 185.82C-56.7717 185.495 -56.9997 185.056 -56.9997 184.598V148.627C-56.9997 148.171 -56.7711 147.733 -56.3641 147.41C-55.9571 147.088 -55.4051 146.907 -54.8295 146.907H25.8813C26.2374 146.9 26.5862 146.825 26.8983 146.689C27.2105 146.553 27.4768 146.359 27.6749 146.125L53.0002 116.097C53.2624 115.79 53.6418 115.557 54.0827 115.434C54.5235 115.31 55.0027 115.302 55.4499 115.41C55.8972 115.518 56.289 115.737 56.5679 116.035C56.8468 116.332 56.9982 116.693 56.9998 117.063Z" fill="#172B38"/>
<path d="M57 59.3818V92.5804C57.0016 92.9212 56.87 93.254 56.6233 93.533L27.675 127.883C27.476 128.116 27.2091 128.308 26.8968 128.441C26.5846 128.575 26.2363 128.647 25.8815 128.651H-54.8294C-55.1159 128.651 -55.3996 128.606 -55.664 128.519C-55.9285 128.431 -56.1686 128.303 -56.3703 128.142C-56.5721 127.981 -56.7316 127.79 -56.8396 127.579C-56.9476 127.369 -57.002 127.144 -56.9996 126.917V90.9738C-57.002 90.7467 -56.9476 90.5215 -56.8396 90.3111C-56.7316 90.1007 -56.5721 89.9094 -56.3703 89.7482C-56.1686 89.5869 -55.9285 89.4589 -55.664 89.3715C-55.3996 89.2842 -55.1159 89.2392 -54.8294 89.2392H25.8815C26.2363 89.2351 26.5846 89.1631 26.8968 89.0294C27.2091 88.8958 27.476 88.7044 27.675 88.4715L53.0003 58.4292C53.2617 58.1233 53.6395 57.8916 54.0786 57.7678C54.5177 57.6439 54.9952 57.6345 55.4416 57.7408C55.888 57.8471 56.2798 58.0636 56.5602 58.3588C56.8405 58.6539 56.9946 59.0124 57 59.3818Z" fill="#172B38"/>
</svg>
