<svg width="260" height="207" viewBox="0 0 260 207" fill="none" xmlns="http://www.w3.org/2000/svg">
<path d="M2.84083e-06 0.39444L2.84083e-06 7.97044C-0.000276835 8.04921 0.0201 8.1262 0.0583992 8.19107L4.5466 16.0266C4.57745 16.0798 4.61884 16.1235 4.66725 16.154C4.71566 16.1845 4.76966 16.2009 4.82468 16.2018H17.3382C17.4275 16.2018 17.5131 16.1605 17.5762 16.0869C17.6393 16.0132 17.6747 15.9134 17.6747 15.8092V7.60056C17.6747 7.49614 17.6394 7.39595 17.5763 7.3218C17.5133 7.24766 17.4277 7.20558 17.3382 7.20473L4.82468 7.20473C4.76966 7.20377 4.71566 7.18735 4.66725 7.15684C4.61884 7.12634 4.57745 7.08267 4.5466 7.02952L0.620119 0.173804C0.579457 0.10378 0.520639 0.0507976 0.452288 0.0226169C0.383936 -0.00556375 0.309646 -0.0074599 0.240305 0.0172107C0.170964 0.0418812 0.110219 0.0918189 0.0669746 0.159704C0.0237298 0.227589 0.000259136 0.309858 2.84083e-06 0.39444Z" fill="#172B38"/>
<path d="M27.2217 0.39444V7.97044C27.2214 8.04921 27.2418 8.1262 27.2801 8.19107L31.7683 16.0266C31.7991 16.0798 31.8405 16.1235 31.8889 16.154C31.9373 16.1845 31.9913 16.2009 32.0464 16.2018H44.5599C44.6492 16.2018 44.7347 16.1605 44.7978 16.0869C44.8609 16.0132 44.8964 15.9134 44.8964 15.8092V7.60056C44.8964 7.49614 44.861 7.39595 44.798 7.3218C44.735 7.24766 44.6494 7.20558 44.5599 7.20473L32.0464 7.20473C31.9913 7.20377 31.9373 7.18735 31.8889 7.15684C31.8405 7.12634 31.7991 7.08267 31.7683 7.02952L27.8418 0.173804C27.8011 0.10378 27.7423 0.0507976 27.674 0.0226169C27.6056 -0.00556375 27.5313 -0.0074599 27.462 0.0172107C27.3926 0.0418812 27.3319 0.0918189 27.2887 0.159704C27.2454 0.227589 27.2219 0.309858 27.2217 0.39444Z" fill="#172B38"/>
<path d="M54.4434 0.39444V7.97044C54.4431 8.04921 54.4635 8.1262 54.5018 8.19107L58.99 16.0266C59.0208 16.0798 59.0622 16.1235 59.1106 16.154C59.159 16.1845 59.213 16.2009 59.268 16.2018H71.7816C71.8708 16.2018 71.9564 16.1605 72.0195 16.0869C72.0826 16.0132 72.1181 15.9134 72.1181 15.8092V7.60056C72.1181 7.49614 72.0827 7.39595 72.0197 7.3218C71.9567 7.24766 71.8711 7.20558 71.7816 7.20473L59.268 7.20473C59.213 7.20377 59.159 7.18735 59.1106 7.15684C59.0622 7.12634 59.0208 7.08267 58.99 7.02952L55.0635 0.173804C55.0228 0.10378 54.964 0.0507976 54.8956 0.0226169C54.8273 -0.00556375 54.753 -0.0074599 54.6837 0.0172107C54.6143 0.0418812 54.5536 0.0918189 54.5103 0.159704C54.4671 0.227589 54.4436 0.309858 54.4434 0.39444Z" fill="#172B38"/>
<path d="M81.665 0.39444V7.97044C81.6648 8.04921 81.6851 8.1262 81.7234 8.19107L86.2116 16.0266C86.2425 16.0798 86.2839 16.1235 86.3323 16.154C86.3807 16.1845 86.4347 16.2009 86.4897 16.2018H99.0033C99.0925 16.2018 99.1781 16.1605 99.2412 16.0869C99.3043 16.0132 99.3398 15.9134 99.3398 15.8092V7.60056C99.3398 7.49614 99.3044 7.39595 99.2414 7.3218C99.1784 7.24766 99.0928 7.20558 99.0033 7.20473L86.4897 7.20473C86.4347 7.20377 86.3807 7.18735 86.3323 7.15684C86.2839 7.12634 86.2425 7.08267 86.2116 7.02952L82.2852 0.173804C82.2445 0.10378 82.1857 0.0507976 82.1173 0.0226169C82.049 -0.00556375 81.9747 -0.0074599 81.9053 0.0172107C81.836 0.0418812 81.7753 0.0918189 81.732 0.159704C81.6888 0.227589 81.6653 0.309858 81.665 0.39444Z" fill="#172B38"/>
<path d="M108.887 0.39444V7.97044C108.886 8.04921 108.907 8.1262 108.945 8.19107L113.433 16.0266C113.464 16.0798 113.506 16.1235 113.554 16.154C113.602 16.1845 113.656 16.2009 113.711 16.2018H126.225C126.314 16.2018 126.4 16.1605 126.463 16.0869C126.526 16.0132 126.561 15.9134 126.561 15.8092V7.60056C126.561 7.49614 126.526 7.39595 126.463 7.3218C126.4 7.24766 126.314 7.20558 126.225 7.20473L113.711 7.20473C113.656 7.20377 113.602 7.18735 113.554 7.15684C113.506 7.12634 113.464 7.08267 113.433 7.02952L109.507 0.173804C109.466 0.10378 109.407 0.0507976 109.339 0.0226169C109.271 -0.00556375 109.196 -0.0074599 109.127 0.0172107C109.058 0.0418812 108.997 0.0918189 108.954 0.159704C108.91 0.227589 108.887 0.309858 108.887 0.39444Z" fill="#172B38"/>
<path d="M136.108 0.39444V7.97044C136.108 8.04921 136.128 8.1262 136.167 8.19107L140.655 16.0266C140.686 16.0798 140.727 16.1235 140.776 16.154C140.824 16.1845 140.878 16.2009 140.933 16.2018H153.447C153.536 16.2018 153.621 16.1605 153.685 16.0869C153.748 16.0132 153.783 15.9134 153.783 15.8092V7.60056C153.783 7.49614 153.748 7.39595 153.685 7.3218C153.622 7.24766 153.536 7.20558 153.447 7.20473L140.933 7.20473C140.878 7.20377 140.824 7.18735 140.776 7.15684C140.727 7.12634 140.686 7.08267 140.655 7.02952L136.729 0.173804C136.688 0.10378 136.629 0.0507976 136.561 0.0226169C136.492 -0.00556375 136.418 -0.0074599 136.349 0.0172107C136.279 0.0418812 136.219 0.0918189 136.175 0.159704C136.132 0.227589 136.109 0.309858 136.108 0.39444Z" fill="#172B38"/>
<path d="M163.33 0.39444V7.97044C163.33 8.04921 163.35 8.1262 163.388 8.19107L167.877 16.0266C167.908 16.0798 167.949 16.1235 167.997 16.154C168.046 16.1845 168.1 16.2009 168.155 16.2018H180.668C180.758 16.2018 180.843 16.1605 180.906 16.0869C180.969 16.0132 181.005 15.9134 181.005 15.8092V7.60056C181.005 7.49614 180.969 7.39595 180.906 7.3218C180.843 7.24766 180.758 7.20558 180.668 7.20473L168.155 7.20473C168.1 7.20377 168.046 7.18735 167.997 7.15684C167.949 7.12634 167.908 7.08267 167.877 7.02952L163.95 0.173804C163.91 0.10378 163.851 0.0507976 163.782 0.0226169C163.714 -0.00556375 163.64 -0.0074599 163.57 0.0172107C163.501 0.0418812 163.44 0.0918189 163.397 0.159704C163.354 0.227589 163.33 0.309858 163.33 0.39444Z" fill="#172B38"/>
<path d="M190.552 0.39444V7.97044C190.551 8.04921 190.572 8.1262 190.61 8.19107L195.098 16.0266C195.129 16.0798 195.171 16.1235 195.219 16.154C195.267 16.1845 195.321 16.2009 195.376 16.2018H207.89C207.979 16.2018 208.065 16.1605 208.128 16.0869C208.191 16.0132 208.226 15.9134 208.226 15.8092V7.60056C208.226 7.49614 208.191 7.39595 208.128 7.3218C208.065 7.24766 207.979 7.20558 207.89 7.20473L195.376 7.20473C195.321 7.20377 195.267 7.18735 195.219 7.15684C195.171 7.12634 195.129 7.08267 195.098 7.02952L191.172 0.173804C191.131 0.10378 191.072 0.0507976 191.004 0.0226169C190.936 -0.00556375 190.861 -0.0074599 190.792 0.0172107C190.723 0.0418812 190.662 0.0918189 190.619 0.159704C190.575 0.227589 190.552 0.309858 190.552 0.39444Z" fill="#172B38"/>
<path d="M217.773 0.39444V7.97044C217.773 8.04921 217.794 8.1262 217.832 8.19107L222.32 16.0266C222.351 16.0798 222.392 16.1235 222.441 16.154C222.489 16.1845 222.543 16.2009 222.598 16.2018H235.112C235.201 16.2018 235.286 16.1605 235.35 16.0869C235.413 16.0132 235.448 15.9134 235.448 15.8092V7.60056C235.448 7.49614 235.413 7.39595 235.35 7.3218C235.287 7.24766 235.201 7.20558 235.112 7.20473L222.598 7.20473C222.543 7.20377 222.489 7.18735 222.441 7.15684C222.392 7.12634 222.351 7.08267 222.32 7.02952L218.394 0.173804C218.353 0.10378 218.294 0.0507976 218.226 0.0226169C218.157 -0.00556375 218.083 -0.0074599 218.014 0.0172107C217.944 0.0418812 217.884 0.0918189 217.84 0.159704C217.797 0.227589 217.774 0.309858 217.773 0.39444Z" fill="#172B38"/>
<path d="M244.995 0.39444V7.97044C244.995 8.04921 245.015 8.1262 245.054 8.19107L249.542 16.0266C249.573 16.0798 249.614 16.1235 249.662 16.154C249.711 16.1845 249.765 16.2009 249.82 16.2018H262.333C262.423 16.2018 262.508 16.1605 262.571 16.0869C262.634 16.0132 262.67 15.9134 262.67 15.8092V7.60056C262.67 7.49614 262.634 7.39595 262.571 7.3218C262.508 7.24766 262.423 7.20558 262.333 7.20473L249.82 7.20473C249.765 7.20377 249.711 7.18735 249.662 7.15684C249.614 7.12634 249.573 7.08267 249.542 7.02952L245.615 0.173804C245.575 0.10378 245.516 0.0507976 245.447 0.0226169C245.379 -0.00556375 245.305 -0.0074599 245.235 0.0172107C245.166 0.0418812 245.105 0.0918189 245.062 0.159704C245.019 0.227589 244.995 0.309858 244.995 0.39444Z" fill="#172B38"/>
<path d="M2.84083e-06 27.5448L2.84083e-06 35.1208C-0.000276835 35.1996 0.0201 35.2766 0.0583992 35.3415L4.5466 43.177C4.57745 43.2302 4.61884 43.2738 4.66725 43.3043C4.71566 43.3349 4.76966 43.3513 4.82468 43.3522H17.3382C17.4275 43.3522 17.5131 43.3109 17.5762 43.2372C17.6393 43.1636 17.6747 43.0638 17.6747 42.9596V34.751C17.6747 34.6465 17.6394 34.5463 17.5763 34.4722C17.5133 34.3981 17.4277 34.356 17.3382 34.3551H4.82468C4.76966 34.3542 4.71566 34.3377 4.66725 34.3072C4.61884 34.2767 4.57745 34.2331 4.5466 34.1799L0.620119 27.3242C0.579457 27.2542 0.520639 27.2012 0.452288 27.173C0.383936 27.1448 0.309646 27.1429 0.240305 27.1676C0.170964 27.1923 0.110219 27.2422 0.0669746 27.3101C0.0237298 27.378 0.000259136 27.4602 2.84083e-06 27.5448Z" fill="#172B38"/>
<path d="M27.2217 27.5448V35.1208C27.2214 35.1996 27.2418 35.2766 27.2801 35.3415L31.7683 43.177C31.7991 43.2302 31.8405 43.2738 31.8889 43.3043C31.9373 43.3349 31.9913 43.3513 32.0464 43.3522H44.5599C44.6492 43.3522 44.7347 43.3109 44.7978 43.2372C44.8609 43.1636 44.8964 43.0638 44.8964 42.9596V34.751C44.8964 34.6465 44.861 34.5463 44.798 34.4722C44.735 34.3981 44.6494 34.356 44.5599 34.3551H32.0464C31.9913 34.3542 31.9373 34.3377 31.8889 34.3072C31.8405 34.2767 31.7991 34.2331 31.7683 34.1799L27.8418 27.3242C27.8011 27.2542 27.7423 27.2012 27.674 27.173C27.6056 27.1448 27.5313 27.1429 27.462 27.1676C27.3926 27.1923 27.3319 27.2422 27.2887 27.3101C27.2454 27.378 27.2219 27.4602 27.2217 27.5448Z" fill="#172B38"/>
<path d="M54.4434 27.5448V35.1208C54.4431 35.1996 54.4635 35.2766 54.5018 35.3415L58.99 43.177C59.0208 43.2302 59.0622 43.2738 59.1106 43.3043C59.159 43.3349 59.213 43.3513 59.268 43.3522H71.7816C71.8708 43.3522 71.9564 43.3109 72.0195 43.2372C72.0826 43.1636 72.1181 43.0638 72.1181 42.9596V34.751C72.1181 34.6465 72.0827 34.5463 72.0197 34.4722C71.9567 34.3981 71.8711 34.356 71.7816 34.3551H59.268C59.213 34.3542 59.159 34.3377 59.1106 34.3072C59.0622 34.2767 59.0208 34.2331 58.99 34.1799L55.0635 27.3242C55.0228 27.2542 54.964 27.2012 54.8956 27.173C54.8273 27.1448 54.753 27.1429 54.6837 27.1676C54.6143 27.1923 54.5536 27.2422 54.5103 27.3101C54.4671 27.378 54.4436 27.4602 54.4434 27.5448Z" fill="#172B38"/>
<path d="M81.665 27.5448V35.1208C81.6648 35.1996 81.6851 35.2766 81.7234 35.3415L86.2116 43.177C86.2425 43.2302 86.2839 43.2738 86.3323 43.3043C86.3807 43.3349 86.4347 43.3513 86.4897 43.3522H99.0033C99.0925 43.3522 99.1781 43.3109 99.2412 43.2372C99.3043 43.1636 99.3398 43.0638 99.3398 42.9596V34.751C99.3398 34.6465 99.3044 34.5463 99.2414 34.4722C99.1784 34.3981 99.0928 34.356 99.0033 34.3551H86.4897C86.4347 34.3542 86.3807 34.3377 86.3323 34.3072C86.2839 34.2767 86.2425 34.2331 86.2116 34.1799L82.2852 27.3242C82.2445 27.2542 82.1857 27.2012 82.1173 27.173C82.049 27.1448 81.9747 27.1429 81.9053 27.1676C81.836 27.1923 81.7753 27.2422 81.732 27.3101C81.6888 27.378 81.6653 27.4602 81.665 27.5448Z" fill="#172B38"/>
<path d="M108.887 27.5448V35.1208C108.886 35.1996 108.907 35.2766 108.945 35.3415L113.433 43.177C113.464 43.2302 113.506 43.2738 113.554 43.3043C113.602 43.3349 113.656 43.3513 113.711 43.3522H126.225C126.314 43.3522 126.4 43.3109 126.463 43.2372C126.526 43.1636 126.561 43.0638 126.561 42.9596V34.751C126.561 34.6465 126.526 34.5463 126.463 34.4722C126.4 34.3981 126.314 34.356 126.225 34.3551H113.711C113.656 34.3542 113.602 34.3377 113.554 34.3072C113.506 34.2767 113.464 34.2331 113.433 34.1799L109.507 27.3242C109.466 27.2542 109.407 27.2012 109.339 27.173C109.271 27.1448 109.196 27.1429 109.127 27.1676C109.058 27.1923 108.997 27.2422 108.954 27.3101C108.91 27.378 108.887 27.4602 108.887 27.5448Z" fill="#172B38"/>
<path d="M136.108 27.5448V35.1208C136.108 35.1996 136.128 35.2766 136.167 35.3415L140.655 43.177C140.686 43.2302 140.727 43.2738 140.776 43.3043C140.824 43.3349 140.878 43.3513 140.933 43.3522H153.447C153.536 43.3522 153.621 43.3109 153.685 43.2372C153.748 43.1636 153.783 43.0638 153.783 42.9596V34.751C153.783 34.6465 153.748 34.5463 153.685 34.4722C153.622 34.3981 153.536 34.356 153.447 34.3551H140.933C140.878 34.3542 140.824 34.3377 140.776 34.3072C140.727 34.2767 140.686 34.2331 140.655 34.1799L136.729 27.3242C136.688 27.2542 136.629 27.2012 136.561 27.173C136.492 27.1448 136.418 27.1429 136.349 27.1676C136.279 27.1923 136.219 27.2422 136.175 27.3101C136.132 27.378 136.109 27.4602 136.108 27.5448Z" fill="#172B38"/>
<path d="M163.33 27.5448V35.1208C163.33 35.1996 163.35 35.2766 163.388 35.3415L167.877 43.177C167.908 43.2302 167.949 43.2738 167.997 43.3043C168.046 43.3349 168.1 43.3513 168.155 43.3522H180.668C180.758 43.3522 180.843 43.3109 180.906 43.2372C180.969 43.1636 181.005 43.0638 181.005 42.9596V34.751C181.005 34.6465 180.969 34.5463 180.906 34.4722C180.843 34.3981 180.758 34.356 180.668 34.3551H168.155C168.1 34.3542 168.046 34.3377 167.997 34.3072C167.949 34.2767 167.908 34.2331 167.877 34.1799L163.95 27.3242C163.91 27.2542 163.851 27.2012 163.782 27.173C163.714 27.1448 163.64 27.1429 163.57 27.1676C163.501 27.1923 163.44 27.2422 163.397 27.3101C163.354 27.378 163.33 27.4602 163.33 27.5448Z" fill="#172B38"/>
<path d="M190.552 27.5448V35.1208C190.551 35.1996 190.572 35.2766 190.61 35.3415L195.098 43.177C195.129 43.2302 195.171 43.2738 195.219 43.3043C195.267 43.3349 195.321 43.3513 195.376 43.3522H207.89C207.979 43.3522 208.065 43.3109 208.128 43.2372C208.191 43.1636 208.226 43.0638 208.226 42.9596V34.751C208.226 34.6465 208.191 34.5463 208.128 34.4722C208.065 34.3981 207.979 34.356 207.89 34.3551H195.376C195.321 34.3542 195.267 34.3377 195.219 34.3072C195.171 34.2767 195.129 34.2331 195.098 34.1799L191.172 27.3242C191.131 27.2542 191.072 27.2012 191.004 27.173C190.936 27.1448 190.861 27.1429 190.792 27.1676C190.723 27.1923 190.662 27.2422 190.619 27.3101C190.575 27.378 190.552 27.4602 190.552 27.5448Z" fill="#172B38"/>
<path d="M217.773 27.5448V35.1208C217.773 35.1996 217.794 35.2766 217.832 35.3415L222.32 43.177C222.351 43.2302 222.392 43.2738 222.441 43.3043C222.489 43.3349 222.543 43.3513 222.598 43.3522H235.112C235.201 43.3522 235.286 43.3109 235.35 43.2372C235.413 43.1636 235.448 43.0638 235.448 42.9596V34.751C235.448 34.6465 235.413 34.5463 235.35 34.4722C235.287 34.3981 235.201 34.356 235.112 34.3551H222.598C222.543 34.3542 222.489 34.3377 222.441 34.3072C222.392 34.2767 222.351 34.2331 222.32 34.1799L218.394 27.3242C218.353 27.2542 218.294 27.2012 218.226 27.173C218.157 27.1448 218.083 27.1429 218.014 27.1676C217.944 27.1923 217.884 27.2422 217.84 27.3101C217.797 27.378 217.774 27.4602 217.773 27.5448Z" fill="#172B38"/>
<path d="M244.995 27.5448V35.1208C244.995 35.1996 245.015 35.2766 245.054 35.3415L249.542 43.177C249.573 43.2302 249.614 43.2738 249.662 43.3043C249.711 43.3349 249.765 43.3513 249.82 43.3522H262.333C262.423 43.3522 262.508 43.3109 262.571 43.2372C262.634 43.1636 262.67 43.0638 262.67 42.9596V34.751C262.67 34.6465 262.634 34.5463 262.571 34.4722C262.508 34.3981 262.423 34.356 262.333 34.3551H249.82C249.765 34.3542 249.711 34.3377 249.662 34.3072C249.614 34.2767 249.573 34.2331 249.542 34.1799L245.615 27.3242C245.575 27.2542 245.516 27.2012 245.447 27.173C245.379 27.1448 245.305 27.1429 245.235 27.1676C245.166 27.1923 245.105 27.2422 245.062 27.3101C245.019 27.378 244.995 27.4602 244.995 27.5448Z" fill="#172B38"/>
<path d="M2.84083e-06 54.6952L2.84083e-06 62.2712C-0.000276835 62.35 0.0201 62.427 0.0583992 62.4919L4.5466 70.3274C4.57745 70.3806 4.61884 70.4242 4.66725 70.4547C4.71566 70.4852 4.76966 70.5017 4.82468 70.5026H17.3382C17.4275 70.5026 17.5131 70.4613 17.5762 70.3876C17.6393 70.314 17.6747 70.2141 17.6747 70.11V61.9013C17.6747 61.7969 17.6394 61.6967 17.5763 61.6226C17.5133 61.5484 17.4277 61.5064 17.3382 61.5055H4.82468C4.76966 61.5046 4.71566 61.4881 4.66725 61.4576C4.61884 61.4271 4.57745 61.3834 4.5466 61.3303L0.620119 54.4746C0.579457 54.4046 0.520639 54.3516 0.452288 54.3234C0.383936 54.2952 0.309646 54.2933 0.240305 54.318C0.170964 54.3427 0.110219 54.3926 0.0669746 54.4605C0.0237298 54.5284 0.000259136 54.6106 2.84083e-06 54.6952Z" fill="#172B38"/>
<path d="M27.2217 54.6952V62.2712C27.2214 62.35 27.2418 62.427 27.2801 62.4919L31.7683 70.3274C31.7991 70.3806 31.8405 70.4242 31.8889 70.4547C31.9373 70.4852 31.9913 70.5017 32.0464 70.5026H44.5599C44.6492 70.5026 44.7347 70.4613 44.7978 70.3876C44.8609 70.314 44.8964 70.2141 44.8964 70.11V61.9013C44.8964 61.7969 44.861 61.6967 44.798 61.6226C44.735 61.5484 44.6494 61.5064 44.5599 61.5055H32.0464C31.9913 61.5046 31.9373 61.4881 31.8889 61.4576C31.8405 61.4271 31.7991 61.3834 31.7683 61.3303L27.8418 54.4746C27.8011 54.4046 27.7423 54.3516 27.674 54.3234C27.6056 54.2952 27.5313 54.2933 27.462 54.318C27.3926 54.3427 27.3319 54.3926 27.2887 54.4605C27.2454 54.5284 27.2219 54.6106 27.2217 54.6952Z" fill="#172B38"/>
<path d="M54.4434 54.6952V62.2712C54.4431 62.35 54.4635 62.427 54.5018 62.4919L58.99 70.3274C59.0208 70.3806 59.0622 70.4242 59.1106 70.4547C59.159 70.4852 59.213 70.5017 59.268 70.5026H71.7816C71.8708 70.5026 71.9564 70.4613 72.0195 70.3876C72.0826 70.314 72.1181 70.2141 72.1181 70.11V61.9013C72.1181 61.7969 72.0827 61.6967 72.0197 61.6226C71.9567 61.5484 71.8711 61.5064 71.7816 61.5055H59.268C59.213 61.5046 59.159 61.4881 59.1106 61.4576C59.0622 61.4271 59.0208 61.3834 58.99 61.3303L55.0635 54.4746C55.0228 54.4046 54.964 54.3516 54.8956 54.3234C54.8273 54.2952 54.753 54.2933 54.6837 54.318C54.6143 54.3427 54.5536 54.3926 54.5103 54.4605C54.4671 54.5284 54.4436 54.6106 54.4434 54.6952Z" fill="#172B38"/>
<path d="M81.665 54.6952V62.2712C81.6648 62.35 81.6851 62.427 81.7234 62.4919L86.2116 70.3274C86.2425 70.3806 86.2839 70.4242 86.3323 70.4547C86.3807 70.4852 86.4347 70.5017 86.4897 70.5026H99.0033C99.0925 70.5026 99.1781 70.4613 99.2412 70.3876C99.3043 70.314 99.3398 70.2141 99.3398 70.11V61.9013C99.3398 61.7969 99.3044 61.6967 99.2414 61.6226C99.1784 61.5484 99.0928 61.5064 99.0033 61.5055H86.4897C86.4347 61.5046 86.3807 61.4881 86.3323 61.4576C86.2839 61.4271 86.2425 61.3834 86.2116 61.3303L82.2852 54.4746C82.2445 54.4046 82.1857 54.3516 82.1173 54.3234C82.049 54.2952 81.9747 54.2933 81.9053 54.318C81.836 54.3427 81.7753 54.3926 81.732 54.4605C81.6888 54.5284 81.6653 54.6106 81.665 54.6952Z" fill="#172B38"/>
<path d="M108.887 54.6952V62.2712C108.886 62.35 108.907 62.427 108.945 62.4919L113.433 70.3274C113.464 70.3806 113.506 70.4242 113.554 70.4547C113.602 70.4852 113.656 70.5017 113.711 70.5026H126.225C126.314 70.5026 126.4 70.4613 126.463 70.3876C126.526 70.314 126.561 70.2141 126.561 70.11V61.9013C126.561 61.7969 126.526 61.6967 126.463 61.6226C126.4 61.5484 126.314 61.5064 126.225 61.5055H113.711C113.656 61.5046 113.602 61.4881 113.554 61.4576C113.506 61.4271 113.464 61.3834 113.433 61.3303L109.507 54.4746C109.466 54.4046 109.407 54.3516 109.339 54.3234C109.271 54.2952 109.196 54.2933 109.127 54.318C109.058 54.3427 108.997 54.3926 108.954 54.4605C108.91 54.5284 108.887 54.6106 108.887 54.6952Z" fill="#172B38"/>
<path d="M136.108 54.6952V62.2712C136.108 62.35 136.128 62.427 136.167 62.4919L140.655 70.3274C140.686 70.3806 140.727 70.4242 140.776 70.4547C140.824 70.4852 140.878 70.5017 140.933 70.5026H153.447C153.536 70.5026 153.621 70.4613 153.685 70.3876C153.748 70.314 153.783 70.2141 153.783 70.11V61.9013C153.783 61.7969 153.748 61.6967 153.685 61.6226C153.622 61.5484 153.536 61.5064 153.447 61.5055H140.933C140.878 61.5046 140.824 61.4881 140.776 61.4576C140.727 61.4271 140.686 61.3834 140.655 61.3303L136.729 54.4746C136.688 54.4046 136.629 54.3516 136.561 54.3234C136.492 54.2952 136.418 54.2933 136.349 54.318C136.279 54.3427 136.219 54.3926 136.175 54.4605C136.132 54.5284 136.109 54.6106 136.108 54.6952Z" fill="#172B38"/>
<path d="M163.33 54.6952V62.2712C163.33 62.35 163.35 62.427 163.388 62.4919L167.877 70.3274C167.908 70.3806 167.949 70.4242 167.997 70.4547C168.046 70.4852 168.1 70.5017 168.155 70.5026H180.668C180.758 70.5026 180.843 70.4613 180.906 70.3876C180.969 70.314 181.005 70.2141 181.005 70.11V61.9013C181.005 61.7969 180.969 61.6967 180.906 61.6226C180.843 61.5484 180.758 61.5064 180.668 61.5055H168.155C168.1 61.5046 168.046 61.4881 167.997 61.4576C167.949 61.4271 167.908 61.3834 167.877 61.3303L163.95 54.4746C163.91 54.4046 163.851 54.3516 163.782 54.3234C163.714 54.2952 163.64 54.2933 163.57 54.318C163.501 54.3427 163.44 54.3926 163.397 54.4605C163.354 54.5284 163.33 54.6106 163.33 54.6952Z" fill="#172B38"/>
<path d="M190.552 54.6952V62.2712C190.551 62.35 190.572 62.427 190.61 62.4919L195.098 70.3274C195.129 70.3806 195.171 70.4242 195.219 70.4547C195.267 70.4852 195.321 70.5017 195.376 70.5026H207.89C207.979 70.5026 208.065 70.4613 208.128 70.3876C208.191 70.314 208.226 70.2141 208.226 70.11V61.9013C208.226 61.7969 208.191 61.6967 208.128 61.6226C208.065 61.5484 207.979 61.5064 207.89 61.5055H195.376C195.321 61.5046 195.267 61.4881 195.219 61.4576C195.171 61.4271 195.129 61.3834 195.098 61.3303L191.172 54.4746C191.131 54.4046 191.072 54.3516 191.004 54.3234C190.936 54.2952 190.861 54.2933 190.792 54.318C190.723 54.3427 190.662 54.3926 190.619 54.4605C190.575 54.5284 190.552 54.6106 190.552 54.6952Z" fill="#172B38"/>
<path d="M217.773 54.6952V62.2712C217.773 62.35 217.794 62.427 217.832 62.4919L222.32 70.3274C222.351 70.3806 222.392 70.4242 222.441 70.4547C222.489 70.4852 222.543 70.5017 222.598 70.5026H235.112C235.201 70.5026 235.286 70.4613 235.35 70.3876C235.413 70.314 235.448 70.2141 235.448 70.11V61.9013C235.448 61.7969 235.413 61.6967 235.35 61.6226C235.287 61.5484 235.201 61.5064 235.112 61.5055H222.598C222.543 61.5046 222.489 61.4881 222.441 61.4576C222.392 61.4271 222.351 61.3834 222.32 61.3303L218.394 54.4746C218.353 54.4046 218.294 54.3516 218.226 54.3234C218.157 54.2952 218.083 54.2933 218.014 54.318C217.944 54.3427 217.884 54.3926 217.84 54.4605C217.797 54.5284 217.774 54.6106 217.773 54.6952Z" fill="#172B38"/>
<path d="M244.995 54.6952V62.2712C244.995 62.35 245.015 62.427 245.054 62.4919L249.542 70.3274C249.573 70.3806 249.614 70.4242 249.662 70.4547C249.711 70.4852 249.765 70.5017 249.82 70.5026H262.333C262.423 70.5026 262.508 70.4613 262.571 70.3876C262.634 70.314 262.67 70.2141 262.67 70.11V61.9013C262.67 61.7969 262.634 61.6967 262.571 61.6226C262.508 61.5484 262.423 61.5064 262.333 61.5055H249.82C249.765 61.5046 249.711 61.4881 249.662 61.4576C249.614 61.4271 249.573 61.3834 249.542 61.3303L245.615 54.4746C245.575 54.4046 245.516 54.3516 245.447 54.3234C245.379 54.2952 245.305 54.2933 245.235 54.318C245.166 54.3427 245.105 54.3926 245.062 54.4605C245.019 54.5284 244.995 54.6106 244.995 54.6952Z" fill="#172B38"/>
<path d="M2.84083e-06 81.8456L2.84083e-06 89.4216C-0.000276835 89.5004 0.0201 89.5774 0.0583992 89.6422L4.5466 97.4778C4.57745 97.531 4.61884 97.5746 4.66725 97.6051C4.71566 97.6356 4.76966 97.6521 4.82468 97.653H17.3382C17.4275 97.653 17.5131 97.6117 17.5762 97.538C17.6393 97.4644 17.6747 97.3645 17.6747 97.2604V89.0517C17.6747 88.9473 17.6394 88.8471 17.5763 88.773C17.5133 88.6988 17.4277 88.6568 17.3382 88.6559H4.82468C4.76966 88.6549 4.71566 88.6385 4.66725 88.608C4.61884 88.5775 4.57745 88.5338 4.5466 88.4807L0.620119 81.625C0.579457 81.555 0.520639 81.502 0.452288 81.4738C0.383936 81.4456 0.309646 81.4437 0.240305 81.4684C0.170964 81.4931 0.110219 81.543 0.0669746 81.6109C0.0237298 81.6788 0.000259136 81.761 2.84083e-06 81.8456Z" fill="#172B38"/>
<path d="M27.2217 81.8456V89.4216C27.2214 89.5004 27.2418 89.5774 27.2801 89.6422L31.7683 97.4778C31.7991 97.531 31.8405 97.5746 31.8889 97.6051C31.9373 97.6356 31.9913 97.6521 32.0464 97.653H44.5599C44.6492 97.653 44.7347 97.6117 44.7978 97.538C44.8609 97.4644 44.8964 97.3645 44.8964 97.2604V89.0517C44.8964 88.9473 44.861 88.8471 44.798 88.773C44.735 88.6988 44.6494 88.6568 44.5599 88.6559H32.0464C31.9913 88.6549 31.9373 88.6385 31.8889 88.608C31.8405 88.5775 31.7991 88.5338 31.7683 88.4807L27.8418 81.625C27.8011 81.555 27.7423 81.502 27.674 81.4738C27.6056 81.4456 27.5313 81.4437 27.462 81.4684C27.3926 81.4931 27.3319 81.543 27.2887 81.6109C27.2454 81.6788 27.2219 81.761 27.2217 81.8456Z" fill="#172B38"/>
<path d="M54.4434 81.8456V89.4216C54.4431 89.5004 54.4635 89.5774 54.5018 89.6422L58.99 97.4778C59.0208 97.531 59.0622 97.5746 59.1106 97.6051C59.159 97.6356 59.213 97.6521 59.268 97.653H71.7816C71.8708 97.653 71.9564 97.6117 72.0195 97.538C72.0826 97.4644 72.1181 97.3645 72.1181 97.2604V89.0517C72.1181 88.9473 72.0827 88.8471 72.0197 88.773C71.9567 88.6988 71.8711 88.6568 71.7816 88.6559H59.268C59.213 88.6549 59.159 88.6385 59.1106 88.608C59.0622 88.5775 59.0208 88.5338 58.99 88.4807L55.0635 81.625C55.0228 81.555 54.964 81.502 54.8956 81.4738C54.8273 81.4456 54.753 81.4437 54.6837 81.4684C54.6143 81.4931 54.5536 81.543 54.5103 81.6109C54.4671 81.6788 54.4436 81.761 54.4434 81.8456Z" fill="#172B38"/>
<path d="M81.665 81.8456V89.4216C81.6648 89.5004 81.6851 89.5774 81.7234 89.6422L86.2116 97.4778C86.2425 97.531 86.2839 97.5746 86.3323 97.6051C86.3807 97.6356 86.4347 97.6521 86.4897 97.653H99.0033C99.0925 97.653 99.1781 97.6117 99.2412 97.538C99.3043 97.4644 99.3398 97.3645 99.3398 97.2604V89.0517C99.3398 88.9473 99.3044 88.8471 99.2414 88.773C99.1784 88.6988 99.0928 88.6568 99.0033 88.6559H86.4897C86.4347 88.6549 86.3807 88.6385 86.3323 88.608C86.2839 88.5775 86.2425 88.5338 86.2116 88.4807L82.2852 81.625C82.2445 81.555 82.1857 81.502 82.1173 81.4738C82.049 81.4456 81.9747 81.4437 81.9053 81.4684C81.836 81.4931 81.7753 81.543 81.732 81.6109C81.6888 81.6788 81.6653 81.761 81.665 81.8456Z" fill="#172B38"/>
<path d="M108.887 81.8456V89.4216C108.886 89.5004 108.907 89.5774 108.945 89.6422L113.433 97.4778C113.464 97.531 113.506 97.5746 113.554 97.6051C113.602 97.6356 113.656 97.6521 113.711 97.653H126.225C126.314 97.653 126.4 97.6117 126.463 97.538C126.526 97.4644 126.561 97.3645 126.561 97.2604V89.0517C126.561 88.9473 126.526 88.8471 126.463 88.773C126.4 88.6988 126.314 88.6568 126.225 88.6559H113.711C113.656 88.6549 113.602 88.6385 113.554 88.608C113.506 88.5775 113.464 88.5338 113.433 88.4807L109.507 81.625C109.466 81.555 109.407 81.502 109.339 81.4738C109.271 81.4456 109.196 81.4437 109.127 81.4684C109.058 81.4931 108.997 81.543 108.954 81.6109C108.91 81.6788 108.887 81.761 108.887 81.8456Z" fill="#172B38"/>
<path d="M136.108 81.8456V89.4216C136.108 89.5004 136.128 89.5774 136.167 89.6422L140.655 97.4778C140.686 97.531 140.727 97.5746 140.776 97.6051C140.824 97.6356 140.878 97.6521 140.933 97.653H153.447C153.536 97.653 153.621 97.6117 153.685 97.538C153.748 97.4644 153.783 97.3645 153.783 97.2604V89.0517C153.783 88.9473 153.748 88.8471 153.685 88.773C153.622 88.6988 153.536 88.6568 153.447 88.6559H140.933C140.878 88.6549 140.824 88.6385 140.776 88.608C140.727 88.5775 140.686 88.5338 140.655 88.4807L136.729 81.625C136.688 81.555 136.629 81.502 136.561 81.4738C136.492 81.4456 136.418 81.4437 136.349 81.4684C136.279 81.4931 136.219 81.543 136.175 81.6109C136.132 81.6788 136.109 81.761 136.108 81.8456Z" fill="#172B38"/>
<path d="M163.33 81.8456V89.4216C163.33 89.5004 163.35 89.5774 163.388 89.6422L167.877 97.4778C167.908 97.531 167.949 97.5746 167.997 97.6051C168.046 97.6356 168.1 97.6521 168.155 97.653H180.668C180.758 97.653 180.843 97.6117 180.906 97.538C180.969 97.4644 181.005 97.3645 181.005 97.2604V89.0517C181.005 88.9473 180.969 88.8471 180.906 88.773C180.843 88.6988 180.758 88.6568 180.668 88.6559H168.155C168.1 88.6549 168.046 88.6385 167.997 88.608C167.949 88.5775 167.908 88.5338 167.877 88.4807L163.95 81.625C163.91 81.555 163.851 81.502 163.782 81.4738C163.714 81.4456 163.64 81.4437 163.57 81.4684C163.501 81.4931 163.44 81.543 163.397 81.6109C163.354 81.6788 163.33 81.761 163.33 81.8456Z" fill="#172B38"/>
<path d="M190.552 81.8456V89.4216C190.551 89.5004 190.572 89.5774 190.61 89.6422L195.098 97.4778C195.129 97.531 195.171 97.5746 195.219 97.6051C195.267 97.6356 195.321 97.6521 195.376 97.653H207.89C207.979 97.653 208.065 97.6117 208.128 97.538C208.191 97.4644 208.226 97.3645 208.226 97.2604V89.0517C208.226 88.9473 208.191 88.8471 208.128 88.773C208.065 88.6988 207.979 88.6568 207.89 88.6559H195.376C195.321 88.6549 195.267 88.6385 195.219 88.608C195.171 88.5775 195.129 88.5338 195.098 88.4807L191.172 81.625C191.131 81.555 191.072 81.502 191.004 81.4738C190.936 81.4456 190.861 81.4437 190.792 81.4684C190.723 81.4931 190.662 81.543 190.619 81.6109C190.575 81.6788 190.552 81.761 190.552 81.8456Z" fill="#172B38"/>
<path d="M217.773 81.8456V89.4216C217.773 89.5004 217.794 89.5774 217.832 89.6422L222.32 97.4778C222.351 97.531 222.392 97.5746 222.441 97.6051C222.489 97.6356 222.543 97.6521 222.598 97.653H235.112C235.201 97.653 235.286 97.6117 235.35 97.538C235.413 97.4644 235.448 97.3645 235.448 97.2604V89.0517C235.448 88.9473 235.413 88.8471 235.35 88.773C235.287 88.6988 235.201 88.6568 235.112 88.6559H222.598C222.543 88.6549 222.489 88.6385 222.441 88.608C222.392 88.5775 222.351 88.5338 222.32 88.4807L218.394 81.625C218.353 81.555 218.294 81.502 218.226 81.4738C218.157 81.4456 218.083 81.4437 218.014 81.4684C217.944 81.4931 217.884 81.543 217.84 81.6109C217.797 81.6788 217.774 81.761 217.773 81.8456Z" fill="#172B38"/>
<path d="M244.995 81.8456V89.4216C244.995 89.5004 245.015 89.5774 245.054 89.6422L249.542 97.4778C249.573 97.531 249.614 97.5746 249.662 97.6051C249.711 97.6356 249.765 97.6521 249.82 97.653H262.333C262.423 97.653 262.508 97.6117 262.571 97.538C262.634 97.4644 262.67 97.3645 262.67 97.2604V89.0517C262.67 88.9473 262.634 88.8471 262.571 88.773C262.508 88.6988 262.423 88.6568 262.333 88.6559H249.82C249.765 88.6549 249.711 88.6385 249.662 88.608C249.614 88.5775 249.573 88.5338 249.542 88.4807L245.615 81.625C245.575 81.555 245.516 81.502 245.447 81.4738C245.379 81.4456 245.305 81.4437 245.235 81.4684C245.166 81.4931 245.105 81.543 245.062 81.6109C245.019 81.6788 244.995 81.761 244.995 81.8456Z" fill="#172B38"/>
<path d="M2.84083e-06 108.996L2.84083e-06 116.572C-0.000276835 116.651 0.0201 116.728 0.0583992 116.793L4.5466 124.628C4.57745 124.681 4.61884 124.725 4.66725 124.756C4.71566 124.786 4.76966 124.802 4.82468 124.803H17.3382C17.4275 124.803 17.5131 124.762 17.5762 124.688C17.6393 124.615 17.6747 124.515 17.6747 124.411V116.202C17.6747 116.098 17.6394 115.998 17.5763 115.923C17.5133 115.849 17.4277 115.807 17.3382 115.806H4.82468C4.76966 115.805 4.71566 115.789 4.66725 115.758C4.61884 115.728 4.57745 115.684 4.5466 115.631L0.620119 108.775C0.579457 108.705 0.520639 108.652 0.452288 108.624C0.383936 108.596 0.309646 108.594 0.240305 108.619C0.170964 108.643 0.110219 108.693 0.0669746 108.761C0.0237298 108.829 0.000259136 108.911 2.84083e-06 108.996Z" fill="#172B38"/>
<path d="M27.2217 108.996V116.572C27.2214 116.651 27.2418 116.728 27.2801 116.793L31.7683 124.628C31.7991 124.681 31.8405 124.725 31.8889 124.756C31.9373 124.786 31.9913 124.802 32.0464 124.803H44.5599C44.6492 124.803 44.7347 124.762 44.7978 124.688C44.8609 124.615 44.8964 124.515 44.8964 124.411V116.202C44.8964 116.098 44.861 115.998 44.798 115.923C44.735 115.849 44.6494 115.807 44.5599 115.806H32.0464C31.9913 115.805 31.9373 115.789 31.8889 115.758C31.8405 115.728 31.7991 115.684 31.7683 115.631L27.8418 108.775C27.8011 108.705 27.7423 108.652 27.674 108.624C27.6056 108.596 27.5313 108.594 27.462 108.619C27.3926 108.643 27.3319 108.693 27.2887 108.761C27.2454 108.829 27.2219 108.911 27.2217 108.996Z" fill="#172B38"/>
<path d="M54.4434 108.996V116.572C54.4431 116.651 54.4635 116.728 54.5018 116.793L58.99 124.628C59.0208 124.681 59.0622 124.725 59.1106 124.756C59.159 124.786 59.213 124.802 59.268 124.803H71.7816C71.8708 124.803 71.9564 124.762 72.0195 124.688C72.0826 124.615 72.1181 124.515 72.1181 124.411V116.202C72.1181 116.098 72.0827 115.998 72.0197 115.923C71.9567 115.849 71.8711 115.807 71.7816 115.806H59.268C59.213 115.805 59.159 115.789 59.1106 115.758C59.0622 115.728 59.0208 115.684 58.99 115.631L55.0635 108.775C55.0228 108.705 54.964 108.652 54.8956 108.624C54.8273 108.596 54.753 108.594 54.6837 108.619C54.6143 108.643 54.5536 108.693 54.5103 108.761C54.4671 108.829 54.4436 108.911 54.4434 108.996Z" fill="#172B38"/>
<path d="M81.665 108.996V116.572C81.6648 116.651 81.6851 116.728 81.7234 116.793L86.2116 124.628C86.2425 124.681 86.2839 124.725 86.3323 124.756C86.3807 124.786 86.4347 124.802 86.4897 124.803H99.0033C99.0925 124.803 99.1781 124.762 99.2412 124.688C99.3043 124.615 99.3398 124.515 99.3398 124.411V116.202C99.3398 116.098 99.3044 115.998 99.2414 115.923C99.1784 115.849 99.0928 115.807 99.0033 115.806H86.4897C86.4347 115.805 86.3807 115.789 86.3323 115.758C86.2839 115.728 86.2425 115.684 86.2116 115.631L82.2852 108.775C82.2445 108.705 82.1857 108.652 82.1173 108.624C82.049 108.596 81.9747 108.594 81.9053 108.619C81.836 108.643 81.7753 108.693 81.732 108.761C81.6888 108.829 81.6653 108.911 81.665 108.996Z" fill="#172B38"/>
<path d="M108.887 108.996V116.572C108.886 116.651 108.907 116.728 108.945 116.793L113.433 124.628C113.464 124.681 113.506 124.725 113.554 124.756C113.602 124.786 113.656 124.802 113.711 124.803H126.225C126.314 124.803 126.4 124.762 126.463 124.688C126.526 124.615 126.561 124.515 126.561 124.411V116.202C126.561 116.098 126.526 115.998 126.463 115.923C126.4 115.849 126.314 115.807 126.225 115.806H113.711C113.656 115.805 113.602 115.789 113.554 115.758C113.506 115.728 113.464 115.684 113.433 115.631L109.507 108.775C109.466 108.705 109.407 108.652 109.339 108.624C109.271 108.596 109.196 108.594 109.127 108.619C109.058 108.643 108.997 108.693 108.954 108.761C108.91 108.829 108.887 108.911 108.887 108.996Z" fill="#172B38"/>
<path d="M136.108 108.996V116.572C136.108 116.651 136.128 116.728 136.167 116.793L140.655 124.628C140.686 124.681 140.727 124.725 140.776 124.756C140.824 124.786 140.878 124.802 140.933 124.803H153.447C153.536 124.803 153.621 124.762 153.685 124.688C153.748 124.615 153.783 124.515 153.783 124.411V116.202C153.783 116.098 153.748 115.998 153.685 115.923C153.622 115.849 153.536 115.807 153.447 115.806H140.933C140.878 115.805 140.824 115.789 140.776 115.758C140.727 115.728 140.686 115.684 140.655 115.631L136.729 108.775C136.688 108.705 136.629 108.652 136.561 108.624C136.492 108.596 136.418 108.594 136.349 108.619C136.279 108.643 136.219 108.693 136.175 108.761C136.132 108.829 136.109 108.911 136.108 108.996Z" fill="#172B38"/>
<path d="M163.33 108.996V116.572C163.33 116.651 163.35 116.728 163.388 116.793L167.877 124.628C167.908 124.681 167.949 124.725 167.997 124.756C168.046 124.786 168.1 124.802 168.155 124.803H180.668C180.758 124.803 180.843 124.762 180.906 124.688C180.969 124.615 181.005 124.515 181.005 124.411V116.202C181.005 116.098 180.969 115.998 180.906 115.923C180.843 115.849 180.758 115.807 180.668 115.806H168.155C168.1 115.805 168.046 115.789 167.997 115.758C167.949 115.728 167.908 115.684 167.877 115.631L163.95 108.775C163.91 108.705 163.851 108.652 163.782 108.624C163.714 108.596 163.64 108.594 163.57 108.619C163.501 108.643 163.44 108.693 163.397 108.761C163.354 108.829 163.33 108.911 163.33 108.996Z" fill="#172B38"/>
<path d="M190.552 108.996V116.572C190.551 116.651 190.572 116.728 190.61 116.793L195.098 124.628C195.129 124.681 195.171 124.725 195.219 124.756C195.267 124.786 195.321 124.802 195.376 124.803H207.89C207.979 124.803 208.065 124.762 208.128 124.688C208.191 124.615 208.226 124.515 208.226 124.411V116.202C208.226 116.098 208.191 115.998 208.128 115.923C208.065 115.849 207.979 115.807 207.89 115.806H195.376C195.321 115.805 195.267 115.789 195.219 115.758C195.171 115.728 195.129 115.684 195.098 115.631L191.172 108.775C191.131 108.705 191.072 108.652 191.004 108.624C190.936 108.596 190.861 108.594 190.792 108.619C190.723 108.643 190.662 108.693 190.619 108.761C190.575 108.829 190.552 108.911 190.552 108.996Z" fill="#172B38"/>
<path d="M217.773 108.996V116.572C217.773 116.651 217.794 116.728 217.832 116.793L222.32 124.628C222.351 124.681 222.392 124.725 222.441 124.756C222.489 124.786 222.543 124.802 222.598 124.803H235.112C235.201 124.803 235.286 124.762 235.35 124.688C235.413 124.615 235.448 124.515 235.448 124.411V116.202C235.448 116.098 235.413 115.998 235.35 115.923C235.287 115.849 235.201 115.807 235.112 115.806H222.598C222.543 115.805 222.489 115.789 222.441 115.758C222.392 115.728 222.351 115.684 222.32 115.631L218.394 108.775C218.353 108.705 218.294 108.652 218.226 108.624C218.157 108.596 218.083 108.594 218.014 108.619C217.944 108.643 217.884 108.693 217.84 108.761C217.797 108.829 217.774 108.911 217.773 108.996Z" fill="#172B38"/>
<path d="M244.995 108.996V116.572C244.995 116.651 245.015 116.728 245.054 116.793L249.542 124.628C249.573 124.681 249.614 124.725 249.662 124.756C249.711 124.786 249.765 124.802 249.82 124.803H262.333C262.423 124.803 262.508 124.762 262.571 124.688C262.634 124.615 262.67 124.515 262.67 124.411V116.202C262.67 116.098 262.634 115.998 262.571 115.923C262.508 115.849 262.423 115.807 262.333 115.806H249.82C249.765 115.805 249.711 115.789 249.662 115.758C249.614 115.728 249.573 115.684 249.542 115.631L245.615 108.775C245.575 108.705 245.516 108.652 245.447 108.624C245.379 108.596 245.305 108.594 245.235 108.619C245.166 108.643 245.105 108.693 245.062 108.761C245.019 108.829 244.995 108.911 244.995 108.996Z" fill="#172B38"/>
<path d="M2.84083e-06 136.146L2.84083e-06 143.722C-0.000276835 143.801 0.0201 143.878 0.0583992 143.943L4.5466 151.778C4.57745 151.832 4.61884 151.875 4.66725 151.906C4.71566 151.936 4.76966 151.953 4.82468 151.954H17.3382C17.4275 151.954 17.5131 151.912 17.5762 151.839C17.6393 151.765 17.6747 151.665 17.6747 151.561V143.352C17.6747 143.248 17.6394 143.148 17.5763 143.074C17.5133 142.999 17.4277 142.957 17.3382 142.956H4.82468C4.76966 142.956 4.71566 142.939 4.66725 142.909C4.61884 142.878 4.57745 142.834 4.5466 142.781L0.620119 135.926C0.579457 135.855 0.520639 135.803 0.452288 135.774C0.383936 135.746 0.309646 135.744 0.240305 135.769C0.170964 135.794 0.110219 135.844 0.0669746 135.911C0.0237298 135.979 0.000259136 136.062 2.84083e-06 136.146Z" fill="#172B38"/>
<path d="M27.2217 136.146V143.722C27.2214 143.801 27.2418 143.878 27.2801 143.943L31.7683 151.778C31.7991 151.832 31.8405 151.875 31.8889 151.906C31.9373 151.936 31.9913 151.953 32.0464 151.954H44.5599C44.6492 151.954 44.7347 151.912 44.7978 151.839C44.8609 151.765 44.8964 151.665 44.8964 151.561V143.352C44.8964 143.248 44.861 143.148 44.798 143.074C44.735 142.999 44.6494 142.957 44.5599 142.956H32.0464C31.9913 142.956 31.9373 142.939 31.8889 142.909C31.8405 142.878 31.7991 142.834 31.7683 142.781L27.8418 135.926C27.8011 135.855 27.7423 135.803 27.674 135.774C27.6056 135.746 27.5313 135.744 27.462 135.769C27.3926 135.794 27.3319 135.844 27.2887 135.911C27.2454 135.979 27.2219 136.062 27.2217 136.146Z" fill="#172B38"/>
<path d="M54.4434 136.146V143.722C54.4431 143.801 54.4635 143.878 54.5018 143.943L58.99 151.778C59.0208 151.832 59.0622 151.875 59.1106 151.906C59.159 151.936 59.213 151.953 59.268 151.954H71.7816C71.8708 151.954 71.9564 151.912 72.0195 151.839C72.0826 151.765 72.1181 151.665 72.1181 151.561V143.352C72.1181 143.248 72.0827 143.148 72.0197 143.074C71.9567 142.999 71.8711 142.957 71.7816 142.956H59.268C59.213 142.956 59.159 142.939 59.1106 142.909C59.0622 142.878 59.0208 142.834 58.99 142.781L55.0635 135.926C55.0228 135.855 54.964 135.803 54.8956 135.774C54.8273 135.746 54.753 135.744 54.6837 135.769C54.6143 135.794 54.5536 135.844 54.5103 135.911C54.4671 135.979 54.4436 136.062 54.4434 136.146Z" fill="#172B38"/>
<path d="M81.665 136.146V143.722C81.6648 143.801 81.6851 143.878 81.7234 143.943L86.2116 151.778C86.2425 151.832 86.2839 151.875 86.3323 151.906C86.3807 151.936 86.4347 151.953 86.4897 151.954H99.0033C99.0925 151.954 99.1781 151.912 99.2412 151.839C99.3043 151.765 99.3398 151.665 99.3398 151.561V143.352C99.3398 143.248 99.3044 143.148 99.2414 143.074C99.1784 142.999 99.0928 142.957 99.0033 142.956H86.4897C86.4347 142.956 86.3807 142.939 86.3323 142.909C86.2839 142.878 86.2425 142.834 86.2116 142.781L82.2852 135.926C82.2445 135.855 82.1857 135.803 82.1173 135.774C82.049 135.746 81.9747 135.744 81.9053 135.769C81.836 135.794 81.7753 135.844 81.732 135.911C81.6888 135.979 81.6653 136.062 81.665 136.146Z" fill="#172B38"/>
<path d="M108.887 136.146V143.722C108.886 143.801 108.907 143.878 108.945 143.943L113.433 151.778C113.464 151.832 113.506 151.875 113.554 151.906C113.602 151.936 113.656 151.953 113.711 151.954H126.225C126.314 151.954 126.4 151.912 126.463 151.839C126.526 151.765 126.561 151.665 126.561 151.561V143.352C126.561 143.248 126.526 143.148 126.463 143.074C126.4 142.999 126.314 142.957 126.225 142.956H113.711C113.656 142.956 113.602 142.939 113.554 142.909C113.506 142.878 113.464 142.834 113.433 142.781L109.507 135.926C109.466 135.855 109.407 135.803 109.339 135.774C109.271 135.746 109.196 135.744 109.127 135.769C109.058 135.794 108.997 135.844 108.954 135.911C108.91 135.979 108.887 136.062 108.887 136.146Z" fill="#172B38"/>
<path d="M136.108 136.146V143.722C136.108 143.801 136.128 143.878 136.167 143.943L140.655 151.778C140.686 151.832 140.727 151.875 140.776 151.906C140.824 151.936 140.878 151.953 140.933 151.954H153.447C153.536 151.954 153.621 151.912 153.685 151.839C153.748 151.765 153.783 151.665 153.783 151.561V143.352C153.783 143.248 153.748 143.148 153.685 143.074C153.622 142.999 153.536 142.957 153.447 142.956H140.933C140.878 142.956 140.824 142.939 140.776 142.909C140.727 142.878 140.686 142.834 140.655 142.781L136.729 135.926C136.688 135.855 136.629 135.803 136.561 135.774C136.492 135.746 136.418 135.744 136.349 135.769C136.279 135.794 136.219 135.844 136.175 135.911C136.132 135.979 136.109 136.062 136.108 136.146Z" fill="#172B38"/>
<path d="M163.33 136.146V143.722C163.33 143.801 163.35 143.878 163.388 143.943L167.877 151.778C167.908 151.832 167.949 151.875 167.997 151.906C168.046 151.936 168.1 151.953 168.155 151.954H180.668C180.758 151.954 180.843 151.912 180.906 151.839C180.969 151.765 181.005 151.665 181.005 151.561V143.352C181.005 143.248 180.969 143.148 180.906 143.074C180.843 142.999 180.758 142.957 180.668 142.956H168.155C168.1 142.956 168.046 142.939 167.997 142.909C167.949 142.878 167.908 142.834 167.877 142.781L163.95 135.926C163.91 135.855 163.851 135.803 163.782 135.774C163.714 135.746 163.64 135.744 163.57 135.769C163.501 135.794 163.44 135.844 163.397 135.911C163.354 135.979 163.33 136.062 163.33 136.146Z" fill="#172B38"/>
<path d="M190.552 136.146V143.722C190.551 143.801 190.572 143.878 190.61 143.943L195.098 151.778C195.129 151.832 195.171 151.875 195.219 151.906C195.267 151.936 195.321 151.953 195.376 151.954H207.89C207.979 151.954 208.065 151.912 208.128 151.839C208.191 151.765 208.226 151.665 208.226 151.561V143.352C208.226 143.248 208.191 143.148 208.128 143.074C208.065 142.999 207.979 142.957 207.89 142.956H195.376C195.321 142.956 195.267 142.939 195.219 142.909C195.171 142.878 195.129 142.834 195.098 142.781L191.172 135.926C191.131 135.855 191.072 135.803 191.004 135.774C190.936 135.746 190.861 135.744 190.792 135.769C190.723 135.794 190.662 135.844 190.619 135.911C190.575 135.979 190.552 136.062 190.552 136.146Z" fill="#172B38"/>
<path d="M217.773 136.146V143.722C217.773 143.801 217.794 143.878 217.832 143.943L222.32 151.778C222.351 151.832 222.392 151.875 222.441 151.906C222.489 151.936 222.543 151.953 222.598 151.954H235.112C235.201 151.954 235.286 151.912 235.35 151.839C235.413 151.765 235.448 151.665 235.448 151.561V143.352C235.448 143.248 235.413 143.148 235.35 143.074C235.287 142.999 235.201 142.957 235.112 142.956H222.598C222.543 142.956 222.489 142.939 222.441 142.909C222.392 142.878 222.351 142.834 222.32 142.781L218.394 135.926C218.353 135.855 218.294 135.803 218.226 135.774C218.157 135.746 218.083 135.744 218.014 135.769C217.944 135.794 217.884 135.844 217.84 135.911C217.797 135.979 217.774 136.062 217.773 136.146Z" fill="#172B38"/>
<path d="M244.995 136.146V143.722C244.995 143.801 245.015 143.878 245.054 143.943L249.542 151.778C249.573 151.832 249.614 151.875 249.662 151.906C249.711 151.936 249.765 151.953 249.82 151.954H262.333C262.423 151.954 262.508 151.912 262.571 151.839C262.634 151.765 262.67 151.665 262.67 151.561V143.352C262.67 143.248 262.634 143.148 262.571 143.074C262.508 142.999 262.423 142.957 262.333 142.956H249.82C249.765 142.956 249.711 142.939 249.662 142.909C249.614 142.878 249.573 142.834 249.542 142.781L245.615 135.926C245.575 135.855 245.516 135.803 245.447 135.774C245.379 135.746 245.305 135.744 245.235 135.769C245.166 135.794 245.105 135.844 245.062 135.911C245.019 135.979 244.995 136.062 244.995 136.146Z" fill="#172B38"/>
<path d="M2.84083e-06 163.297L2.84083e-06 170.873C-0.000276835 170.951 0.0201 171.028 0.0583992 171.093L4.5466 178.929C4.57745 178.982 4.61884 179.025 4.66725 179.056C4.71566 179.087 4.76966 179.103 4.82468 179.104H17.3382C17.4275 179.104 17.5131 179.063 17.5762 178.989C17.6393 178.915 17.6747 178.815 17.6747 178.711V170.503C17.6747 170.398 17.6394 170.298 17.5763 170.224C17.5133 170.15 17.4277 170.108 17.3382 170.107H4.82468C4.76966 170.106 4.71566 170.089 4.66725 170.059C4.61884 170.028 4.57745 169.985 4.5466 169.932L0.620119 163.076C0.579457 163.006 0.520639 162.953 0.452288 162.925C0.383936 162.897 0.309646 162.895 0.240305 162.919C0.170964 162.944 0.110219 162.994 0.0669746 163.062C0.0237298 163.13 0.000259136 163.212 2.84083e-06 163.297Z" fill="#172B38"/>
<path d="M27.2217 163.297V170.873C27.2214 170.951 27.2418 171.028 27.2801 171.093L31.7683 178.929C31.7991 178.982 31.8405 179.025 31.8889 179.056C31.9373 179.087 31.9913 179.103 32.0464 179.104H44.5599C44.6492 179.104 44.7347 179.063 44.7978 178.989C44.8609 178.915 44.8964 178.815 44.8964 178.711V170.503C44.8964 170.398 44.861 170.298 44.798 170.224C44.735 170.15 44.6494 170.108 44.5599 170.107H32.0464C31.9913 170.106 31.9373 170.089 31.8889 170.059C31.8405 170.028 31.7991 169.985 31.7683 169.932L27.8418 163.076C27.8011 163.006 27.7423 162.953 27.674 162.925C27.6056 162.897 27.5313 162.895 27.462 162.919C27.3926 162.944 27.3319 162.994 27.2887 163.062C27.2454 163.13 27.2219 163.212 27.2217 163.297Z" fill="#172B38"/>
<path d="M54.4434 163.297V170.873C54.4431 170.951 54.4635 171.028 54.5018 171.093L58.99 178.929C59.0208 178.982 59.0622 179.025 59.1106 179.056C59.159 179.087 59.213 179.103 59.268 179.104H71.7816C71.8708 179.104 71.9564 179.063 72.0195 178.989C72.0826 178.915 72.1181 178.815 72.1181 178.711V170.503C72.1181 170.398 72.0827 170.298 72.0197 170.224C71.9567 170.15 71.8711 170.108 71.7816 170.107H59.268C59.213 170.106 59.159 170.089 59.1106 170.059C59.0622 170.028 59.0208 169.985 58.99 169.932L55.0635 163.076C55.0228 163.006 54.964 162.953 54.8956 162.925C54.8273 162.897 54.753 162.895 54.6837 162.919C54.6143 162.944 54.5536 162.994 54.5103 163.062C54.4671 163.13 54.4436 163.212 54.4434 163.297Z" fill="#172B38"/>
<path d="M81.665 163.297V170.873C81.6648 170.951 81.6851 171.028 81.7234 171.093L86.2116 178.929C86.2425 178.982 86.2839 179.025 86.3323 179.056C86.3807 179.087 86.4347 179.103 86.4897 179.104H99.0033C99.0925 179.104 99.1781 179.063 99.2412 178.989C99.3043 178.915 99.3398 178.815 99.3398 178.711V170.503C99.3398 170.398 99.3044 170.298 99.2414 170.224C99.1784 170.15 99.0928 170.108 99.0033 170.107H86.4897C86.4347 170.106 86.3807 170.089 86.3323 170.059C86.2839 170.028 86.2425 169.985 86.2116 169.932L82.2852 163.076C82.2445 163.006 82.1857 162.953 82.1173 162.925C82.049 162.897 81.9747 162.895 81.9053 162.919C81.836 162.944 81.7753 162.994 81.732 163.062C81.6888 163.13 81.6653 163.212 81.665 163.297Z" fill="#172B38"/>
<path d="M108.887 163.297V170.873C108.886 170.951 108.907 171.028 108.945 171.093L113.433 178.929C113.464 178.982 113.506 179.025 113.554 179.056C113.602 179.087 113.656 179.103 113.711 179.104H126.225C126.314 179.104 126.4 179.063 126.463 178.989C126.526 178.915 126.561 178.815 126.561 178.711V170.503C126.561 170.398 126.526 170.298 126.463 170.224C126.4 170.15 126.314 170.108 126.225 170.107H113.711C113.656 170.106 113.602 170.089 113.554 170.059C113.506 170.028 113.464 169.985 113.433 169.932L109.507 163.076C109.466 163.006 109.407 162.953 109.339 162.925C109.271 162.897 109.196 162.895 109.127 162.919C109.058 162.944 108.997 162.994 108.954 163.062C108.91 163.13 108.887 163.212 108.887 163.297Z" fill="#172B38"/>
<path d="M136.108 163.297V170.873C136.108 170.951 136.128 171.028 136.167 171.093L140.655 178.929C140.686 178.982 140.727 179.025 140.776 179.056C140.824 179.087 140.878 179.103 140.933 179.104H153.447C153.536 179.104 153.621 179.063 153.685 178.989C153.748 178.915 153.783 178.815 153.783 178.711V170.503C153.783 170.398 153.748 170.298 153.685 170.224C153.622 170.15 153.536 170.108 153.447 170.107H140.933C140.878 170.106 140.824 170.089 140.776 170.059C140.727 170.028 140.686 169.985 140.655 169.932L136.729 163.076C136.688 163.006 136.629 162.953 136.561 162.925C136.492 162.897 136.418 162.895 136.349 162.919C136.279 162.944 136.219 162.994 136.175 163.062C136.132 163.13 136.109 163.212 136.108 163.297Z" fill="#172B38"/>
<path d="M163.33 163.297V170.873C163.33 170.951 163.35 171.028 163.388 171.093L167.877 178.929C167.908 178.982 167.949 179.025 167.997 179.056C168.046 179.087 168.1 179.103 168.155 179.104H180.668C180.758 179.104 180.843 179.063 180.906 178.989C180.969 178.915 181.005 178.815 181.005 178.711V170.503C181.005 170.398 180.969 170.298 180.906 170.224C180.843 170.15 180.758 170.108 180.668 170.107H168.155C168.1 170.106 168.046 170.089 167.997 170.059C167.949 170.028 167.908 169.985 167.877 169.932L163.95 163.076C163.91 163.006 163.851 162.953 163.782 162.925C163.714 162.897 163.64 162.895 163.57 162.919C163.501 162.944 163.44 162.994 163.397 163.062C163.354 163.13 163.33 163.212 163.33 163.297Z" fill="#172B38"/>
<path d="M190.552 163.297V170.873C190.551 170.951 190.572 171.028 190.61 171.093L195.098 178.929C195.129 178.982 195.171 179.025 195.219 179.056C195.267 179.087 195.321 179.103 195.376 179.104H207.89C207.979 179.104 208.065 179.063 208.128 178.989C208.191 178.915 208.226 178.815 208.226 178.711V170.503C208.226 170.398 208.191 170.298 208.128 170.224C208.065 170.15 207.979 170.108 207.89 170.107H195.376C195.321 170.106 195.267 170.089 195.219 170.059C195.171 170.028 195.129 169.985 195.098 169.932L191.172 163.076C191.131 163.006 191.072 162.953 191.004 162.925C190.936 162.897 190.861 162.895 190.792 162.919C190.723 162.944 190.662 162.994 190.619 163.062C190.575 163.13 190.552 163.212 190.552 163.297Z" fill="#172B38"/>
<path d="M217.773 163.297V170.873C217.773 170.951 217.794 171.028 217.832 171.093L222.32 178.929C222.351 178.982 222.392 179.025 222.441 179.056C222.489 179.087 222.543 179.103 222.598 179.104H235.112C235.201 179.104 235.286 179.063 235.35 178.989C235.413 178.915 235.448 178.815 235.448 178.711V170.503C235.448 170.398 235.413 170.298 235.35 170.224C235.287 170.15 235.201 170.108 235.112 170.107H222.598C222.543 170.106 222.489 170.089 222.441 170.059C222.392 170.028 222.351 169.985 222.32 169.932L218.394 163.076C218.353 163.006 218.294 162.953 218.226 162.925C218.157 162.897 218.083 162.895 218.014 162.919C217.944 162.944 217.884 162.994 217.84 163.062C217.797 163.13 217.774 163.212 217.773 163.297Z" fill="#172B38"/>
<path d="M244.995 163.297V170.873C244.995 170.951 245.015 171.028 245.054 171.093L249.542 178.929C249.573 178.982 249.614 179.025 249.662 179.056C249.711 179.087 249.765 179.103 249.82 179.104H262.333C262.423 179.104 262.508 179.063 262.571 178.989C262.634 178.915 262.67 178.815 262.67 178.711V170.503C262.67 170.398 262.634 170.298 262.571 170.224C262.508 170.15 262.423 170.108 262.333 170.107H249.82C249.765 170.106 249.711 170.089 249.662 170.059C249.614 170.028 249.573 169.985 249.542 169.932L245.615 163.076C245.575 163.006 245.516 162.953 245.447 162.925C245.379 162.897 245.305 162.895 245.235 162.919C245.166 162.944 245.105 162.994 245.062 163.062C245.019 163.13 244.995 163.212 244.995 163.297Z" fill="#172B38"/>
<path d="M2.84083e-06 190.447L2.84083e-06 198.023C-0.000276835 198.102 0.0201 198.179 0.0583992 198.244L4.5466 206.079C4.57745 206.132 4.61884 206.176 4.66725 206.206C4.71566 206.237 4.76966 206.253 4.82468 206.254H17.3382C17.4275 206.254 17.5131 206.213 17.5762 206.139C17.6393 206.066 17.6747 205.966 17.6747 205.862V197.653C17.6747 197.549 17.6394 197.448 17.5763 197.374C17.5133 197.3 17.4277 197.258 17.3382 197.257H4.82468C4.76966 197.256 4.71566 197.24 4.66725 197.209C4.61884 197.179 4.57745 197.135 4.5466 197.082L0.620119 190.226C0.579457 190.156 0.520639 190.103 0.452288 190.075C0.383936 190.047 0.309646 190.045 0.240305 190.07C0.170964 190.094 0.110219 190.144 0.0669746 190.212C0.0237298 190.28 0.000259136 190.362 2.84083e-06 190.447Z" fill="#172B38"/>
<path d="M27.2217 190.447V198.023C27.2214 198.102 27.2418 198.179 27.2801 198.244L31.7683 206.079C31.7991 206.132 31.8405 206.176 31.8889 206.206C31.9373 206.237 31.9913 206.253 32.0464 206.254H44.5599C44.6492 206.254 44.7347 206.213 44.7978 206.139C44.8609 206.066 44.8964 205.966 44.8964 205.862V197.653C44.8964 197.549 44.861 197.448 44.798 197.374C44.735 197.3 44.6494 197.258 44.5599 197.257H32.0464C31.9913 197.256 31.9373 197.24 31.8889 197.209C31.8405 197.179 31.7991 197.135 31.7683 197.082L27.8418 190.226C27.8011 190.156 27.7423 190.103 27.674 190.075C27.6056 190.047 27.5313 190.045 27.462 190.07C27.3926 190.094 27.3319 190.144 27.2887 190.212C27.2454 190.28 27.2219 190.362 27.2217 190.447Z" fill="#172B38"/>
<path d="M54.4434 190.447V198.023C54.4431 198.102 54.4635 198.179 54.5018 198.244L58.99 206.079C59.0208 206.132 59.0622 206.176 59.1106 206.206C59.159 206.237 59.213 206.253 59.268 206.254H71.7816C71.8708 206.254 71.9564 206.213 72.0195 206.139C72.0826 206.066 72.1181 205.966 72.1181 205.862V197.653C72.1181 197.549 72.0827 197.448 72.0197 197.374C71.9567 197.3 71.8711 197.258 71.7816 197.257H59.268C59.213 197.256 59.159 197.24 59.1106 197.209C59.0622 197.179 59.0208 197.135 58.99 197.082L55.0635 190.226C55.0228 190.156 54.964 190.103 54.8956 190.075C54.8273 190.047 54.753 190.045 54.6837 190.07C54.6143 190.094 54.5536 190.144 54.5103 190.212C54.4671 190.28 54.4436 190.362 54.4434 190.447Z" fill="#172B38"/>
<path d="M81.665 190.447V198.023C81.6648 198.102 81.6851 198.179 81.7234 198.244L86.2116 206.079C86.2425 206.132 86.2839 206.176 86.3323 206.206C86.3807 206.237 86.4347 206.253 86.4897 206.254H99.0033C99.0925 206.254 99.1781 206.213 99.2412 206.139C99.3043 206.066 99.3398 205.966 99.3398 205.862V197.653C99.3398 197.549 99.3044 197.448 99.2414 197.374C99.1784 197.3 99.0928 197.258 99.0033 197.257H86.4897C86.4347 197.256 86.3807 197.24 86.3323 197.209C86.2839 197.179 86.2425 197.135 86.2116 197.082L82.2852 190.226C82.2445 190.156 82.1857 190.103 82.1173 190.075C82.049 190.047 81.9747 190.045 81.9053 190.07C81.836 190.094 81.7753 190.144 81.732 190.212C81.6888 190.28 81.6653 190.362 81.665 190.447Z" fill="#172B38"/>
<path d="M108.887 190.447V198.023C108.886 198.102 108.907 198.179 108.945 198.244L113.433 206.079C113.464 206.132 113.506 206.176 113.554 206.206C113.602 206.237 113.656 206.253 113.711 206.254H126.225C126.314 206.254 126.4 206.213 126.463 206.139C126.526 206.066 126.561 205.966 126.561 205.862V197.653C126.561 197.549 126.526 197.448 126.463 197.374C126.4 197.3 126.314 197.258 126.225 197.257H113.711C113.656 197.256 113.602 197.24 113.554 197.209C113.506 197.179 113.464 197.135 113.433 197.082L109.507 190.226C109.466 190.156 109.407 190.103 109.339 190.075C109.271 190.047 109.196 190.045 109.127 190.07C109.058 190.094 108.997 190.144 108.954 190.212C108.91 190.28 108.887 190.362 108.887 190.447Z" fill="#172B38"/>
<path d="M136.108 190.447V198.023C136.108 198.102 136.128 198.179 136.167 198.244L140.655 206.079C140.686 206.132 140.727 206.176 140.776 206.206C140.824 206.237 140.878 206.253 140.933 206.254H153.447C153.536 206.254 153.621 206.213 153.685 206.139C153.748 206.066 153.783 205.966 153.783 205.862V197.653C153.783 197.549 153.748 197.448 153.685 197.374C153.622 197.3 153.536 197.258 153.447 197.257H140.933C140.878 197.256 140.824 197.24 140.776 197.209C140.727 197.179 140.686 197.135 140.655 197.082L136.729 190.226C136.688 190.156 136.629 190.103 136.561 190.075C136.492 190.047 136.418 190.045 136.349 190.07C136.279 190.094 136.219 190.144 136.175 190.212C136.132 190.28 136.109 190.362 136.108 190.447Z" fill="#172B38"/>
<path d="M163.33 190.447V198.023C163.33 198.102 163.35 198.179 163.388 198.244L167.877 206.079C167.908 206.132 167.949 206.176 167.997 206.206C168.046 206.237 168.1 206.253 168.155 206.254H180.668C180.758 206.254 180.843 206.213 180.906 206.139C180.969 206.066 181.005 205.966 181.005 205.862V197.653C181.005 197.549 180.969 197.448 180.906 197.374C180.843 197.3 180.758 197.258 180.668 197.257H168.155C168.1 197.256 168.046 197.24 167.997 197.209C167.949 197.179 167.908 197.135 167.877 197.082L163.95 190.226C163.91 190.156 163.851 190.103 163.782 190.075C163.714 190.047 163.64 190.045 163.57 190.07C163.501 190.094 163.44 190.144 163.397 190.212C163.354 190.28 163.33 190.362 163.33 190.447Z" fill="#172B38"/>
<path d="M190.552 190.447V198.023C190.551 198.102 190.572 198.179 190.61 198.244L195.098 206.079C195.129 206.132 195.171 206.176 195.219 206.206C195.267 206.237 195.321 206.253 195.376 206.254H207.89C207.979 206.254 208.065 206.213 208.128 206.139C208.191 206.066 208.226 205.966 208.226 205.862V197.653C208.226 197.549 208.191 197.448 208.128 197.374C208.065 197.3 207.979 197.258 207.89 197.257H195.376C195.321 197.256 195.267 197.24 195.219 197.209C195.171 197.179 195.129 197.135 195.098 197.082L191.172 190.226C191.131 190.156 191.072 190.103 191.004 190.075C190.936 190.047 190.861 190.045 190.792 190.07C190.723 190.094 190.662 190.144 190.619 190.212C190.575 190.28 190.552 190.362 190.552 190.447Z" fill="#172B38"/>
<path d="M217.773 190.447V198.023C217.773 198.102 217.794 198.179 217.832 198.244L222.32 206.079C222.351 206.132 222.392 206.176 222.441 206.206C222.489 206.237 222.543 206.253 222.598 206.254H235.112C235.201 206.254 235.286 206.213 235.35 206.139C235.413 206.066 235.448 205.966 235.448 205.862V197.653C235.448 197.549 235.413 197.448 235.35 197.374C235.287 197.3 235.201 197.258 235.112 197.257H222.598C222.543 197.256 222.489 197.24 222.441 197.209C222.392 197.179 222.351 197.135 222.32 197.082L218.394 190.226C218.353 190.156 218.294 190.103 218.226 190.075C218.157 190.047 218.083 190.045 218.014 190.07C217.944 190.094 217.884 190.144 217.84 190.212C217.797 190.28 217.774 190.362 217.773 190.447Z" fill="#172B38"/>
<path d="M244.995 190.447V198.023C244.995 198.102 245.015 198.179 245.054 198.244L249.542 206.079C249.573 206.132 249.614 206.176 249.662 206.206C249.711 206.237 249.765 206.253 249.82 206.254H262.333C262.423 206.254 262.508 206.213 262.571 206.139C262.634 206.066 262.67 205.966 262.67 205.862V197.653C262.67 197.549 262.634 197.448 262.571 197.374C262.508 197.3 262.423 197.258 262.333 197.257H249.82C249.765 197.256 249.711 197.24 249.662 197.209C249.614 197.179 249.573 197.135 249.542 197.082L245.615 190.226C245.575 190.156 245.516 190.103 245.447 190.075C245.379 190.047 245.305 190.045 245.235 190.07C245.166 190.094 245.105 190.144 245.062 190.212C245.019 190.28 244.995 190.362 244.995 190.447Z" fill="#172B38"/>
</svg>
