<svg width="10" height="10" viewBox="0 0 10 10" fill="none" xmlns="http://www.w3.org/2000/svg">
<path fill-rule="evenodd" clip-rule="evenodd" d="M1.23958 0.526156C1.04369 0.331532 0.726074 0.331532 0.530177 0.526156C0.334279 0.720781 0.334279 1.03633 0.530177 1.23095L4.32761 5.00371L0.529865 8.7701C0.333795 8.96455 0.333795 9.27982 0.529865 9.47427C0.725935 9.66872 1.04383 9.66872 1.2399 9.47427L5.03701 5.7085L8.7532 9.40055C8.94909 9.59517 9.26671 9.59517 9.46261 9.40055C9.6585 9.20592 9.6585 8.89037 9.46261 8.69575L5.74705 5.00433L9.47004 1.31207C9.66611 1.11762 9.66611 0.802354 9.47004 0.607903C9.27396 0.413452 8.95607 0.413451 8.76 0.607903L5.03764 4.29954L1.23958 0.526156Z" fill="#172B38"/>
</svg>
