<svg width="150" height="633" viewBox="0 0 150 633" fill="none" xmlns="http://www.w3.org/2000/svg">
<g opacity="0.05">
<path d="M4.30137e-05 4.49896V90.5311C-0.00419163 91.4257 0.304339 92.3 0.884237 93.0367L68.8411 182.016C69.3084 182.62 69.9351 183.116 70.668 183.462C71.401 183.809 72.2187 183.995 73.0516 184.006H262.523C263.874 184.006 265.17 183.536 266.125 182.7C267.081 181.864 267.617 180.73 267.617 179.548V86.3309C267.617 85.1451 267.082 84.0073 266.128 83.1653C265.173 82.3234 263.878 81.8456 262.523 81.8358H73.0516C72.2187 81.825 71.401 81.6384 70.668 81.2921C69.9351 80.9457 69.3084 80.4497 68.8411 79.8462L9.38938 1.99343C8.7737 1.19825 7.88313 0.596589 6.8482 0.276572C5.81328 -0.0434441 4.68843 -0.0649766 3.63852 0.21518C2.58861 0.495336 1.66886 1.06242 1.01408 1.83332C0.359299 2.60421 0.00392364 3.53845 4.30137e-05 4.49896Z" fill="#9CAEBC"/>
<path d="M0.000732422 452.787V534.73C0.00620822 538.283 1.207 541.755 3.45331 544.715L68.8419 630.305C69.3069 630.913 69.9321 631.414 70.6648 631.767C71.3976 632.12 72.2163 632.313 73.0523 632.331H262.523C263.878 632.322 265.174 631.844 266.128 631.002C267.083 630.16 267.618 629.022 267.618 627.836V534.619C267.618 533.434 267.083 532.296 266.128 531.454C265.174 530.612 263.878 530.134 262.523 530.124H73.0523C72.2194 530.113 71.4017 529.927 70.6687 529.581C69.9358 529.234 69.3091 528.738 68.8419 528.135L9.39007 450.319C8.77646 449.526 7.88963 448.926 6.85879 448.605C5.82794 448.284 4.70695 448.259 3.6591 448.535C2.61124 448.81 1.69128 449.371 1.03324 450.136C0.375203 450.901 0.0134695 451.83 0.000732422 452.787Z" fill="#9CAEBC"/>
<path d="M0.000367088 303.382V389.378C-0.0121782 390.273 0.297112 391.15 0.884561 391.883L68.8415 480.9C69.3137 481.499 69.9415 481.992 70.6734 482.338C71.4053 482.683 72.2204 482.873 73.0519 482.889H262.523C263.878 482.88 265.174 482.402 266.128 481.56C267.082 480.718 267.618 479.58 267.618 478.394V385.177C267.618 383.995 267.081 382.861 266.125 382.025C265.17 381.189 263.874 380.719 262.523 380.719H73.0519C72.216 380.701 71.3972 380.508 70.6645 380.155C69.9318 379.802 69.3065 379.301 68.8415 378.693L9.3897 300.877C8.77402 300.082 7.88345 299.48 6.84853 299.16C5.8136 298.84 4.68876 298.818 3.63884 299.099C2.58894 299.379 1.66918 299.946 1.0144 300.717C0.359623 301.488 0.00424771 302.422 0.000367088 303.382Z" fill="#9CAEBC"/>
<path d="M3.40592e-05 153.904V239.936C-0.00373347 240.819 0.305149 241.682 0.884228 242.405L68.8411 331.422C69.3084 332.025 69.9351 332.521 70.668 332.867C71.401 333.214 72.2187 333.4 73.0516 333.411H262.523C263.195 333.411 263.861 333.295 264.482 333.068C265.103 332.842 265.666 332.51 266.14 332.092C266.614 331.675 266.988 331.179 267.242 330.634C267.495 330.088 267.623 329.505 267.617 328.916V235.773C267.623 235.184 267.495 234.601 267.242 234.055C266.988 233.51 266.614 233.015 266.14 232.597C265.666 232.179 265.103 231.847 264.482 231.621C263.861 231.394 263.195 231.278 262.523 231.278H73.0516C72.2187 231.267 71.401 231.08 70.668 230.734C69.9351 230.388 69.3084 229.892 68.8411 229.288L9.38937 151.435C8.77576 150.643 7.88893 150.042 6.85809 149.721C5.82724 149.4 4.70625 149.376 3.6584 149.651C2.61054 149.927 1.69058 150.488 1.03254 151.253C0.374505 152.018 0.0127712 152.947 3.40592e-05 153.904Z" fill="#9CAEBC"/>
</g>
</svg>
