<svg width="7" height="7" viewBox="0 0 7 7" fill="none" xmlns="http://www.w3.org/2000/svg">
<path fill-rule="evenodd" clip-rule="evenodd" d="M0.939656 0.228244C0.743758 0.0336192 0.426146 0.0336192 0.230248 0.228244C0.0343504 0.422869 0.0343504 0.738418 0.230248 0.933042L2.81655 3.50254L0.229936 6.06779C0.0338664 6.26225 0.0338664 6.57751 0.229936 6.77197C0.426006 6.96642 0.743898 6.96642 0.939968 6.77197L3.52595 4.20733L6.05489 6.71984C6.25079 6.91446 6.5684 6.91446 6.7643 6.71984C6.96019 6.52521 6.96019 6.20966 6.7643 6.01504L4.23599 3.50316L6.76965 0.990409C6.96572 0.795958 6.96572 0.48069 6.76965 0.286239C6.57358 0.0917878 6.25569 0.091788 6.05962 0.286239L3.52658 2.79836L0.939656 0.228244Z" fill="#172B38"/>
</svg>
