<svg width="7" height="8" viewBox="0 0 7 8" fill="none" xmlns="http://www.w3.org/2000/svg">
<g clip-path="url(#clip0)">
<path d="M5.51109 0.893283C4.80526 0.179507 3.98523 -0.000488281 3.18059 -0.000488281C2.37594 -0.000488281 1.55591 0.179011 0.849828 0.893283C0.410887 1.33744 0.0950874 1.89629 0.018372 2.58723C0.00625503 2.69605 0.000121766 2.80545 0 2.91495V3.31491C6.14245e-05 3.33888 0.00723279 3.36229 0.0206064 3.38219L0.40617 3.95892C0.408878 3.96303 0.412563 3.96641 0.416895 3.96875C0.421228 3.97109 0.426073 3.97232 0.430997 3.97233H1.54821C1.55624 3.97233 1.56395 3.96914 1.56963 3.96346C1.57531 3.95777 1.5785 3.95007 1.5785 3.94204V3.21709C1.5785 2.01025 2.2749 1.46902 3.157 1.46902H3.20343C4.08578 1.46902 4.78217 2.0105 4.78217 3.21783V7.81852C4.78214 7.84235 4.78681 7.86594 4.7959 7.88796C4.80499 7.90997 4.81834 7.92998 4.83517 7.94684C4.852 7.96369 4.87199 7.97707 4.894 7.98619C4.916 7.99531 4.93959 8.00001 4.96341 8.00001H6.17993C6.20375 8.00001 6.22734 7.99531 6.24935 7.98619C6.27135 7.97707 6.29134 7.96369 6.30818 7.94684C6.32501 7.92998 6.33835 7.90997 6.34745 7.88796C6.35654 7.86594 6.3612 7.84235 6.36117 7.81852V2.91519C6.36092 2.07083 6.01781 1.40571 5.51109 0.893283Z" fill="#F4F6F7"/>
<path d="M0 3.76968V4.34915C5.09485e-05 4.35516 0.00186348 4.36103 0.00521364 4.36603L0.40617 4.96585C0.408878 4.96996 0.412563 4.97334 0.416895 4.97568C0.421228 4.97802 0.426073 4.97925 0.430997 4.97925H1.54821C1.55624 4.97925 1.56395 4.97606 1.56963 4.97038C1.57531 4.9647 1.5785 4.957 1.5785 4.94897V4.32084C1.57843 4.31285 1.57521 4.30521 1.56954 4.29959C1.56387 4.29396 1.5562 4.2908 1.54821 4.2908H0.430997C0.426081 4.29075 0.421252 4.2895 0.416927 4.28717C0.412601 4.28483 0.408909 4.28148 0.40617 4.2774L0.0553642 3.7528C0.0517338 3.74744 0.0464827 3.74339 0.0403802 3.74123C0.0342778 3.73908 0.0276451 3.73893 0.0214543 3.74082C0.0152635 3.74271 0.00984017 3.74653 0.00597926 3.75172C0.00211835 3.75692 2.28821e-05 3.76321 0 3.76968V3.76968Z" fill="#F4F6F7"/>
<path d="M0 6.79044V7.34234C6.14245e-05 7.36631 0.00723279 7.38973 0.0206064 7.40962L0.40617 7.98784C0.408878 7.99195 0.412563 7.99533 0.416895 7.99767C0.421228 8.00001 0.426073 8.00124 0.430997 8.00125H1.54821C1.55624 8.00125 1.56395 7.99806 1.56963 7.99238C1.57531 7.9867 1.5785 7.97899 1.5785 7.97096V7.34234C1.5785 7.33431 1.57531 7.3266 1.56963 7.32092C1.56395 7.31524 1.55624 7.31205 1.54821 7.31205H0.430997C0.426073 7.31204 0.421228 7.31081 0.416895 7.30847C0.412563 7.30613 0.408878 7.30276 0.40617 7.29864L0.0553642 6.77355C0.0517338 6.7682 0.0464827 6.76414 0.0403802 6.76198C0.0342778 6.75983 0.0276451 6.75968 0.0214543 6.76157C0.0152635 6.76346 0.00984017 6.76728 0.00597926 6.77247C0.00211835 6.77767 2.28821e-05 6.78396 0 6.79044V6.79044Z" fill="#F4F6F7"/>
<path d="M0 5.78336V6.36307C9.33787e-05 6.36907 0.00190228 6.37493 0.00521364 6.37995L0.40617 6.97952C0.408878 6.98363 0.412563 6.98701 0.416895 6.98935C0.421228 6.99169 0.426073 6.99292 0.430997 6.99293H1.54821C1.5562 6.99293 1.56387 6.98977 1.56954 6.98414C1.57521 6.97852 1.57843 6.97088 1.5785 6.96289V6.33476C1.5785 6.32673 1.57531 6.31903 1.56963 6.31335C1.56395 6.30767 1.55624 6.30447 1.54821 6.30447H0.430997C0.426073 6.30447 0.421228 6.30324 0.416895 6.3009C0.412563 6.29856 0.408878 6.29518 0.40617 6.29107L0.0553642 5.76647C0.0517338 5.76111 0.0464827 5.75706 0.0403802 5.7549C0.0342778 5.75275 0.0276451 5.7526 0.0214543 5.75449C0.0152635 5.75638 0.00984017 5.7602 0.00597926 5.76539C0.00211835 5.77059 2.28821e-05 5.77688 0 5.78336V5.78336Z" fill="#F4F6F7"/>
<path d="M0 4.77652V5.35623C9.33787e-05 5.36224 0.00190228 5.3681 0.00521364 5.37312L0.40617 5.97269C0.408865 5.97683 0.412541 5.98025 0.416872 5.98263C0.421203 5.98501 0.426054 5.98629 0.430997 5.98634H1.54821C1.55219 5.98634 1.55613 5.98556 1.5598 5.98404C1.56348 5.98252 1.56682 5.98028 1.56963 5.97747C1.57244 5.97466 1.57467 5.97132 1.57619 5.96765C1.57772 5.96397 1.5785 5.96003 1.5785 5.95605V5.32793C1.5785 5.3199 1.57531 5.31219 1.56963 5.30651C1.56395 5.30083 1.55624 5.29764 1.54821 5.29764H0.430997C0.426073 5.29763 0.421228 5.2964 0.416895 5.29406C0.412563 5.29173 0.408878 5.28835 0.40617 5.28424L0.0553642 4.76039C0.0517713 4.75508 0.0465859 4.75104 0.0405546 4.74887C0.0345232 4.74669 0.0279571 4.74649 0.0218016 4.74828C0.015646 4.75007 0.0102186 4.75378 0.00630079 4.75885C0.00238297 4.76393 0.000176792 4.77011 0 4.77652V4.77652Z" fill="#F4F6F7"/>
</g>
<defs>
<clipPath id="clip0">
<rect width="6.36092" height="8" fill="white"/>
</clipPath>
</defs>
</svg>
