<svg width="12" height="12" viewBox="0 0 12 12" fill="none" xmlns="http://www.w3.org/2000/svg">
<rect width="12" height="12" rx="1" fill="#F4F6F7"/>
<path d="M8.19819 3.28141C7.53243 2.65688 6.75896 2.49939 6 2.49939C5.24104 2.49939 4.46757 2.65645 3.80158 3.28141C3.38756 3.67003 3.08969 4.15901 3.01733 4.76355C3.0059 4.85877 3.00011 4.95449 3 5.05029V5.40025C3.00006 5.42122 3.00682 5.44171 3.01944 5.45912L3.38311 5.96374C3.38566 5.96733 3.38914 5.97029 3.39323 5.97234C3.39731 5.97438 3.40188 5.97546 3.40653 5.97547H4.46031C4.46788 5.97547 4.47515 5.97267 4.48051 5.9677C4.48587 5.96273 4.48888 5.95599 4.48888 5.94897V5.31466C4.48888 4.25872 5.14573 3.78516 5.97775 3.78516H6.02154C6.8538 3.78516 7.51065 4.25893 7.51065 5.31531V9.34076C7.51062 9.3616 7.51502 9.38225 7.5236 9.40151C7.53218 9.42077 7.54476 9.43828 7.56064 9.45303C7.57652 9.46778 7.59537 9.47948 7.61613 9.48746C7.63688 9.49544 7.65913 9.49955 7.6816 9.49955H8.82905C8.85152 9.49955 8.87377 9.49544 8.89453 9.48746C8.91528 9.47948 8.93414 9.46778 8.95001 9.45303C8.96589 9.43828 8.97848 9.42077 8.98705 9.40151C8.99563 9.38225 9.00003 9.3616 9 9.34076V5.05051C8.99977 4.31172 8.67614 3.72977 8.19819 3.28141Z" fill="#172B38"/>
<path d="M3 5.7982V6.30521C3.00005 6.31047 3.00176 6.31561 3.00492 6.31998L3.38311 6.8448C3.38566 6.8484 3.38914 6.85135 3.39323 6.8534C3.39731 6.85545 3.40188 6.85652 3.40653 6.85653H4.46031C4.46788 6.85653 4.47515 6.85374 4.48051 6.84877C4.48587 6.8438 4.48888 6.83706 4.48888 6.83003V6.28044C4.48882 6.27345 4.48578 6.26677 4.48043 6.26184C4.47508 6.25692 4.46784 6.25416 4.46031 6.25416H3.40653C3.40189 6.25411 3.39733 6.25302 3.39325 6.25098C3.38917 6.24893 3.38569 6.246 3.38311 6.24243L3.05222 5.78343C3.0488 5.77874 3.04384 5.77519 3.03809 5.7733C3.03233 5.77142 3.02608 5.77129 3.02024 5.77294C3.0144 5.77459 3.00928 5.77794 3.00564 5.78248C3.002 5.78703 3.00002 5.79253 3 5.7982Z" fill="#172B38"/>
<path d="M3 8.4412V8.9241C3.00006 8.94507 3.00682 8.96556 3.01944 8.98297L3.38311 9.48889C3.38566 9.49249 3.38914 9.49544 3.39323 9.49749C3.39731 9.49954 3.40188 9.50061 3.40653 9.50062H4.46031C4.46788 9.50062 4.47515 9.49783 4.48051 9.49286C4.48587 9.48789 4.48888 9.48115 4.48888 9.47412V8.9241C4.48888 8.91707 4.48587 8.91033 4.48051 8.90536C4.47515 8.90039 4.46788 8.8976 4.46031 8.8976H3.40653C3.40188 8.89759 3.39731 8.89651 3.39323 8.89447C3.38914 8.89242 3.38566 8.88947 3.38311 8.88587L3.05222 8.42643C3.0488 8.42174 3.04384 8.4182 3.03809 8.41631C3.03233 8.41442 3.02608 8.4143 3.02024 8.41595C3.0144 8.4176 3.00928 8.42094 3.00564 8.42549C3.002 8.43003 3.00002 8.43554 3 8.4412Z" fill="#172B38"/>
<path d="M3 7.56016V8.06739C3.00009 8.07264 3.00179 8.07777 3.00492 8.08216L3.38311 8.60676C3.38566 8.61036 3.38914 8.61331 3.39323 8.61536C3.39731 8.61741 3.40188 8.61848 3.40653 8.61849H4.46031C4.46784 8.61849 4.47508 8.61573 4.48043 8.61081C4.48578 8.60588 4.48882 8.5992 4.48888 8.59221V8.04262C4.48888 8.03559 4.48587 8.02885 4.48051 8.02388C4.47515 8.01891 4.46788 8.01612 4.46031 8.01612H3.40653C3.40188 8.01611 3.39731 8.01504 3.39323 8.01299C3.38914 8.01094 3.38566 8.00799 3.38311 8.00439L3.05222 7.54539C3.0488 7.5407 3.04384 7.53715 3.03809 7.53527C3.03233 7.53338 3.02608 7.53325 3.02024 7.5349C3.0144 7.53656 3.00928 7.5399 3.00564 7.54444C3.002 7.54899 3.00002 7.5545 3 7.56016Z" fill="#172B38"/>
<path d="M3 6.67909V7.18632C3.00009 7.19158 3.00179 7.1967 3.00492 7.20109L3.38311 7.72569C3.38565 7.72932 3.38912 7.73231 3.3932 7.73439C3.39729 7.73647 3.40186 7.73759 3.40653 7.73764H4.46031C4.46406 7.73764 4.46777 7.73696 4.47124 7.73562C4.47471 7.73429 4.47786 7.73234 4.48051 7.72988C4.48316 7.72742 4.48527 7.7245 4.4867 7.72128C4.48814 7.71807 4.48888 7.71462 4.48888 7.71114V7.16155C4.48888 7.15453 4.48587 7.14778 4.48051 7.14281C4.47515 7.13784 4.46788 7.13505 4.46031 7.13505H3.40653C3.40188 7.13504 3.39731 7.13397 3.39323 7.13192C3.38914 7.12987 3.38566 7.12692 3.38311 7.12332L3.05222 6.66497C3.04883 6.66033 3.04394 6.6568 3.03825 6.65489C3.03256 6.65299 3.02637 6.65281 3.02056 6.65438C3.01476 6.65595 3.00964 6.65919 3.00594 6.66363C3.00225 6.66807 3.00017 6.67348 3 6.67909Z" fill="#172B38"/>
</svg>
