<svg width="12" height="12" viewBox="0 0 12 12" fill="none" xmlns="http://www.w3.org/2000/svg">
<rect width="12" height="12" rx="1" fill="#0EA76D"/>
<path d="M8.19781 3.28188C7.53218 2.65746 6.75884 2.5 6.00002 2.5C5.24119 2.5 4.46786 2.65703 3.80198 3.28188C3.38804 3.67043 3.09022 4.15932 3.01788 4.76376C3.00645 4.85896 3.00066 4.95467 3.00055 5.05045V5.40034C3.00061 5.42131 3.00737 5.4418 3.01998 5.4592L3.38359 5.96373C3.38614 5.96733 3.38962 5.97028 3.3937 5.97233C3.39779 5.97438 3.40236 5.97545 3.407 5.97546H4.4606C4.46817 5.97546 4.47544 5.97267 4.4808 5.9677C4.48615 5.96273 4.48916 5.95599 4.48916 5.94896V5.31477C4.48916 4.25901 5.1459 3.78554 5.97777 3.78554H6.02156C6.85366 3.78554 7.5104 4.25923 7.5104 5.31542V9.34015C7.51037 9.36099 7.51477 9.38163 7.52334 9.40089C7.53192 9.42015 7.54451 9.43766 7.56038 9.4524C7.57625 9.46715 7.59511 9.47885 7.61586 9.48683C7.63661 9.49481 7.65885 9.49892 7.68132 9.49892H8.82857C8.85103 9.49892 8.87327 9.49481 8.89403 9.48683C8.91478 9.47885 8.93363 9.46715 8.94951 9.4524C8.96538 9.43766 8.97796 9.42015 8.98654 9.40089C8.99511 9.38163 8.99951 9.36099 8.99948 9.34015V5.05067C8.99925 4.31201 8.67568 3.73016 8.19781 3.28188Z" fill="#F4F6F7"/>
<path d="M3.00055 5.79838V6.3053C3.0006 6.31056 3.00231 6.31569 3.00547 6.32006L3.38359 6.84479C3.38614 6.84839 3.38962 6.85134 3.3937 6.85339C3.39779 6.85544 3.40236 6.85651 3.407 6.85652H4.4606C4.46817 6.85652 4.47544 6.85373 4.4808 6.84876C4.48615 6.84379 4.48916 6.83705 4.48916 6.83002V6.28054C4.4891 6.27355 4.48606 6.26686 4.48071 6.26194C4.47536 6.25702 4.46813 6.25426 4.4606 6.25426H3.407C3.40237 6.25421 3.39781 6.25312 3.39373 6.25108C3.38965 6.24903 3.38617 6.2461 3.38359 6.24253L3.05276 5.78361C3.04934 5.77892 3.04439 5.77537 3.03863 5.77349C3.03288 5.7716 3.02662 5.77147 3.02078 5.77312C3.01494 5.77478 3.00983 5.77812 3.00619 5.78266C3.00255 5.78721 3.00057 5.79271 3.00055 5.79838Z" fill="#F4F6F7"/>
<path d="M3.00055 8.44095V8.92377C3.00061 8.94474 3.00737 8.96522 3.01998 8.98262L3.38359 9.48846C3.38614 9.49205 3.38962 9.49501 3.3937 9.49705C3.39779 9.4991 3.40236 9.50018 3.407 9.50018H4.4606C4.46817 9.50018 4.47544 9.49739 4.4808 9.49242C4.48615 9.48745 4.48916 9.48071 4.48916 9.47369V8.92377C4.48916 8.91674 4.48615 8.91 4.4808 8.90503C4.47544 8.90006 4.46817 8.89727 4.4606 8.89727H3.407C3.40236 8.89726 3.39779 8.89618 3.3937 8.89414C3.38962 8.89209 3.38614 8.88914 3.38359 8.88554L3.05276 8.42619C3.04934 8.4215 3.04439 8.41795 3.03863 8.41606C3.03288 8.41418 3.02662 8.41405 3.02078 8.4157C3.01494 8.41735 3.00983 8.4207 3.00619 8.42524C3.00255 8.42979 3.00057 8.43529 3.00055 8.44095Z" fill="#F4F6F7"/>
<path d="M3.00055 7.56009V8.06723C3.00064 8.07249 3.00234 8.07761 3.00547 8.082L3.38359 8.60651C3.38614 8.61011 3.38962 8.61306 3.3937 8.61511C3.39779 8.61716 3.40236 8.61823 3.407 8.61824H4.4606C4.46813 8.61824 4.47536 8.61548 4.48071 8.61055C4.48606 8.60563 4.4891 8.59895 4.48916 8.59196V8.04247C4.48916 8.03544 4.48615 8.0287 4.4808 8.02373C4.47544 8.01877 4.46817 8.01597 4.4606 8.01597H3.407C3.40236 8.01597 3.39779 8.01489 3.3937 8.01284C3.38962 8.0108 3.38614 8.00784 3.38359 8.00425L3.05276 7.54533C3.04934 7.54064 3.04439 7.53709 3.03863 7.53521C3.03288 7.53332 3.02662 7.53319 3.02078 7.53484C3.01494 7.53649 3.00983 7.53984 3.00619 7.54438C3.00255 7.54893 3.00057 7.55443 3.00055 7.56009Z" fill="#F4F6F7"/>
<path d="M3.00055 6.67909V7.18622C3.00064 7.19148 3.00234 7.1966 3.00547 7.20099L3.38359 7.7255C3.38613 7.72913 3.3896 7.73211 3.39368 7.7342C3.39777 7.73628 3.40234 7.7374 3.407 7.73745H4.4606C4.46435 7.73745 4.46806 7.73676 4.47153 7.73543C4.47499 7.7341 4.47814 7.73215 4.4808 7.72969C4.48345 7.72723 4.48555 7.72431 4.48699 7.72109C4.48842 7.71788 4.48916 7.71443 4.48916 7.71095V7.16146C4.48916 7.15444 4.48615 7.1477 4.4808 7.14273C4.47544 7.13776 4.46817 7.13497 4.4606 7.13497H3.407C3.40236 7.13496 3.39779 7.13388 3.3937 7.13184C3.38962 7.12979 3.38614 7.12684 3.38359 7.12324L3.05276 6.66497C3.04937 6.66032 3.04448 6.6568 3.03879 6.65489C3.03311 6.65299 3.02691 6.65281 3.02111 6.65438C3.0153 6.65595 3.01019 6.65919 3.00649 6.66363C3.0028 6.66807 3.00072 6.67348 3.00055 6.67909Z" fill="#F4F6F7"/>
</svg>
