<svg width="353" height="525" viewBox="0 0 353 525" fill="none" xmlns="http://www.w3.org/2000/svg">
<path d="M-19.7236 0.764378V15.4458C-19.7243 15.5984 -19.6782 15.7476 -19.5915 15.8733L-9.43747 31.0577C-9.36766 31.1607 -9.27402 31.2453 -9.1645 31.3045C-9.05498 31.3636 -8.9328 31.3954 -8.80835 31.3972H19.5022C19.7041 31.3972 19.8977 31.3171 20.0405 31.1744C20.1832 31.0317 20.2634 30.8382 20.2634 30.6364V14.729C20.2634 14.5266 20.1834 14.3325 20.0409 14.1888C19.8983 14.0451 19.7047 13.9636 19.5022 13.9619H-8.80835C-8.9328 13.9601 -9.05498 13.9282 -9.1645 13.8691C-9.27402 13.81 -9.36766 13.7254 -9.43747 13.6224L-18.3207 0.336811C-18.4127 0.201113 -18.5457 0.0984397 -18.7004 0.0438289C-18.855 -0.0107819 -19.0231 -0.0144564 -19.18 0.0333522C-19.3368 0.0811609 -19.4743 0.177934 -19.5721 0.309487C-19.6699 0.44104 -19.723 0.600467 -19.7236 0.764378V0.764378Z" fill="#F4F6F7"/>
<path d="M-19.7236 33.6426V48.3239C-19.7243 48.4766 -19.6782 48.6258 -19.5915 48.7515L-9.43747 63.9359C-9.36766 64.0389 -9.27402 64.1235 -9.1645 64.1826C-9.05498 64.2417 -8.9328 64.2736 -8.80835 64.2754H19.5022C19.7041 64.2754 19.8977 64.1953 20.0405 64.0526C20.1832 63.9099 20.2634 63.7164 20.2634 63.5146V47.6072C20.2634 47.4048 20.1834 47.2106 20.0409 47.067C19.8983 46.9233 19.7047 46.8417 19.5022 46.8401H-8.80835C-8.9328 46.8382 -9.05498 46.8064 -9.1645 46.7473C-9.27402 46.6882 -9.36766 46.6035 -9.43747 46.5005L-18.3207 33.215C-18.4127 33.0793 -18.5457 32.9766 -18.7004 32.922C-18.855 32.8674 -19.0231 32.8637 -19.18 32.9115C-19.3368 32.9593 -19.4743 33.0561 -19.5721 33.1877C-19.6699 33.3192 -19.723 33.4786 -19.7236 33.6426V33.6426Z" fill="#F4F6F7"/>
<path d="M-19.7236 66.5207V81.2021C-19.7243 81.3548 -19.6782 81.504 -19.5915 81.6297L-9.43747 96.8141C-9.36766 96.917 -9.27402 97.0017 -9.1645 97.0608C-9.05498 97.1199 -8.9328 97.1517 -8.80835 97.1536H19.5022C19.7041 97.1536 19.8977 97.0734 20.0405 96.9308C20.1832 96.7881 20.2634 96.5946 20.2634 96.3928V80.4853C20.2634 80.283 20.1834 80.0888 20.0409 79.9451C19.8983 79.8015 19.7047 79.7199 19.5022 79.7183H-8.80835C-8.9328 79.7164 -9.05498 79.6846 -9.1645 79.6255C-9.27402 79.5664 -9.36766 79.4817 -9.43747 79.3787L-18.3207 66.0932C-18.4127 65.9575 -18.5457 65.8548 -18.7004 65.8002C-18.855 65.7456 -19.0231 65.7419 -19.18 65.7897C-19.3368 65.8375 -19.4743 65.9343 -19.5721 66.0658C-19.6699 66.1974 -19.723 66.3568 -19.7236 66.5207V66.5207Z" fill="#F4F6F7"/>
<path d="M-19.7236 99.3991V114.081C-19.7243 114.233 -19.6782 114.382 -19.5915 114.508L-9.43747 129.692C-9.36766 129.795 -9.27402 129.88 -9.1645 129.939C-9.05498 129.998 -8.9328 130.03 -8.80835 130.032H19.5022C19.7041 130.032 19.8977 129.952 20.0405 129.809C20.1832 129.667 20.2634 129.473 20.2634 129.271V113.364C20.2634 113.161 20.1834 112.967 20.0409 112.824C19.8983 112.68 19.7047 112.598 19.5022 112.597H-8.80835C-8.9328 112.595 -9.05498 112.563 -9.1645 112.504C-9.27402 112.445 -9.36766 112.36 -9.43747 112.257L-18.3207 98.9716C-18.4127 98.8359 -18.5457 98.7332 -18.7004 98.6786C-18.855 98.624 -19.0231 98.6203 -19.18 98.6681C-19.3368 98.7159 -19.4743 98.8127 -19.5721 98.9443C-19.6699 99.0758 -19.723 99.2352 -19.7236 99.3991V99.3991Z" fill="#F4F6F7"/>
<path d="M63.2129 0.764378V15.4458C63.2123 15.5984 63.2584 15.7476 63.345 15.8733L73.4991 31.0577C73.5689 31.1607 73.6625 31.2453 73.772 31.3045C73.8815 31.3636 74.0037 31.3954 74.1282 31.3972H102.439C102.641 31.3972 102.834 31.3171 102.977 31.1744C103.12 31.0317 103.2 30.8382 103.2 30.6364V14.729C103.2 14.5266 103.12 14.3325 102.977 14.1888C102.835 14.0451 102.641 13.9636 102.439 13.9619H74.1282C74.0037 13.9601 73.8815 13.9282 73.772 13.8691C73.6625 13.81 73.5689 13.7254 73.4991 13.6224L64.6158 0.336811C64.5238 0.201113 64.3908 0.0984397 64.2361 0.0438289C64.0815 -0.0107819 63.9134 -0.0144564 63.7566 0.0333522C63.5997 0.0811609 63.4622 0.177934 63.3644 0.309487C63.2666 0.44104 63.2135 0.600467 63.2129 0.764378V0.764378Z" fill="#F4F6F7"/>
<path d="M104.681 0.764378V15.4458C104.68 15.5984 104.726 15.7476 104.813 15.8733L114.967 31.0577C115.037 31.1607 115.13 31.2453 115.24 31.3045C115.349 31.3636 115.471 31.3954 115.596 31.3972H143.906C144.108 31.3972 144.302 31.3171 144.445 31.1744C144.588 31.0317 144.668 30.8382 144.668 30.6364V14.729C144.668 14.5266 144.588 14.3325 144.445 14.1888C144.303 14.0451 144.109 13.9636 143.906 13.9619H115.596C115.471 13.9601 115.349 13.9282 115.24 13.8691C115.13 13.81 115.037 13.7254 114.967 13.6224L106.084 0.336811C105.992 0.201113 105.859 0.0984397 105.704 0.0438289C105.549 -0.0107819 105.381 -0.0144564 105.224 0.0333522C105.067 0.0811609 104.93 0.177934 104.832 0.309487C104.734 0.44104 104.681 0.600467 104.681 0.764378V0.764378Z" fill="#F4F6F7"/>
<path d="M146.149 0.764378V15.4458C146.149 15.5984 146.195 15.7476 146.282 15.8733L156.436 31.0577C156.505 31.1607 156.599 31.2453 156.709 31.3045C156.818 31.3636 156.94 31.3954 157.065 31.3972H185.375C185.577 31.3972 185.771 31.3171 185.914 31.1744C186.056 31.0317 186.136 30.8382 186.136 30.6364V14.729C186.136 14.5266 186.056 14.3325 185.914 14.1888C185.771 14.0451 185.578 13.9636 185.375 13.9619H157.065C156.94 13.9601 156.818 13.9282 156.709 13.8691C156.599 13.81 156.505 13.7254 156.436 13.6224L147.552 0.336811C147.46 0.201113 147.327 0.0984397 147.173 0.0438289C147.018 -0.0107819 146.85 -0.0144564 146.693 0.0333522C146.536 0.0811609 146.399 0.177934 146.301 0.309487C146.203 0.44104 146.15 0.600467 146.149 0.764378V0.764378Z" fill="#F4F6F7"/>
<path d="M21.7441 33.6426V48.3239C21.7435 48.4766 21.7896 48.6258 21.8763 48.7515L32.0303 63.9359C32.1001 64.0389 32.1938 64.1235 32.3033 64.1826C32.4128 64.2417 32.535 64.2736 32.6594 64.2754H60.97C61.1719 64.2754 61.3655 64.1953 61.5082 64.0526C61.651 63.9099 61.7312 63.7164 61.7312 63.5146V47.6072C61.7312 47.4048 61.6512 47.2106 61.5086 47.067C61.366 46.9233 61.1724 46.8417 60.97 46.8401H32.6594C32.535 46.8382 32.4128 46.8064 32.3033 46.7473C32.1938 46.6882 32.1001 46.6035 32.0303 46.5005L23.1471 33.215C23.0551 33.0793 22.922 32.9766 22.7674 32.922C22.6128 32.8674 22.4447 32.8637 22.2878 32.9115C22.1309 32.9593 21.9935 33.0561 21.8957 33.1877C21.7978 33.3192 21.7447 33.4786 21.7441 33.6426V33.6426Z" fill="#F4F6F7"/>
<path d="M63.2129 33.6426V48.3239C63.2123 48.4766 63.2584 48.6258 63.345 48.7515L73.4991 63.9359C73.5689 64.0389 73.6625 64.1235 73.772 64.1826C73.8815 64.2417 74.0037 64.2736 74.1282 64.2754H102.439C102.641 64.2754 102.834 64.1953 102.977 64.0526C103.12 63.9099 103.2 63.7164 103.2 63.5146V47.6072C103.2 47.4048 103.12 47.2106 102.977 47.067C102.835 46.9233 102.641 46.8417 102.439 46.8401H74.1282C74.0037 46.8382 73.8815 46.8064 73.772 46.7473C73.6625 46.6882 73.5689 46.6035 73.4991 46.5005L64.6158 33.215C64.5238 33.0793 64.3908 32.9766 64.2361 32.922C64.0815 32.8674 63.9134 32.8637 63.7566 32.9115C63.5997 32.9593 63.4622 33.0561 63.3644 33.1877C63.2666 33.3192 63.2135 33.4786 63.2129 33.6426V33.6426Z" fill="#F4F6F7"/>
<path d="M104.681 33.6426V48.3239C104.68 48.4766 104.726 48.6258 104.813 48.7515L114.967 63.9359C115.037 64.0389 115.13 64.1235 115.24 64.1826C115.349 64.2417 115.471 64.2736 115.596 64.2754H143.906C144.108 64.2754 144.302 64.1953 144.445 64.0526C144.588 63.9099 144.668 63.7164 144.668 63.5146V47.6072C144.668 47.4048 144.588 47.2106 144.445 47.067C144.303 46.9233 144.109 46.8417 143.906 46.8401H115.596C115.471 46.8382 115.349 46.8064 115.24 46.7473C115.13 46.6882 115.037 46.6035 114.967 46.5005L106.084 33.215C105.992 33.0793 105.859 32.9766 105.704 32.922C105.549 32.8674 105.381 32.8637 105.224 32.9115C105.067 32.9593 104.93 33.0561 104.832 33.1877C104.734 33.3192 104.681 33.4786 104.681 33.6426V33.6426Z" fill="#F4F6F7"/>
<path d="M146.149 33.6426V48.3239C146.149 48.4766 146.195 48.6258 146.282 48.7515L156.436 63.9359C156.505 64.0389 156.599 64.1235 156.709 64.1826C156.818 64.2417 156.94 64.2736 157.065 64.2754H185.375C185.577 64.2754 185.771 64.1953 185.914 64.0526C186.056 63.9099 186.136 63.7164 186.136 63.5146V47.6072C186.136 47.4048 186.056 47.2106 185.914 47.067C185.771 46.9233 185.578 46.8417 185.375 46.8401H157.065C156.94 46.8382 156.818 46.8064 156.709 46.7473C156.599 46.6882 156.505 46.6035 156.436 46.5005L147.552 33.215C147.46 33.0793 147.327 32.9766 147.173 32.922C147.018 32.8674 146.85 32.8637 146.693 32.9115C146.536 32.9593 146.399 33.0561 146.301 33.1877C146.203 33.3192 146.15 33.4786 146.149 33.6426V33.6426Z" fill="#F4F6F7"/>
<path d="M21.7441 66.5207V81.2021C21.7435 81.3548 21.7896 81.504 21.8763 81.6297L32.0303 96.8141C32.1001 96.917 32.1938 97.0017 32.3033 97.0608C32.4128 97.1199 32.535 97.1517 32.6594 97.1536H60.97C61.1719 97.1536 61.3655 97.0734 61.5082 96.9308C61.651 96.7881 61.7312 96.5946 61.7312 96.3928V80.4853C61.7312 80.283 61.6512 80.0888 61.5086 79.9451C61.366 79.8015 61.1724 79.7199 60.97 79.7183H32.6594C32.535 79.7164 32.4128 79.6846 32.3033 79.6255C32.1938 79.5664 32.1001 79.4817 32.0303 79.3787L23.1471 66.0932C23.0551 65.9575 22.922 65.8548 22.7674 65.8002C22.6128 65.7456 22.4447 65.7419 22.2878 65.7897C22.1309 65.8375 21.9935 65.9343 21.8957 66.0658C21.7978 66.1974 21.7447 66.3568 21.7441 66.5207V66.5207Z" fill="#F4F6F7"/>
<path d="M104.681 66.5207V81.2021C104.68 81.3548 104.726 81.504 104.813 81.6297L114.967 96.8141C115.037 96.917 115.13 97.0017 115.24 97.0608C115.349 97.1199 115.471 97.1517 115.596 97.1536H143.906C144.108 97.1536 144.302 97.0734 144.445 96.9308C144.588 96.7881 144.668 96.5946 144.668 96.3928V80.4853C144.668 80.283 144.588 80.0888 144.445 79.9451C144.303 79.8015 144.109 79.7199 143.906 79.7183H115.596C115.471 79.7164 115.349 79.6846 115.24 79.6255C115.13 79.5664 115.037 79.4817 114.967 79.3787L106.084 66.0932C105.992 65.9575 105.859 65.8548 105.704 65.8002C105.549 65.7456 105.381 65.7419 105.224 65.7897C105.067 65.8375 104.93 65.9343 104.832 66.0658C104.734 66.1974 104.681 66.3568 104.681 66.5207V66.5207Z" fill="#F4F6F7"/>
<path d="M146.149 66.5207V81.2021C146.149 81.3548 146.195 81.504 146.282 81.6297L156.436 96.8141C156.505 96.917 156.599 97.0017 156.709 97.0608C156.818 97.1199 156.94 97.1517 157.065 97.1536H185.375C185.577 97.1536 185.771 97.0734 185.914 96.9308C186.056 96.7881 186.136 96.5946 186.136 96.3928V80.4853C186.136 80.283 186.056 80.0888 185.914 79.9451C185.771 79.8015 185.578 79.7199 185.375 79.7183H157.065C156.94 79.7164 156.818 79.6846 156.709 79.6255C156.599 79.5664 156.505 79.4817 156.436 79.3787L147.552 66.0932C147.46 65.9575 147.327 65.8548 147.173 65.8002C147.018 65.7456 146.85 65.7419 146.693 65.7897C146.536 65.8375 146.399 65.9343 146.301 66.0658C146.203 66.1974 146.15 66.3568 146.149 66.5207V66.5207Z" fill="#F4F6F7"/>
<path d="M21.7441 99.3991V114.081C21.7435 114.233 21.7896 114.382 21.8763 114.508L32.0303 129.692C32.1001 129.795 32.1938 129.88 32.3033 129.939C32.4128 129.998 32.535 130.03 32.6594 130.032H60.97C61.1719 130.032 61.3655 129.952 61.5082 129.809C61.651 129.667 61.7312 129.473 61.7312 129.271V113.364C61.7312 113.161 61.6512 112.967 61.5086 112.824C61.366 112.68 61.1724 112.598 60.97 112.597H32.6594C32.535 112.595 32.4128 112.563 32.3033 112.504C32.1938 112.445 32.1001 112.36 32.0303 112.257L23.1471 98.9716C23.0551 98.8359 22.922 98.7332 22.7674 98.6786C22.6128 98.624 22.4447 98.6203 22.2878 98.6681C22.1309 98.7159 21.9935 98.8127 21.8957 98.9443C21.7978 99.0758 21.7447 99.2352 21.7441 99.3991V99.3991Z" fill="#F4F6F7"/>
<path d="M63.2129 99.3991V114.081C63.2123 114.233 63.2584 114.382 63.345 114.508L73.4991 129.692C73.5689 129.795 73.6625 129.88 73.772 129.939C73.8815 129.998 74.0037 130.03 74.1282 130.032H102.439C102.641 130.032 102.834 129.952 102.977 129.809C103.12 129.667 103.2 129.473 103.2 129.271V113.364C103.2 113.161 103.12 112.967 102.977 112.824C102.835 112.68 102.641 112.598 102.439 112.597H74.1282C74.0037 112.595 73.8815 112.563 73.772 112.504C73.6625 112.445 73.5689 112.36 73.4991 112.257L64.6158 98.9716C64.5238 98.8359 64.3908 98.7332 64.2361 98.6786C64.0815 98.624 63.9134 98.6203 63.7566 98.6681C63.5997 98.7159 63.4622 98.8127 63.3644 98.9443C63.2666 99.0758 63.2135 99.2352 63.2129 99.3991V99.3991Z" fill="#F4F6F7"/>
<path d="M104.681 99.3991V114.081C104.68 114.233 104.726 114.382 104.813 114.508L114.967 129.692C115.037 129.795 115.13 129.88 115.24 129.939C115.349 129.998 115.471 130.03 115.596 130.032H143.906C144.108 130.032 144.302 129.952 144.445 129.809C144.588 129.667 144.668 129.473 144.668 129.271V113.364C144.668 113.161 144.588 112.967 144.445 112.824C144.303 112.68 144.109 112.598 143.906 112.597H115.596C115.471 112.595 115.349 112.563 115.24 112.504C115.13 112.445 115.037 112.36 114.967 112.257L106.084 98.9716C105.992 98.8359 105.859 98.7332 105.704 98.6786C105.549 98.624 105.381 98.6203 105.224 98.6681C105.067 98.7159 104.93 98.8127 104.832 98.9443C104.734 99.0758 104.681 99.2352 104.681 99.3991V99.3991Z" fill="#F4F6F7"/>
<path d="M146.149 99.3991V114.081C146.149 114.233 146.195 114.382 146.282 114.508L156.436 129.692C156.505 129.795 156.599 129.88 156.709 129.939C156.818 129.998 156.94 130.03 157.065 130.032H185.375C185.577 130.032 185.771 129.952 185.914 129.809C186.056 129.667 186.136 129.473 186.136 129.271V113.364C186.136 113.161 186.056 112.967 185.914 112.824C185.771 112.68 185.578 112.598 185.375 112.597H157.065C156.94 112.595 156.818 112.563 156.709 112.504C156.599 112.445 156.505 112.36 156.436 112.257L147.552 98.9716C147.46 98.8359 147.327 98.7332 147.173 98.6786C147.018 98.624 146.85 98.6203 146.693 98.6681C146.536 98.7159 146.399 98.8127 146.301 98.9443C146.203 99.0758 146.15 99.2352 146.149 99.3991V99.3991Z" fill="#F4F6F7"/>
<path d="M187.617 33.6426V48.3239C187.617 48.4766 187.663 48.6258 187.749 48.7515L197.903 63.9359C197.973 64.0389 198.067 64.1235 198.176 64.1826C198.286 64.2417 198.408 64.2736 198.532 64.2754H226.843C227.045 64.2754 227.239 64.1953 227.381 64.0526C227.524 63.9099 227.604 63.7164 227.604 63.5146V47.6072C227.604 47.4048 227.524 47.2106 227.382 47.067C227.239 46.9233 227.045 46.8417 226.843 46.8401H198.532C198.408 46.8382 198.286 46.8064 198.176 46.7473C198.067 46.6882 197.973 46.6035 197.903 46.5005L189.02 33.215C188.928 33.0793 188.795 32.9766 188.64 32.922C188.486 32.8674 188.318 32.8637 188.161 32.9115C188.004 32.9593 187.867 33.0561 187.769 33.1877C187.671 33.3192 187.618 33.4786 187.617 33.6426V33.6426Z" fill="#F4F6F7"/>
<path d="M229.085 33.6426V48.3239C229.084 48.4766 229.13 48.6258 229.217 48.7515L239.371 63.9359C239.441 64.0389 239.535 64.1235 239.644 64.1826C239.754 64.2417 239.876 64.2736 240 64.2754H268.311C268.513 64.2754 268.706 64.1953 268.849 64.0526C268.992 63.9099 269.072 63.7164 269.072 63.5146V47.6072C269.072 47.4048 268.992 47.2106 268.849 47.067C268.707 46.9233 268.513 46.8417 268.311 46.8401H240C239.876 46.8382 239.754 46.8064 239.644 46.7473C239.535 46.6882 239.441 46.6035 239.371 46.5005L230.488 33.215C230.396 33.0793 230.263 32.9766 230.108 32.922C229.954 32.8674 229.786 32.8637 229.629 32.9115C229.472 32.9593 229.334 33.0561 229.236 33.1877C229.139 33.3192 229.086 33.4786 229.085 33.6426V33.6426Z" fill="#F4F6F7"/>
<path d="M187.617 66.5207V81.2021C187.617 81.3548 187.663 81.504 187.749 81.6297L197.903 96.8141C197.973 96.917 198.067 97.0017 198.176 97.0608C198.286 97.1199 198.408 97.1517 198.532 97.1536H226.843C227.045 97.1536 227.239 97.0734 227.381 96.9308C227.524 96.7881 227.604 96.5946 227.604 96.3928V80.4853C227.604 80.283 227.524 80.0888 227.382 79.9451C227.239 79.8015 227.045 79.7199 226.843 79.7183H198.532C198.408 79.7164 198.286 79.6846 198.176 79.6255C198.067 79.5664 197.973 79.4817 197.903 79.3787L189.02 66.0932C188.928 65.9575 188.795 65.8548 188.64 65.8002C188.486 65.7456 188.318 65.7419 188.161 65.7897C188.004 65.8375 187.867 65.9343 187.769 66.0658C187.671 66.1974 187.618 66.3568 187.617 66.5207V66.5207Z" fill="#F4F6F7"/>
<path d="M229.085 66.5207V81.2021C229.084 81.3548 229.13 81.504 229.217 81.6297L239.371 96.8141C239.441 96.917 239.535 97.0017 239.644 97.0608C239.754 97.1199 239.876 97.1517 240 97.1536H268.311C268.513 97.1536 268.706 97.0734 268.849 96.9308C268.992 96.7881 269.072 96.5946 269.072 96.3928V80.4853C269.072 80.283 268.992 80.0888 268.849 79.9451C268.707 79.8015 268.513 79.7199 268.311 79.7183H240C239.876 79.7164 239.754 79.6846 239.644 79.6255C239.535 79.5664 239.441 79.4817 239.371 79.3787L230.488 66.0932C230.396 65.9575 230.263 65.8548 230.108 65.8002C229.954 65.7456 229.786 65.7419 229.629 65.7897C229.472 65.8375 229.334 65.9343 229.236 66.0658C229.139 66.1974 229.086 66.3568 229.085 66.5207V66.5207Z" fill="#F4F6F7"/>
<path d="M312.021 66.5207V81.2021C312.02 81.3548 312.066 81.504 312.153 81.6297L322.307 96.8141C322.376 96.917 322.47 97.0017 322.58 97.0608C322.689 97.1199 322.811 97.1517 322.936 97.1536H351.246C351.448 97.1536 351.642 97.0734 351.785 96.9308C351.927 96.7881 352.008 96.5946 352.008 96.3928V80.4853C352.008 80.283 351.928 80.0888 351.785 79.9451C351.642 79.8015 351.449 79.7199 351.246 79.7183H322.936C322.811 79.7164 322.689 79.6846 322.58 79.6255C322.47 79.5664 322.376 79.4817 322.307 79.3787L313.423 66.0932C313.331 65.9575 313.198 65.8548 313.044 65.8002C312.889 65.7456 312.721 65.7419 312.564 65.7897C312.407 65.8375 312.27 65.9343 312.172 66.0658C312.074 66.1974 312.021 66.3568 312.021 66.5207V66.5207Z" fill="#F4F6F7"/>
<path d="M187.617 99.3991V114.081C187.617 114.233 187.663 114.382 187.749 114.508L197.903 129.692C197.973 129.795 198.067 129.88 198.176 129.939C198.286 129.998 198.408 130.03 198.532 130.032H226.843C227.045 130.032 227.239 129.952 227.381 129.809C227.524 129.667 227.604 129.473 227.604 129.271V113.364C227.604 113.161 227.524 112.967 227.382 112.824C227.239 112.68 227.045 112.598 226.843 112.597H198.532C198.408 112.595 198.286 112.563 198.176 112.504C198.067 112.445 197.973 112.36 197.903 112.257L189.02 98.9716C188.928 98.8359 188.795 98.7332 188.64 98.6786C188.486 98.624 188.318 98.6203 188.161 98.6681C188.004 98.7159 187.867 98.8127 187.769 98.9443C187.671 99.0758 187.618 99.2352 187.617 99.3991V99.3991Z" fill="#F4F6F7"/>
<path d="M229.085 99.3991V114.081C229.084 114.233 229.13 114.382 229.217 114.508L239.371 129.692C239.441 129.795 239.535 129.88 239.644 129.939C239.754 129.998 239.876 130.03 240 130.032H268.311C268.513 130.032 268.706 129.952 268.849 129.809C268.992 129.667 269.072 129.473 269.072 129.271V113.364C269.072 113.161 268.992 112.967 268.849 112.824C268.707 112.68 268.513 112.598 268.311 112.597H240C239.876 112.595 239.754 112.563 239.644 112.504C239.535 112.445 239.441 112.36 239.371 112.257L230.488 98.9716C230.396 98.8359 230.263 98.7332 230.108 98.6786C229.954 98.624 229.786 98.6203 229.629 98.6681C229.472 98.7159 229.334 98.8127 229.236 98.9443C229.139 99.0758 229.086 99.2352 229.085 99.3991V99.3991Z" fill="#F4F6F7"/>
<path d="M270.553 99.3991V114.081C270.552 114.233 270.598 114.382 270.685 114.508L280.839 129.692C280.909 129.795 281.002 129.88 281.112 129.939C281.221 129.998 281.344 130.03 281.468 130.032H309.779C309.98 130.032 310.174 129.952 310.317 129.809C310.46 129.667 310.54 129.473 310.54 129.271V113.364C310.54 113.161 310.46 112.967 310.317 112.824C310.175 112.68 309.981 112.598 309.779 112.597H281.468C281.344 112.595 281.221 112.563 281.112 112.504C281.002 112.445 280.909 112.36 280.839 112.257L271.956 98.9716C271.864 98.8359 271.731 98.7332 271.576 98.6786C271.421 98.624 271.253 98.6203 271.096 98.6681C270.94 98.7159 270.802 98.8127 270.704 98.9443C270.606 99.0758 270.553 99.2352 270.553 99.3991V99.3991Z" fill="#F4F6F7"/>
<path d="M-19.7236 132.278V146.959C-19.7243 147.112 -19.6782 147.261 -19.5915 147.387L-9.43747 162.571C-9.36766 162.674 -9.27402 162.759 -9.1645 162.818C-9.05498 162.877 -8.9328 162.909 -8.80835 162.91H19.5022C19.7041 162.91 19.8977 162.83 20.0405 162.688C20.1832 162.545 20.2634 162.351 20.2634 162.15V146.242C20.2634 146.04 20.1834 145.846 20.0409 145.702C19.8983 145.558 19.7047 145.477 19.5022 145.475H-8.80835C-8.9328 145.473 -9.05498 145.441 -9.1645 145.382C-9.27402 145.323 -9.36766 145.239 -9.43747 145.136L-18.3207 131.85C-18.4127 131.714 -18.5457 131.612 -18.7004 131.557C-18.855 131.502 -19.0231 131.499 -19.18 131.547C-19.3368 131.594 -19.4743 131.691 -19.5721 131.823C-19.6699 131.954 -19.723 132.114 -19.7236 132.278V132.278Z" fill="#F4F6F7"/>
<path d="M-19.7236 165.155V179.837C-19.7243 179.989 -19.6782 180.138 -19.5915 180.264L-9.43747 195.449C-9.36766 195.552 -9.27402 195.636 -9.1645 195.695C-9.05498 195.754 -8.9328 195.786 -8.80835 195.788H19.5022C19.7041 195.788 19.8977 195.708 20.0405 195.565C20.1832 195.423 20.2634 195.229 20.2634 195.027V179.12C20.2634 178.917 20.1834 178.723 20.0409 178.58C19.8983 178.436 19.7047 178.354 19.5022 178.353H-8.80835C-8.9328 178.351 -9.05498 178.319 -9.1645 178.26C-9.27402 178.201 -9.36766 178.116 -9.43747 178.013L-18.3207 164.728C-18.4127 164.592 -18.5457 164.489 -18.7004 164.435C-18.855 164.38 -19.0231 164.376 -19.18 164.424C-19.3368 164.472 -19.4743 164.569 -19.5721 164.7C-19.6699 164.832 -19.723 164.991 -19.7236 165.155V165.155Z" fill="#F4F6F7"/>
<path d="M-19.7236 198.034V212.715C-19.7243 212.868 -19.6782 213.017 -19.5915 213.143L-9.43747 228.327C-9.36766 228.43 -9.27402 228.515 -9.1645 228.574C-9.05498 228.633 -8.9328 228.665 -8.80835 228.667H19.5022C19.7041 228.667 19.8977 228.587 20.0405 228.444C20.1832 228.301 20.2634 228.108 20.2634 227.906V211.999C20.2634 211.796 20.1834 211.602 20.0409 211.458C19.8983 211.315 19.7047 211.233 19.5022 211.231H-8.80835C-8.9328 211.23 -9.05498 211.198 -9.1645 211.139C-9.27402 211.08 -9.36766 210.995 -9.43747 210.892L-18.3207 197.606C-18.4127 197.471 -18.5457 197.368 -18.7004 197.313C-18.855 197.259 -19.0231 197.255 -19.18 197.303C-19.3368 197.351 -19.4743 197.447 -19.5721 197.579C-19.6699 197.711 -19.723 197.87 -19.7236 198.034V198.034Z" fill="#F4F6F7"/>
<path d="M-19.7236 230.912V245.593C-19.7243 245.746 -19.6782 245.895 -19.5915 246.021L-9.43747 261.205C-9.36766 261.308 -9.27402 261.393 -9.1645 261.452C-9.05498 261.511 -8.9328 261.543 -8.80835 261.545H19.5022C19.7041 261.545 19.8977 261.465 20.0405 261.322C20.1832 261.179 20.2634 260.986 20.2634 260.784V244.877C20.2634 244.674 20.1834 244.48 20.0409 244.336C19.8983 244.193 19.7047 244.111 19.5022 244.11H-8.80835C-8.9328 244.108 -9.05498 244.076 -9.1645 244.017C-9.27402 243.958 -9.36766 243.873 -9.43747 243.77L-18.3207 230.485C-18.4127 230.349 -18.5457 230.246 -18.7004 230.192C-18.855 230.137 -19.0231 230.133 -19.18 230.181C-19.3368 230.229 -19.4743 230.326 -19.5721 230.457C-19.6699 230.589 -19.723 230.748 -19.7236 230.912V230.912Z" fill="#F4F6F7"/>
<path d="M21.7441 132.278V146.959C21.7435 147.112 21.7896 147.261 21.8763 147.387L32.0303 162.571C32.1001 162.674 32.1938 162.759 32.3033 162.818C32.4128 162.877 32.535 162.909 32.6594 162.91H60.97C61.1719 162.91 61.3655 162.83 61.5082 162.688C61.651 162.545 61.7312 162.351 61.7312 162.15V146.242C61.7312 146.04 61.6512 145.846 61.5086 145.702C61.366 145.558 61.1724 145.477 60.97 145.475H32.6594C32.535 145.473 32.4128 145.441 32.3033 145.382C32.1938 145.323 32.1001 145.239 32.0303 145.136L23.1471 131.85C23.0551 131.714 22.922 131.612 22.7674 131.557C22.6128 131.502 22.4447 131.499 22.2878 131.547C22.1309 131.594 21.9935 131.691 21.8957 131.823C21.7978 131.954 21.7447 132.114 21.7441 132.278V132.278Z" fill="#F4F6F7"/>
<path d="M63.2129 132.278V146.959C63.2123 147.112 63.2584 147.261 63.345 147.387L73.4991 162.571C73.5689 162.674 73.6625 162.759 73.772 162.818C73.8815 162.877 74.0037 162.909 74.1282 162.91H102.439C102.641 162.91 102.834 162.83 102.977 162.688C103.12 162.545 103.2 162.351 103.2 162.15V146.242C103.2 146.04 103.12 145.846 102.977 145.702C102.835 145.558 102.641 145.477 102.439 145.475H74.1282C74.0037 145.473 73.8815 145.441 73.772 145.382C73.6625 145.323 73.5689 145.239 73.4991 145.136L64.6158 131.85C64.5238 131.714 64.3908 131.612 64.2361 131.557C64.0815 131.502 63.9134 131.499 63.7566 131.547C63.5997 131.594 63.4622 131.691 63.3644 131.823C63.2666 131.954 63.2135 132.114 63.2129 132.278V132.278Z" fill="#F4F6F7"/>
<path d="M104.681 132.278V146.959C104.68 147.112 104.726 147.261 104.813 147.387L114.967 162.571C115.037 162.674 115.13 162.759 115.24 162.818C115.349 162.877 115.471 162.909 115.596 162.91H143.906C144.108 162.91 144.302 162.83 144.445 162.688C144.588 162.545 144.668 162.351 144.668 162.15V146.242C144.668 146.04 144.588 145.846 144.445 145.702C144.303 145.558 144.109 145.477 143.906 145.475H115.596C115.471 145.473 115.349 145.441 115.24 145.382C115.13 145.323 115.037 145.239 114.967 145.136L106.084 131.85C105.992 131.714 105.859 131.612 105.704 131.557C105.549 131.502 105.381 131.499 105.224 131.547C105.067 131.594 104.93 131.691 104.832 131.823C104.734 131.954 104.681 132.114 104.681 132.278V132.278Z" fill="#F4F6F7"/>
<path d="M146.149 132.278V146.959C146.149 147.112 146.195 147.261 146.282 147.387L156.436 162.571C156.505 162.674 156.599 162.759 156.709 162.818C156.818 162.877 156.94 162.909 157.065 162.91H185.375C185.577 162.91 185.771 162.83 185.914 162.688C186.056 162.545 186.136 162.351 186.136 162.15V146.242C186.136 146.04 186.056 145.846 185.914 145.702C185.771 145.558 185.578 145.477 185.375 145.475H157.065C156.94 145.473 156.818 145.441 156.709 145.382C156.599 145.323 156.505 145.239 156.436 145.136L147.552 131.85C147.46 131.714 147.327 131.612 147.173 131.557C147.018 131.502 146.85 131.499 146.693 131.547C146.536 131.594 146.399 131.691 146.301 131.823C146.203 131.954 146.15 132.114 146.149 132.278V132.278Z" fill="#F4F6F7"/>
<path d="M63.2129 165.155V179.837C63.2123 179.989 63.2584 180.138 63.345 180.264L73.4991 195.449C73.5689 195.552 73.6625 195.636 73.772 195.695C73.8815 195.754 74.0037 195.786 74.1282 195.788H102.439C102.641 195.788 102.834 195.708 102.977 195.565C103.12 195.423 103.2 195.229 103.2 195.027V179.12C103.2 178.917 103.12 178.723 102.977 178.58C102.835 178.436 102.641 178.354 102.439 178.353H74.1282C74.0037 178.351 73.8815 178.319 73.772 178.26C73.6625 178.201 73.5689 178.116 73.4991 178.013L64.6158 164.728C64.5238 164.592 64.3908 164.489 64.2361 164.435C64.0815 164.38 63.9134 164.376 63.7566 164.424C63.5997 164.472 63.4622 164.569 63.3644 164.7C63.2666 164.832 63.2135 164.991 63.2129 165.155V165.155Z" fill="#F4F6F7"/>
<path d="M104.681 165.155V179.837C104.68 179.989 104.726 180.138 104.813 180.264L114.967 195.449C115.037 195.552 115.13 195.636 115.24 195.695C115.349 195.754 115.471 195.786 115.596 195.788H143.906C144.108 195.788 144.302 195.708 144.445 195.565C144.588 195.423 144.668 195.229 144.668 195.027V179.12C144.668 178.917 144.588 178.723 144.445 178.58C144.303 178.436 144.109 178.354 143.906 178.353H115.596C115.471 178.351 115.349 178.319 115.24 178.26C115.13 178.201 115.037 178.116 114.967 178.013L106.084 164.728C105.992 164.592 105.859 164.489 105.704 164.435C105.549 164.38 105.381 164.376 105.224 164.424C105.067 164.472 104.93 164.569 104.832 164.7C104.734 164.832 104.681 164.991 104.681 165.155V165.155Z" fill="#F4F6F7"/>
<path d="M146.149 165.155V179.837C146.149 179.989 146.195 180.138 146.282 180.264L156.436 195.449C156.505 195.552 156.599 195.636 156.709 195.695C156.818 195.754 156.94 195.786 157.065 195.788H185.375C185.577 195.788 185.771 195.708 185.914 195.565C186.056 195.423 186.136 195.229 186.136 195.027V179.12C186.136 178.917 186.056 178.723 185.914 178.58C185.771 178.436 185.578 178.354 185.375 178.353H157.065C156.94 178.351 156.818 178.319 156.709 178.26C156.599 178.201 156.505 178.116 156.436 178.013L147.552 164.728C147.46 164.592 147.327 164.489 147.173 164.435C147.018 164.38 146.85 164.376 146.693 164.424C146.536 164.472 146.399 164.569 146.301 164.7C146.203 164.832 146.15 164.991 146.149 165.155V165.155Z" fill="#F4F6F7"/>
<path d="M21.7441 198.034V212.715C21.7435 212.868 21.7896 213.017 21.8763 213.143L32.0303 228.327C32.1001 228.43 32.1938 228.515 32.3033 228.574C32.4128 228.633 32.535 228.665 32.6594 228.667H60.97C61.1719 228.667 61.3655 228.587 61.5082 228.444C61.651 228.301 61.7312 228.108 61.7312 227.906V211.999C61.7312 211.796 61.6512 211.602 61.5086 211.458C61.366 211.315 61.1724 211.233 60.97 211.231H32.6594C32.535 211.23 32.4128 211.198 32.3033 211.139C32.1938 211.08 32.1001 210.995 32.0303 210.892L23.1471 197.606C23.0551 197.471 22.922 197.368 22.7674 197.313C22.6128 197.259 22.4447 197.255 22.2878 197.303C22.1309 197.351 21.9935 197.447 21.8957 197.579C21.7978 197.711 21.7447 197.87 21.7441 198.034V198.034Z" fill="#F4F6F7"/>
<path d="M63.2129 198.034V212.715C63.2123 212.868 63.2584 213.017 63.345 213.143L73.4991 228.327C73.5689 228.43 73.6625 228.515 73.772 228.574C73.8815 228.633 74.0037 228.665 74.1282 228.667H102.439C102.641 228.667 102.834 228.587 102.977 228.444C103.12 228.301 103.2 228.108 103.2 227.906V211.999C103.2 211.796 103.12 211.602 102.977 211.458C102.835 211.315 102.641 211.233 102.439 211.231H74.1282C74.0037 211.23 73.8815 211.198 73.772 211.139C73.6625 211.08 73.5689 210.995 73.4991 210.892L64.6158 197.606C64.5238 197.471 64.3908 197.368 64.2361 197.313C64.0815 197.259 63.9134 197.255 63.7566 197.303C63.5997 197.351 63.4622 197.447 63.3644 197.579C63.2666 197.711 63.2135 197.87 63.2129 198.034V198.034Z" fill="#F4F6F7"/>
<path d="M104.681 198.034V212.715C104.68 212.868 104.726 213.017 104.813 213.143L114.967 228.327C115.037 228.43 115.13 228.515 115.24 228.574C115.349 228.633 115.471 228.665 115.596 228.667H143.906C144.108 228.667 144.302 228.587 144.445 228.444C144.588 228.301 144.668 228.108 144.668 227.906V211.999C144.668 211.796 144.588 211.602 144.445 211.458C144.303 211.315 144.109 211.233 143.906 211.231H115.596C115.471 211.23 115.349 211.198 115.24 211.139C115.13 211.08 115.037 210.995 114.967 210.892L106.084 197.606C105.992 197.471 105.859 197.368 105.704 197.313C105.549 197.259 105.381 197.255 105.224 197.303C105.067 197.351 104.93 197.447 104.832 197.579C104.734 197.711 104.681 197.87 104.681 198.034V198.034Z" fill="#F4F6F7"/>
<path d="M146.149 198.034V212.715C146.149 212.868 146.195 213.017 146.282 213.143L156.436 228.327C156.505 228.43 156.599 228.515 156.709 228.574C156.818 228.633 156.94 228.665 157.065 228.667H185.375C185.577 228.667 185.771 228.587 185.914 228.444C186.056 228.301 186.136 228.108 186.136 227.906V211.999C186.136 211.796 186.056 211.602 185.914 211.458C185.771 211.315 185.578 211.233 185.375 211.231H157.065C156.94 211.23 156.818 211.198 156.709 211.139C156.599 211.08 156.505 210.995 156.436 210.892L147.552 197.606C147.46 197.471 147.327 197.368 147.173 197.313C147.018 197.259 146.85 197.255 146.693 197.303C146.536 197.351 146.399 197.447 146.301 197.579C146.203 197.711 146.15 197.87 146.149 198.034V198.034Z" fill="#F4F6F7"/>
<path d="M21.7441 230.912V245.593C21.7435 245.746 21.7896 245.895 21.8763 246.021L32.0303 261.205C32.1001 261.308 32.1938 261.393 32.3033 261.452C32.4128 261.511 32.535 261.543 32.6594 261.545H60.97C61.1719 261.545 61.3655 261.465 61.5082 261.322C61.651 261.179 61.7312 260.986 61.7312 260.784V244.877C61.7312 244.674 61.6512 244.48 61.5086 244.336C61.366 244.193 61.1724 244.111 60.97 244.11H32.6594C32.535 244.108 32.4128 244.076 32.3033 244.017C32.1938 243.958 32.1001 243.873 32.0303 243.77L23.1471 230.485C23.0551 230.349 22.922 230.246 22.7674 230.192C22.6128 230.137 22.4447 230.133 22.2878 230.181C22.1309 230.229 21.9935 230.326 21.8957 230.457C21.7978 230.589 21.7447 230.748 21.7441 230.912V230.912Z" fill="#F4F6F7"/>
<path d="M63.2129 230.912V245.593C63.2123 245.746 63.2584 245.895 63.345 246.021L73.4991 261.205C73.5689 261.308 73.6625 261.393 73.772 261.452C73.8815 261.511 74.0037 261.543 74.1282 261.545H102.439C102.641 261.545 102.834 261.465 102.977 261.322C103.12 261.179 103.2 260.986 103.2 260.784V244.877C103.2 244.674 103.12 244.48 102.977 244.336C102.835 244.193 102.641 244.111 102.439 244.11H74.1282C74.0037 244.108 73.8815 244.076 73.772 244.017C73.6625 243.958 73.5689 243.873 73.4991 243.77L64.6158 230.485C64.5238 230.349 64.3908 230.246 64.2361 230.192C64.0815 230.137 63.9134 230.133 63.7566 230.181C63.5997 230.229 63.4622 230.326 63.3644 230.457C63.2666 230.589 63.2135 230.748 63.2129 230.912V230.912Z" fill="#F4F6F7"/>
<path d="M104.681 230.912V245.593C104.68 245.746 104.726 245.895 104.813 246.021L114.967 261.205C115.037 261.308 115.13 261.393 115.24 261.452C115.349 261.511 115.471 261.543 115.596 261.545H143.906C144.108 261.545 144.302 261.465 144.445 261.322C144.588 261.179 144.668 260.986 144.668 260.784V244.877C144.668 244.674 144.588 244.48 144.445 244.336C144.303 244.193 144.109 244.111 143.906 244.11H115.596C115.471 244.108 115.349 244.076 115.24 244.017C115.13 243.958 115.037 243.873 114.967 243.77L106.084 230.485C105.992 230.349 105.859 230.246 105.704 230.192C105.549 230.137 105.381 230.133 105.224 230.181C105.067 230.229 104.93 230.326 104.832 230.457C104.734 230.589 104.681 230.748 104.681 230.912V230.912Z" fill="#F4F6F7"/>
<path d="M146.149 230.912V245.593C146.149 245.746 146.195 245.895 146.282 246.021L156.436 261.205C156.505 261.308 156.599 261.393 156.709 261.452C156.818 261.511 156.94 261.543 157.065 261.545H185.375C185.577 261.545 185.771 261.465 185.914 261.322C186.056 261.179 186.136 260.986 186.136 260.784V244.877C186.136 244.674 186.056 244.48 185.914 244.336C185.771 244.193 185.578 244.111 185.375 244.11H157.065C156.94 244.108 156.818 244.076 156.709 244.017C156.599 243.958 156.505 243.873 156.436 243.77L147.552 230.485C147.46 230.349 147.327 230.246 147.173 230.192C147.018 230.137 146.85 230.133 146.693 230.181C146.536 230.229 146.399 230.326 146.301 230.457C146.203 230.589 146.15 230.748 146.149 230.912V230.912Z" fill="#F4F6F7"/>
<path d="M187.617 132.278V146.959C187.617 147.112 187.663 147.261 187.749 147.387L197.903 162.571C197.973 162.674 198.067 162.759 198.176 162.818C198.286 162.877 198.408 162.909 198.532 162.91H226.843C227.045 162.91 227.239 162.83 227.381 162.688C227.524 162.545 227.604 162.351 227.604 162.15V146.242C227.604 146.04 227.524 145.846 227.382 145.702C227.239 145.558 227.045 145.477 226.843 145.475H198.532C198.408 145.473 198.286 145.441 198.176 145.382C198.067 145.323 197.973 145.239 197.903 145.136L189.02 131.85C188.928 131.714 188.795 131.612 188.64 131.557C188.486 131.502 188.318 131.499 188.161 131.547C188.004 131.594 187.867 131.691 187.769 131.823C187.671 131.954 187.618 132.114 187.617 132.278V132.278Z" fill="#F4F6F7"/>
<path d="M229.085 132.278V146.959C229.084 147.112 229.13 147.261 229.217 147.387L239.371 162.571C239.441 162.674 239.535 162.759 239.644 162.818C239.754 162.877 239.876 162.909 240 162.91H268.311C268.513 162.91 268.706 162.83 268.849 162.688C268.992 162.545 269.072 162.351 269.072 162.15V146.242C269.072 146.04 268.992 145.846 268.849 145.702C268.707 145.558 268.513 145.477 268.311 145.475H240C239.876 145.473 239.754 145.441 239.644 145.382C239.535 145.323 239.441 145.239 239.371 145.136L230.488 131.85C230.396 131.714 230.263 131.612 230.108 131.557C229.954 131.502 229.786 131.499 229.629 131.547C229.472 131.594 229.334 131.691 229.236 131.823C229.139 131.954 229.086 132.114 229.085 132.278V132.278Z" fill="#F4F6F7"/>
<path d="M270.553 132.278V146.959C270.552 147.112 270.598 147.261 270.685 147.387L280.839 162.571C280.909 162.674 281.002 162.759 281.112 162.818C281.221 162.877 281.344 162.909 281.468 162.91H309.779C309.98 162.91 310.174 162.83 310.317 162.688C310.46 162.545 310.54 162.351 310.54 162.15V146.242C310.54 146.04 310.46 145.846 310.317 145.702C310.175 145.558 309.981 145.477 309.779 145.475H281.468C281.344 145.473 281.221 145.441 281.112 145.382C281.002 145.323 280.909 145.239 280.839 145.136L271.956 131.85C271.864 131.714 271.731 131.612 271.576 131.557C271.421 131.502 271.253 131.499 271.096 131.547C270.94 131.594 270.802 131.691 270.704 131.823C270.606 131.954 270.553 132.114 270.553 132.278V132.278Z" fill="#F4F6F7"/>
<path d="M312.021 132.278V146.959C312.02 147.112 312.066 147.261 312.153 147.387L322.307 162.571C322.376 162.674 322.47 162.759 322.58 162.818C322.689 162.877 322.811 162.909 322.936 162.91H351.246C351.448 162.91 351.642 162.83 351.785 162.688C351.927 162.545 352.008 162.351 352.008 162.15V146.242C352.008 146.04 351.928 145.846 351.785 145.702C351.642 145.558 351.449 145.477 351.246 145.475H322.936C322.811 145.473 322.689 145.441 322.58 145.382C322.47 145.323 322.376 145.239 322.307 145.136L313.423 131.85C313.331 131.714 313.198 131.612 313.044 131.557C312.889 131.502 312.721 131.499 312.564 131.547C312.407 131.594 312.27 131.691 312.172 131.823C312.074 131.954 312.021 132.114 312.021 132.278V132.278Z" fill="#F4F6F7"/>
<path d="M187.617 165.155V179.837C187.617 179.989 187.663 180.138 187.749 180.264L197.903 195.449C197.973 195.552 198.067 195.636 198.176 195.695C198.286 195.754 198.408 195.786 198.532 195.788H226.843C227.045 195.788 227.239 195.708 227.381 195.565C227.524 195.423 227.604 195.229 227.604 195.027V179.12C227.604 178.917 227.524 178.723 227.382 178.58C227.239 178.436 227.045 178.354 226.843 178.353H198.532C198.408 178.351 198.286 178.319 198.176 178.26C198.067 178.201 197.973 178.116 197.903 178.013L189.02 164.728C188.928 164.592 188.795 164.489 188.64 164.435C188.486 164.38 188.318 164.376 188.161 164.424C188.004 164.472 187.867 164.569 187.769 164.7C187.671 164.832 187.618 164.991 187.617 165.155V165.155Z" fill="#F4F6F7"/>
<path d="M229.085 165.155V179.837C229.084 179.989 229.13 180.138 229.217 180.264L239.371 195.449C239.441 195.552 239.535 195.636 239.644 195.695C239.754 195.754 239.876 195.786 240 195.788H268.311C268.513 195.788 268.706 195.708 268.849 195.565C268.992 195.423 269.072 195.229 269.072 195.027V179.12C269.072 178.917 268.992 178.723 268.849 178.58C268.707 178.436 268.513 178.354 268.311 178.353H240C239.876 178.351 239.754 178.319 239.644 178.26C239.535 178.201 239.441 178.116 239.371 178.013L230.488 164.728C230.396 164.592 230.263 164.489 230.108 164.435C229.954 164.38 229.786 164.376 229.629 164.424C229.472 164.472 229.334 164.569 229.236 164.7C229.139 164.832 229.086 164.991 229.085 165.155V165.155Z" fill="#F4F6F7"/>
<path d="M270.553 165.155V179.837C270.552 179.989 270.598 180.138 270.685 180.264L280.839 195.449C280.909 195.552 281.002 195.636 281.112 195.695C281.221 195.754 281.344 195.786 281.468 195.788H309.779C309.98 195.788 310.174 195.708 310.317 195.565C310.46 195.423 310.54 195.229 310.54 195.027V179.12C310.54 178.917 310.46 178.723 310.317 178.58C310.175 178.436 309.981 178.354 309.779 178.353H281.468C281.344 178.351 281.221 178.319 281.112 178.26C281.002 178.201 280.909 178.116 280.839 178.013L271.956 164.728C271.864 164.592 271.731 164.489 271.576 164.435C271.421 164.38 271.253 164.376 271.096 164.424C270.94 164.472 270.802 164.569 270.704 164.7C270.606 164.832 270.553 164.991 270.553 165.155V165.155Z" fill="#F4F6F7"/>
<path d="M312.021 165.155V179.837C312.02 179.989 312.066 180.138 312.153 180.264L322.307 195.449C322.376 195.552 322.47 195.636 322.58 195.695C322.689 195.754 322.811 195.786 322.936 195.788H351.246C351.448 195.788 351.642 195.708 351.785 195.565C351.927 195.423 352.008 195.229 352.008 195.027V179.12C352.008 178.917 351.928 178.723 351.785 178.58C351.642 178.436 351.449 178.354 351.246 178.353H322.936C322.811 178.351 322.689 178.319 322.58 178.26C322.47 178.201 322.376 178.116 322.307 178.013L313.423 164.728C313.331 164.592 313.198 164.489 313.044 164.435C312.889 164.38 312.721 164.376 312.564 164.424C312.407 164.472 312.27 164.569 312.172 164.7C312.074 164.832 312.021 164.991 312.021 165.155V165.155Z" fill="#F4F6F7"/>
<path d="M187.617 198.034V212.715C187.617 212.868 187.663 213.017 187.749 213.143L197.903 228.327C197.973 228.43 198.067 228.515 198.176 228.574C198.286 228.633 198.408 228.665 198.532 228.667H226.843C227.045 228.667 227.239 228.587 227.381 228.444C227.524 228.301 227.604 228.108 227.604 227.906V211.999C227.604 211.796 227.524 211.602 227.382 211.458C227.239 211.315 227.045 211.233 226.843 211.231H198.532C198.408 211.23 198.286 211.198 198.176 211.139C198.067 211.08 197.973 210.995 197.903 210.892L189.02 197.606C188.928 197.471 188.795 197.368 188.64 197.313C188.486 197.259 188.318 197.255 188.161 197.303C188.004 197.351 187.867 197.447 187.769 197.579C187.671 197.711 187.618 197.87 187.617 198.034V198.034Z" fill="#F4F6F7"/>
<path d="M229.085 198.034V212.715C229.084 212.868 229.13 213.017 229.217 213.143L239.371 228.327C239.441 228.43 239.535 228.515 239.644 228.574C239.754 228.633 239.876 228.665 240 228.667H268.311C268.513 228.667 268.706 228.587 268.849 228.444C268.992 228.301 269.072 228.108 269.072 227.906V211.999C269.072 211.796 268.992 211.602 268.849 211.458C268.707 211.315 268.513 211.233 268.311 211.231H240C239.876 211.23 239.754 211.198 239.644 211.139C239.535 211.08 239.441 210.995 239.371 210.892L230.488 197.606C230.396 197.471 230.263 197.368 230.108 197.313C229.954 197.259 229.786 197.255 229.629 197.303C229.472 197.351 229.334 197.447 229.236 197.579C229.139 197.711 229.086 197.87 229.085 198.034V198.034Z" fill="#F4F6F7"/>
<path d="M270.553 198.034V212.715C270.552 212.868 270.598 213.017 270.685 213.143L280.839 228.327C280.909 228.43 281.002 228.515 281.112 228.574C281.221 228.633 281.344 228.665 281.468 228.667H309.779C309.98 228.667 310.174 228.587 310.317 228.444C310.46 228.301 310.54 228.108 310.54 227.906V211.999C310.54 211.796 310.46 211.602 310.317 211.458C310.175 211.315 309.981 211.233 309.779 211.231H281.468C281.344 211.23 281.221 211.198 281.112 211.139C281.002 211.08 280.909 210.995 280.839 210.892L271.956 197.606C271.864 197.471 271.731 197.368 271.576 197.313C271.421 197.259 271.253 197.255 271.096 197.303C270.94 197.351 270.802 197.447 270.704 197.579C270.606 197.711 270.553 197.87 270.553 198.034V198.034Z" fill="#F4F6F7"/>
<path d="M312.021 198.034V212.715C312.02 212.868 312.066 213.017 312.153 213.143L322.307 228.327C322.376 228.43 322.47 228.515 322.58 228.574C322.689 228.633 322.811 228.665 322.936 228.667H351.246C351.448 228.667 351.642 228.587 351.785 228.444C351.927 228.301 352.008 228.108 352.008 227.906V211.999C352.008 211.796 351.928 211.602 351.785 211.458C351.642 211.315 351.449 211.233 351.246 211.231H322.936C322.811 211.23 322.689 211.198 322.58 211.139C322.47 211.08 322.376 210.995 322.307 210.892L313.423 197.606C313.331 197.471 313.198 197.368 313.044 197.313C312.889 197.259 312.721 197.255 312.564 197.303C312.407 197.351 312.27 197.447 312.172 197.579C312.074 197.711 312.021 197.87 312.021 198.034V198.034Z" fill="#F4F6F7"/>
<path d="M187.617 230.912V245.593C187.617 245.746 187.663 245.895 187.749 246.021L197.903 261.205C197.973 261.308 198.067 261.393 198.176 261.452C198.286 261.511 198.408 261.543 198.532 261.545H226.843C227.045 261.545 227.239 261.465 227.381 261.322C227.524 261.179 227.604 260.986 227.604 260.784V244.877C227.604 244.674 227.524 244.48 227.382 244.336C227.239 244.193 227.045 244.111 226.843 244.11H198.532C198.408 244.108 198.286 244.076 198.176 244.017C198.067 243.958 197.973 243.873 197.903 243.77L189.02 230.485C188.928 230.349 188.795 230.246 188.64 230.192C188.486 230.137 188.318 230.133 188.161 230.181C188.004 230.229 187.867 230.326 187.769 230.457C187.671 230.589 187.618 230.748 187.617 230.912V230.912Z" fill="#F4F6F7"/>
<path d="M229.085 230.912V245.593C229.084 245.746 229.13 245.895 229.217 246.021L239.371 261.205C239.441 261.308 239.535 261.393 239.644 261.452C239.754 261.511 239.876 261.543 240 261.545H268.311C268.513 261.545 268.706 261.465 268.849 261.322C268.992 261.179 269.072 260.986 269.072 260.784V244.877C269.072 244.674 268.992 244.48 268.849 244.336C268.707 244.193 268.513 244.111 268.311 244.11H240C239.876 244.108 239.754 244.076 239.644 244.017C239.535 243.958 239.441 243.873 239.371 243.77L230.488 230.485C230.396 230.349 230.263 230.246 230.108 230.192C229.954 230.137 229.786 230.133 229.629 230.181C229.472 230.229 229.334 230.326 229.236 230.457C229.139 230.589 229.086 230.748 229.085 230.912V230.912Z" fill="#F4F6F7"/>
<path d="M270.553 230.912V245.593C270.552 245.746 270.598 245.895 270.685 246.021L280.839 261.205C280.909 261.308 281.002 261.393 281.112 261.452C281.221 261.511 281.344 261.543 281.468 261.545H309.779C309.98 261.545 310.174 261.465 310.317 261.322C310.46 261.179 310.54 260.986 310.54 260.784V244.877C310.54 244.674 310.46 244.48 310.317 244.336C310.175 244.193 309.981 244.111 309.779 244.11H281.468C281.344 244.108 281.221 244.076 281.112 244.017C281.002 243.958 280.909 243.873 280.839 243.77L271.956 230.485C271.864 230.349 271.731 230.246 271.576 230.192C271.421 230.137 271.253 230.133 271.096 230.181C270.94 230.229 270.802 230.326 270.704 230.457C270.606 230.589 270.553 230.748 270.553 230.912V230.912Z" fill="#F4F6F7"/>
<path d="M-19.7236 263.791V278.472C-19.7243 278.625 -19.6782 278.774 -19.5915 278.9L-9.43747 294.084C-9.36766 294.187 -9.27402 294.272 -9.1645 294.331C-9.05498 294.39 -8.9328 294.422 -8.80835 294.424H19.5022C19.7041 294.424 19.8977 294.343 20.0405 294.201C20.1832 294.058 20.2634 293.865 20.2634 293.663V277.755C20.2634 277.553 20.1834 277.359 20.0409 277.215C19.8983 277.071 19.7047 276.99 19.5022 276.988H-8.80835C-8.9328 276.986 -9.05498 276.955 -9.1645 276.895C-9.27402 276.836 -9.36766 276.752 -9.43747 276.649L-18.3207 263.363C-18.4127 263.227 -18.5457 263.125 -18.7004 263.07C-18.855 263.016 -19.0231 263.012 -19.18 263.06C-19.3368 263.108 -19.4743 263.204 -19.5721 263.336C-19.6699 263.467 -19.723 263.627 -19.7236 263.791V263.791Z" fill="#F4F6F7"/>
<path d="M-19.7236 296.669V311.35C-19.7243 311.503 -19.6782 311.652 -19.5915 311.778L-9.43747 326.962C-9.36766 327.065 -9.27402 327.15 -9.1645 327.209C-9.05498 327.268 -8.9328 327.3 -8.80835 327.302H19.5022C19.7041 327.302 19.8977 327.222 20.0405 327.079C20.1832 326.936 20.2634 326.743 20.2634 326.541V310.634C20.2634 310.431 20.1834 310.237 20.0409 310.093C19.8983 309.95 19.7047 309.868 19.5022 309.866H-8.80835C-8.9328 309.865 -9.05498 309.833 -9.1645 309.774C-9.27402 309.715 -9.36766 309.63 -9.43747 309.527L-18.3207 296.241C-18.4127 296.106 -18.5457 296.003 -18.7004 295.948C-18.855 295.894 -19.0231 295.89 -19.18 295.938C-19.3368 295.986 -19.4743 296.082 -19.5721 296.214C-19.6699 296.346 -19.723 296.505 -19.7236 296.669V296.669Z" fill="#F4F6F7"/>
<path d="M-19.7236 329.547V344.228C-19.7243 344.381 -19.6782 344.53 -19.5915 344.656L-9.43747 359.84C-9.36766 359.943 -9.27402 360.028 -9.1645 360.087C-9.05498 360.146 -8.9328 360.178 -8.80835 360.18H19.5022C19.7041 360.18 19.8977 360.1 20.0405 359.957C20.1832 359.814 20.2634 359.621 20.2634 359.419V343.511C20.2634 343.309 20.1834 343.115 20.0409 342.971C19.8983 342.828 19.7047 342.746 19.5022 342.744H-8.80835C-8.9328 342.743 -9.05498 342.711 -9.1645 342.652C-9.27402 342.592 -9.36766 342.508 -9.43747 342.405L-18.3207 329.119C-18.4127 328.984 -18.5457 328.881 -18.7004 328.826C-18.855 328.772 -19.0231 328.768 -19.18 328.816C-19.3368 328.864 -19.4743 328.96 -19.5721 329.092C-19.6699 329.224 -19.723 329.383 -19.7236 329.547V329.547Z" fill="#F4F6F7"/>
<path d="M-19.7236 362.425V377.106C-19.7243 377.259 -19.6782 377.408 -19.5915 377.534L-9.43747 392.718C-9.36766 392.821 -9.27402 392.906 -9.1645 392.965C-9.05498 393.024 -8.9328 393.056 -8.80835 393.058H19.5022C19.7041 393.058 19.8977 392.978 20.0405 392.835C20.1832 392.692 20.2634 392.499 20.2634 392.297V376.39C20.2634 376.187 20.1834 375.993 20.0409 375.849C19.8983 375.706 19.7047 375.624 19.5022 375.623H-8.80835C-8.9328 375.621 -9.05498 375.589 -9.1645 375.53C-9.27402 375.471 -9.36766 375.386 -9.43747 375.283L-18.3207 361.997C-18.4127 361.862 -18.5457 361.759 -18.7004 361.704C-18.855 361.65 -19.0231 361.646 -19.18 361.694C-19.3368 361.742 -19.4743 361.839 -19.5721 361.97C-19.6699 362.102 -19.723 362.261 -19.7236 362.425V362.425Z" fill="#F4F6F7"/>
<path d="M21.7441 263.791V278.472C21.7435 278.625 21.7896 278.774 21.8763 278.9L32.0303 294.084C32.1001 294.187 32.1938 294.272 32.3033 294.331C32.4128 294.39 32.535 294.422 32.6594 294.424H60.97C61.1719 294.424 61.3655 294.343 61.5082 294.201C61.651 294.058 61.7312 293.865 61.7312 293.663V277.755C61.7312 277.553 61.6512 277.359 61.5086 277.215C61.366 277.071 61.1724 276.99 60.97 276.988H32.6594C32.535 276.986 32.4128 276.955 32.3033 276.895C32.1938 276.836 32.1001 276.752 32.0303 276.649L23.1471 263.363C23.0551 263.227 22.922 263.125 22.7674 263.07C22.6128 263.016 22.4447 263.012 22.2878 263.06C22.1309 263.108 21.9935 263.204 21.8957 263.336C21.7978 263.467 21.7447 263.627 21.7441 263.791V263.791Z" fill="#F4F6F7"/>
<path d="M63.2129 263.791V278.472C63.2123 278.625 63.2584 278.774 63.345 278.9L73.4991 294.084C73.5689 294.187 73.6625 294.272 73.772 294.331C73.8815 294.39 74.0037 294.422 74.1282 294.424H102.439C102.641 294.424 102.834 294.343 102.977 294.201C103.12 294.058 103.2 293.865 103.2 293.663V277.755C103.2 277.553 103.12 277.359 102.977 277.215C102.835 277.071 102.641 276.99 102.439 276.988H74.1282C74.0037 276.986 73.8815 276.955 73.772 276.895C73.6625 276.836 73.5689 276.752 73.4991 276.649L64.6158 263.363C64.5238 263.227 64.3908 263.125 64.2361 263.07C64.0815 263.016 63.9134 263.012 63.7566 263.06C63.5997 263.108 63.4622 263.204 63.3644 263.336C63.2666 263.467 63.2135 263.627 63.2129 263.791V263.791Z" fill="#F4F6F7"/>
<path d="M104.681 263.791V278.472C104.68 278.625 104.726 278.774 104.813 278.9L114.967 294.084C115.037 294.187 115.13 294.272 115.24 294.331C115.349 294.39 115.471 294.422 115.596 294.424H143.906C144.108 294.424 144.302 294.343 144.445 294.201C144.588 294.058 144.668 293.865 144.668 293.663V277.755C144.668 277.553 144.588 277.359 144.445 277.215C144.303 277.071 144.109 276.99 143.906 276.988H115.596C115.471 276.986 115.349 276.955 115.24 276.895C115.13 276.836 115.037 276.752 114.967 276.649L106.084 263.363C105.992 263.227 105.859 263.125 105.704 263.07C105.549 263.016 105.381 263.012 105.224 263.06C105.067 263.108 104.93 263.204 104.832 263.336C104.734 263.467 104.681 263.627 104.681 263.791V263.791Z" fill="#F4F6F7"/>
<path d="M146.149 263.791V278.472C146.149 278.625 146.195 278.774 146.282 278.9L156.436 294.084C156.505 294.187 156.599 294.272 156.709 294.331C156.818 294.39 156.94 294.422 157.065 294.424H185.375C185.577 294.424 185.771 294.343 185.914 294.201C186.056 294.058 186.136 293.865 186.136 293.663V277.755C186.136 277.553 186.056 277.359 185.914 277.215C185.771 277.071 185.578 276.99 185.375 276.988H157.065C156.94 276.986 156.818 276.955 156.709 276.895C156.599 276.836 156.505 276.752 156.436 276.649L147.552 263.363C147.46 263.227 147.327 263.125 147.173 263.07C147.018 263.016 146.85 263.012 146.693 263.06C146.536 263.108 146.399 263.204 146.301 263.336C146.203 263.467 146.15 263.627 146.149 263.791V263.791Z" fill="#F4F6F7"/>
<path d="M21.7441 296.669V311.35C21.7435 311.503 21.7896 311.652 21.8763 311.778L32.0303 326.962C32.1001 327.065 32.1938 327.15 32.3033 327.209C32.4128 327.268 32.535 327.3 32.6594 327.302H60.97C61.1719 327.302 61.3655 327.222 61.5082 327.079C61.651 326.936 61.7312 326.743 61.7312 326.541V310.634C61.7312 310.431 61.6512 310.237 61.5086 310.093C61.366 309.95 61.1724 309.868 60.97 309.866H32.6594C32.535 309.865 32.4128 309.833 32.3033 309.774C32.1938 309.715 32.1001 309.63 32.0303 309.527L23.1471 296.241C23.0551 296.106 22.922 296.003 22.7674 295.948C22.6128 295.894 22.4447 295.89 22.2878 295.938C22.1309 295.986 21.9935 296.082 21.8957 296.214C21.7978 296.346 21.7447 296.505 21.7441 296.669V296.669Z" fill="#F4F6F7"/>
<path d="M63.2129 296.669V311.35C63.2123 311.503 63.2584 311.652 63.345 311.778L73.4991 326.962C73.5689 327.065 73.6625 327.15 73.772 327.209C73.8815 327.268 74.0037 327.3 74.1282 327.302H102.439C102.641 327.302 102.834 327.222 102.977 327.079C103.12 326.936 103.2 326.743 103.2 326.541V310.634C103.2 310.431 103.12 310.237 102.977 310.093C102.835 309.95 102.641 309.868 102.439 309.866H74.1282C74.0037 309.865 73.8815 309.833 73.772 309.774C73.6625 309.715 73.5689 309.63 73.4991 309.527L64.6158 296.241C64.5238 296.106 64.3908 296.003 64.2361 295.948C64.0815 295.894 63.9134 295.89 63.7566 295.938C63.5997 295.986 63.4622 296.082 63.3644 296.214C63.2666 296.346 63.2135 296.505 63.2129 296.669V296.669Z" fill="#F4F6F7"/>
<path d="M104.681 296.669V311.35C104.68 311.503 104.726 311.652 104.813 311.778L114.967 326.962C115.037 327.065 115.13 327.15 115.24 327.209C115.349 327.268 115.471 327.3 115.596 327.302H143.906C144.108 327.302 144.302 327.222 144.445 327.079C144.588 326.936 144.668 326.743 144.668 326.541V310.634C144.668 310.431 144.588 310.237 144.445 310.093C144.303 309.95 144.109 309.868 143.906 309.866H115.596C115.471 309.865 115.349 309.833 115.24 309.774C115.13 309.715 115.037 309.63 114.967 309.527L106.084 296.241C105.992 296.106 105.859 296.003 105.704 295.948C105.549 295.894 105.381 295.89 105.224 295.938C105.067 295.986 104.93 296.082 104.832 296.214C104.734 296.346 104.681 296.505 104.681 296.669V296.669Z" fill="#F4F6F7"/>
<path d="M146.149 296.669V311.35C146.149 311.503 146.195 311.652 146.282 311.778L156.436 326.962C156.505 327.065 156.599 327.15 156.709 327.209C156.818 327.268 156.94 327.3 157.065 327.302H185.375C185.577 327.302 185.771 327.222 185.914 327.079C186.056 326.936 186.136 326.743 186.136 326.541V310.634C186.136 310.431 186.056 310.237 185.914 310.093C185.771 309.95 185.578 309.868 185.375 309.866H157.065C156.94 309.865 156.818 309.833 156.709 309.774C156.599 309.715 156.505 309.63 156.436 309.527L147.552 296.241C147.46 296.106 147.327 296.003 147.173 295.948C147.018 295.894 146.85 295.89 146.693 295.938C146.536 295.986 146.399 296.082 146.301 296.214C146.203 296.346 146.15 296.505 146.149 296.669V296.669Z" fill="#F4F6F7"/>
<path d="M21.7441 329.547V344.228C21.7435 344.381 21.7896 344.53 21.8763 344.656L32.0303 359.84C32.1001 359.943 32.1938 360.028 32.3033 360.087C32.4128 360.146 32.535 360.178 32.6594 360.18H60.97C61.1719 360.18 61.3655 360.1 61.5082 359.957C61.651 359.814 61.7312 359.621 61.7312 359.419V343.511C61.7312 343.309 61.6512 343.115 61.5086 342.971C61.366 342.828 61.1724 342.746 60.97 342.744H32.6594C32.535 342.743 32.4128 342.711 32.3033 342.652C32.1938 342.592 32.1001 342.508 32.0303 342.405L23.1471 329.119C23.0551 328.984 22.922 328.881 22.7674 328.826C22.6128 328.772 22.4447 328.768 22.2878 328.816C22.1309 328.864 21.9935 328.96 21.8957 329.092C21.7978 329.224 21.7447 329.383 21.7441 329.547V329.547Z" fill="#F4F6F7"/>
<path d="M63.2129 329.547V344.228C63.2123 344.381 63.2584 344.53 63.345 344.656L73.4991 359.84C73.5689 359.943 73.6625 360.028 73.772 360.087C73.8815 360.146 74.0037 360.178 74.1282 360.18H102.439C102.641 360.18 102.834 360.1 102.977 359.957C103.12 359.814 103.2 359.621 103.2 359.419V343.511C103.2 343.309 103.12 343.115 102.977 342.971C102.835 342.828 102.641 342.746 102.439 342.744H74.1282C74.0037 342.743 73.8815 342.711 73.772 342.652C73.6625 342.592 73.5689 342.508 73.4991 342.405L64.6158 329.119C64.5238 328.984 64.3908 328.881 64.2361 328.826C64.0815 328.772 63.9134 328.768 63.7566 328.816C63.5997 328.864 63.4622 328.96 63.3644 329.092C63.2666 329.224 63.2135 329.383 63.2129 329.547V329.547Z" fill="#F4F6F7"/>
<path d="M104.681 329.547V344.228C104.68 344.381 104.726 344.53 104.813 344.656L114.967 359.84C115.037 359.943 115.13 360.028 115.24 360.087C115.349 360.146 115.471 360.178 115.596 360.18H143.906C144.108 360.18 144.302 360.1 144.445 359.957C144.588 359.814 144.668 359.621 144.668 359.419V343.511C144.668 343.309 144.588 343.115 144.445 342.971C144.303 342.828 144.109 342.746 143.906 342.744H115.596C115.471 342.743 115.349 342.711 115.24 342.652C115.13 342.592 115.037 342.508 114.967 342.405L106.084 329.119C105.992 328.984 105.859 328.881 105.704 328.826C105.549 328.772 105.381 328.768 105.224 328.816C105.067 328.864 104.93 328.96 104.832 329.092C104.734 329.224 104.681 329.383 104.681 329.547V329.547Z" fill="#F4F6F7"/>
<path d="M146.149 329.547V344.228C146.149 344.381 146.195 344.53 146.282 344.656L156.436 359.84C156.505 359.943 156.599 360.028 156.709 360.087C156.818 360.146 156.94 360.178 157.065 360.18H185.375C185.577 360.18 185.771 360.1 185.914 359.957C186.056 359.814 186.136 359.621 186.136 359.419V343.511C186.136 343.309 186.056 343.115 185.914 342.971C185.771 342.828 185.578 342.746 185.375 342.744H157.065C156.94 342.743 156.818 342.711 156.709 342.652C156.599 342.592 156.505 342.508 156.436 342.405L147.552 329.119C147.46 328.984 147.327 328.881 147.173 328.826C147.018 328.772 146.85 328.768 146.693 328.816C146.536 328.864 146.399 328.96 146.301 329.092C146.203 329.224 146.15 329.383 146.149 329.547V329.547Z" fill="#F4F6F7"/>
<path d="M21.7441 362.425V377.106C21.7435 377.259 21.7896 377.408 21.8763 377.534L32.0303 392.718C32.1001 392.821 32.1938 392.906 32.3033 392.965C32.4128 393.024 32.535 393.056 32.6594 393.058H60.97C61.1719 393.058 61.3655 392.978 61.5082 392.835C61.651 392.692 61.7312 392.499 61.7312 392.297V376.39C61.7312 376.187 61.6512 375.993 61.5086 375.849C61.366 375.706 61.1724 375.624 60.97 375.623H32.6594C32.535 375.621 32.4128 375.589 32.3033 375.53C32.1938 375.471 32.1001 375.386 32.0303 375.283L23.1471 361.997C23.0551 361.862 22.922 361.759 22.7674 361.704C22.6128 361.65 22.4447 361.646 22.2878 361.694C22.1309 361.742 21.9935 361.839 21.8957 361.97C21.7978 362.102 21.7447 362.261 21.7441 362.425V362.425Z" fill="#F4F6F7"/>
<path d="M63.2129 362.425V377.106C63.2123 377.259 63.2584 377.408 63.345 377.534L73.4991 392.718C73.5689 392.821 73.6625 392.906 73.772 392.965C73.8815 393.024 74.0037 393.056 74.1282 393.058H102.439C102.641 393.058 102.834 392.978 102.977 392.835C103.12 392.692 103.2 392.499 103.2 392.297V376.39C103.2 376.187 103.12 375.993 102.977 375.849C102.835 375.706 102.641 375.624 102.439 375.623H74.1282C74.0037 375.621 73.8815 375.589 73.772 375.53C73.6625 375.471 73.5689 375.386 73.4991 375.283L64.6158 361.997C64.5238 361.862 64.3908 361.759 64.2361 361.704C64.0815 361.65 63.9134 361.646 63.7566 361.694C63.5997 361.742 63.4622 361.839 63.3644 361.97C63.2666 362.102 63.2135 362.261 63.2129 362.425V362.425Z" fill="#F4F6F7"/>
<path d="M104.681 362.425V377.106C104.68 377.259 104.726 377.408 104.813 377.534L114.967 392.718C115.037 392.821 115.13 392.906 115.24 392.965C115.349 393.024 115.471 393.056 115.596 393.058H143.906C144.108 393.058 144.302 392.978 144.445 392.835C144.588 392.692 144.668 392.499 144.668 392.297V376.39C144.668 376.187 144.588 375.993 144.445 375.849C144.303 375.706 144.109 375.624 143.906 375.623H115.596C115.471 375.621 115.349 375.589 115.24 375.53C115.13 375.471 115.037 375.386 114.967 375.283L106.084 361.997C105.992 361.862 105.859 361.759 105.704 361.704C105.549 361.65 105.381 361.646 105.224 361.694C105.067 361.742 104.93 361.839 104.832 361.97C104.734 362.102 104.681 362.261 104.681 362.425V362.425Z" fill="#F4F6F7"/>
<path d="M146.149 362.425V377.106C146.149 377.259 146.195 377.408 146.282 377.534L156.436 392.718C156.505 392.821 156.599 392.906 156.709 392.965C156.818 393.024 156.94 393.056 157.065 393.058H185.375C185.577 393.058 185.771 392.978 185.914 392.835C186.056 392.692 186.136 392.499 186.136 392.297V376.39C186.136 376.187 186.056 375.993 185.914 375.849C185.771 375.706 185.578 375.624 185.375 375.623H157.065C156.94 375.621 156.818 375.589 156.709 375.53C156.599 375.471 156.505 375.386 156.436 375.283L147.552 361.997C147.46 361.862 147.327 361.759 147.173 361.704C147.018 361.65 146.85 361.646 146.693 361.694C146.536 361.742 146.399 361.839 146.301 361.97C146.203 362.102 146.15 362.261 146.149 362.425V362.425Z" fill="#F4F6F7"/>
<path d="M187.617 263.791V278.472C187.617 278.625 187.663 278.774 187.749 278.9L197.903 294.084C197.973 294.187 198.067 294.272 198.176 294.331C198.286 294.39 198.408 294.422 198.532 294.424H226.843C227.045 294.424 227.239 294.343 227.381 294.201C227.524 294.058 227.604 293.865 227.604 293.663V277.755C227.604 277.553 227.524 277.359 227.382 277.215C227.239 277.071 227.045 276.99 226.843 276.988H198.532C198.408 276.986 198.286 276.955 198.176 276.895C198.067 276.836 197.973 276.752 197.903 276.649L189.02 263.363C188.928 263.227 188.795 263.125 188.64 263.07C188.486 263.016 188.318 263.012 188.161 263.06C188.004 263.108 187.867 263.204 187.769 263.336C187.671 263.467 187.618 263.627 187.617 263.791V263.791Z" fill="#F4F6F7"/>
<path d="M229.085 263.791V278.472C229.084 278.625 229.13 278.774 229.217 278.9L239.371 294.084C239.441 294.187 239.535 294.272 239.644 294.331C239.754 294.39 239.876 294.422 240 294.424H268.311C268.513 294.424 268.706 294.343 268.849 294.201C268.992 294.058 269.072 293.865 269.072 293.663V277.755C269.072 277.553 268.992 277.359 268.849 277.215C268.707 277.071 268.513 276.99 268.311 276.988H240C239.876 276.986 239.754 276.955 239.644 276.895C239.535 276.836 239.441 276.752 239.371 276.649L230.488 263.363C230.396 263.227 230.263 263.125 230.108 263.07C229.954 263.016 229.786 263.012 229.629 263.06C229.472 263.108 229.334 263.204 229.236 263.336C229.139 263.467 229.086 263.627 229.085 263.791V263.791Z" fill="#F4F6F7"/>
<path d="M270.553 263.791V278.472C270.552 278.625 270.598 278.774 270.685 278.9L280.839 294.084C280.909 294.187 281.002 294.272 281.112 294.331C281.221 294.39 281.344 294.422 281.468 294.424H309.779C309.98 294.424 310.174 294.343 310.317 294.201C310.46 294.058 310.54 293.865 310.54 293.663V277.755C310.54 277.553 310.46 277.359 310.317 277.215C310.175 277.071 309.981 276.99 309.779 276.988H281.468C281.344 276.986 281.221 276.955 281.112 276.895C281.002 276.836 280.909 276.752 280.839 276.649L271.956 263.363C271.864 263.227 271.731 263.125 271.576 263.07C271.421 263.016 271.253 263.012 271.096 263.06C270.94 263.108 270.802 263.204 270.704 263.336C270.606 263.467 270.553 263.627 270.553 263.791V263.791Z" fill="#F4F6F7"/>
<path d="M187.617 296.669V311.35C187.617 311.503 187.663 311.652 187.749 311.778L197.903 326.962C197.973 327.065 198.067 327.15 198.176 327.209C198.286 327.268 198.408 327.3 198.532 327.302H226.843C227.045 327.302 227.239 327.222 227.381 327.079C227.524 326.936 227.604 326.743 227.604 326.541V310.634C227.604 310.431 227.524 310.237 227.382 310.093C227.239 309.95 227.045 309.868 226.843 309.866H198.532C198.408 309.865 198.286 309.833 198.176 309.774C198.067 309.715 197.973 309.63 197.903 309.527L189.02 296.241C188.928 296.106 188.795 296.003 188.64 295.948C188.486 295.894 188.318 295.89 188.161 295.938C188.004 295.986 187.867 296.082 187.769 296.214C187.671 296.346 187.618 296.505 187.617 296.669V296.669Z" fill="#F4F6F7"/>
<path d="M229.085 296.669V311.35C229.084 311.503 229.13 311.652 229.217 311.778L239.371 326.962C239.441 327.065 239.535 327.15 239.644 327.209C239.754 327.268 239.876 327.3 240 327.302H268.311C268.513 327.302 268.706 327.222 268.849 327.079C268.992 326.936 269.072 326.743 269.072 326.541V310.634C269.072 310.431 268.992 310.237 268.849 310.093C268.707 309.95 268.513 309.868 268.311 309.866H240C239.876 309.865 239.754 309.833 239.644 309.774C239.535 309.715 239.441 309.63 239.371 309.527L230.488 296.241C230.396 296.106 230.263 296.003 230.108 295.948C229.954 295.894 229.786 295.89 229.629 295.938C229.472 295.986 229.334 296.082 229.236 296.214C229.139 296.346 229.086 296.505 229.085 296.669V296.669Z" fill="#F4F6F7"/>
<path d="M270.553 296.669V311.35C270.552 311.503 270.598 311.652 270.685 311.778L280.839 326.962C280.909 327.065 281.002 327.15 281.112 327.209C281.221 327.268 281.344 327.3 281.468 327.302H309.779C309.98 327.302 310.174 327.222 310.317 327.079C310.46 326.936 310.54 326.743 310.54 326.541V310.634C310.54 310.431 310.46 310.237 310.317 310.093C310.175 309.95 309.981 309.868 309.779 309.866H281.468C281.344 309.865 281.221 309.833 281.112 309.774C281.002 309.715 280.909 309.63 280.839 309.527L271.956 296.241C271.864 296.106 271.731 296.003 271.576 295.948C271.421 295.894 271.253 295.89 271.096 295.938C270.94 295.986 270.802 296.082 270.704 296.214C270.606 296.346 270.553 296.505 270.553 296.669V296.669Z" fill="#F4F6F7"/>
<path d="M312.021 296.669V311.35C312.02 311.503 312.066 311.652 312.153 311.778L322.307 326.962C322.376 327.065 322.47 327.15 322.58 327.209C322.689 327.268 322.811 327.3 322.936 327.302H351.246C351.448 327.302 351.642 327.222 351.785 327.079C351.927 326.936 352.008 326.743 352.008 326.541V310.634C352.008 310.431 351.928 310.237 351.785 310.093C351.642 309.95 351.449 309.868 351.246 309.866H322.936C322.811 309.865 322.689 309.833 322.58 309.774C322.47 309.715 322.376 309.63 322.307 309.527L313.423 296.241C313.331 296.106 313.198 296.003 313.044 295.948C312.889 295.894 312.721 295.89 312.564 295.938C312.407 295.986 312.27 296.082 312.172 296.214C312.074 296.346 312.021 296.505 312.021 296.669V296.669Z" fill="#F4F6F7"/>
<path d="M187.617 329.547V344.228C187.617 344.381 187.663 344.53 187.749 344.656L197.903 359.84C197.973 359.943 198.067 360.028 198.176 360.087C198.286 360.146 198.408 360.178 198.532 360.18H226.843C227.045 360.18 227.239 360.1 227.381 359.957C227.524 359.814 227.604 359.621 227.604 359.419V343.511C227.604 343.309 227.524 343.115 227.382 342.971C227.239 342.828 227.045 342.746 226.843 342.744H198.532C198.408 342.743 198.286 342.711 198.176 342.652C198.067 342.592 197.973 342.508 197.903 342.405L189.02 329.119C188.928 328.984 188.795 328.881 188.64 328.826C188.486 328.772 188.318 328.768 188.161 328.816C188.004 328.864 187.867 328.96 187.769 329.092C187.671 329.224 187.618 329.383 187.617 329.547V329.547Z" fill="#F4F6F7"/>
<path d="M229.085 329.547V344.228C229.084 344.381 229.13 344.53 229.217 344.656L239.371 359.84C239.441 359.943 239.535 360.028 239.644 360.087C239.754 360.146 239.876 360.178 240 360.18H268.311C268.513 360.18 268.706 360.1 268.849 359.957C268.992 359.814 269.072 359.621 269.072 359.419V343.511C269.072 343.309 268.992 343.115 268.849 342.971C268.707 342.828 268.513 342.746 268.311 342.744H240C239.876 342.743 239.754 342.711 239.644 342.652C239.535 342.592 239.441 342.508 239.371 342.405L230.488 329.119C230.396 328.984 230.263 328.881 230.108 328.826C229.954 328.772 229.786 328.768 229.629 328.816C229.472 328.864 229.334 328.96 229.236 329.092C229.139 329.224 229.086 329.383 229.085 329.547V329.547Z" fill="#F4F6F7"/>
<path d="M270.553 329.547V344.228C270.552 344.381 270.598 344.53 270.685 344.656L280.839 359.84C280.909 359.943 281.002 360.028 281.112 360.087C281.221 360.146 281.344 360.178 281.468 360.18H309.779C309.98 360.18 310.174 360.1 310.317 359.957C310.46 359.814 310.54 359.621 310.54 359.419V343.511C310.54 343.309 310.46 343.115 310.317 342.971C310.175 342.828 309.981 342.746 309.779 342.744H281.468C281.344 342.743 281.221 342.711 281.112 342.652C281.002 342.592 280.909 342.508 280.839 342.405L271.956 329.119C271.864 328.984 271.731 328.881 271.576 328.826C271.421 328.772 271.253 328.768 271.096 328.816C270.94 328.864 270.802 328.96 270.704 329.092C270.606 329.224 270.553 329.383 270.553 329.547V329.547Z" fill="#F4F6F7"/>
<path d="M312.021 329.547V344.228C312.02 344.381 312.066 344.53 312.153 344.656L322.307 359.84C322.376 359.943 322.47 360.028 322.58 360.087C322.689 360.146 322.811 360.178 322.936 360.18H351.246C351.448 360.18 351.642 360.1 351.785 359.957C351.927 359.814 352.008 359.621 352.008 359.419V343.511C352.008 343.309 351.928 343.115 351.785 342.971C351.642 342.828 351.449 342.746 351.246 342.744H322.936C322.811 342.743 322.689 342.711 322.58 342.652C322.47 342.592 322.376 342.508 322.307 342.405L313.423 329.119C313.331 328.984 313.198 328.881 313.044 328.826C312.889 328.772 312.721 328.768 312.564 328.816C312.407 328.864 312.27 328.96 312.172 329.092C312.074 329.224 312.021 329.383 312.021 329.547V329.547Z" fill="#F4F6F7"/>
<path d="M187.617 362.425V377.106C187.617 377.259 187.663 377.408 187.749 377.534L197.903 392.718C197.973 392.821 198.067 392.906 198.176 392.965C198.286 393.024 198.408 393.056 198.532 393.058H226.843C227.045 393.058 227.239 392.978 227.381 392.835C227.524 392.692 227.604 392.499 227.604 392.297V376.39C227.604 376.187 227.524 375.993 227.382 375.849C227.239 375.706 227.045 375.624 226.843 375.623H198.532C198.408 375.621 198.286 375.589 198.176 375.53C198.067 375.471 197.973 375.386 197.903 375.283L189.02 361.997C188.928 361.862 188.795 361.759 188.64 361.704C188.486 361.65 188.318 361.646 188.161 361.694C188.004 361.742 187.867 361.839 187.769 361.97C187.671 362.102 187.618 362.261 187.617 362.425V362.425Z" fill="#F4F6F7"/>
<path d="M229.085 362.425V377.106C229.084 377.259 229.13 377.408 229.217 377.534L239.371 392.718C239.441 392.821 239.535 392.906 239.644 392.965C239.754 393.024 239.876 393.056 240 393.058H268.311C268.513 393.058 268.706 392.978 268.849 392.835C268.992 392.692 269.072 392.499 269.072 392.297V376.39C269.072 376.187 268.992 375.993 268.849 375.849C268.707 375.706 268.513 375.624 268.311 375.623H240C239.876 375.621 239.754 375.589 239.644 375.53C239.535 375.471 239.441 375.386 239.371 375.283L230.488 361.997C230.396 361.862 230.263 361.759 230.108 361.704C229.954 361.65 229.786 361.646 229.629 361.694C229.472 361.742 229.334 361.839 229.236 361.97C229.139 362.102 229.086 362.261 229.085 362.425V362.425Z" fill="#F4F6F7"/>
<path d="M270.553 362.425V377.106C270.552 377.259 270.598 377.408 270.685 377.534L280.839 392.718C280.909 392.821 281.002 392.906 281.112 392.965C281.221 393.024 281.344 393.056 281.468 393.058H309.779C309.98 393.058 310.174 392.978 310.317 392.835C310.46 392.692 310.54 392.499 310.54 392.297V376.39C310.54 376.187 310.46 375.993 310.317 375.849C310.175 375.706 309.981 375.624 309.779 375.623H281.468C281.344 375.621 281.221 375.589 281.112 375.53C281.002 375.471 280.909 375.386 280.839 375.283L271.956 361.997C271.864 361.862 271.731 361.759 271.576 361.704C271.421 361.65 271.253 361.646 271.096 361.694C270.94 361.742 270.802 361.839 270.704 361.97C270.606 362.102 270.553 362.261 270.553 362.425V362.425Z" fill="#F4F6F7"/>
<path d="M312.021 362.425V377.106C312.02 377.259 312.066 377.408 312.153 377.534L322.307 392.718C322.376 392.821 322.47 392.906 322.58 392.965C322.689 393.024 322.811 393.056 322.936 393.058H351.246C351.448 393.058 351.642 392.978 351.785 392.835C351.927 392.692 352.008 392.499 352.008 392.297V376.39C352.008 376.187 351.928 375.993 351.785 375.849C351.642 375.706 351.449 375.624 351.246 375.623H322.936C322.811 375.621 322.689 375.589 322.58 375.53C322.47 375.471 322.376 375.386 322.307 375.283L313.423 361.997C313.331 361.862 313.198 361.759 313.044 361.704C312.889 361.65 312.721 361.646 312.564 361.694C312.407 361.742 312.27 361.839 312.172 361.97C312.074 362.102 312.021 362.261 312.021 362.425V362.425Z" fill="#F4F6F7"/>
<path d="M-19.7236 395.304V409.985C-19.7243 410.138 -19.6782 410.287 -19.5915 410.413L-9.43747 425.597C-9.36766 425.7 -9.27402 425.785 -9.1645 425.844C-9.05498 425.903 -8.9328 425.935 -8.80835 425.937H19.5022C19.7041 425.937 19.8977 425.856 20.0405 425.714C20.1832 425.571 20.2634 425.378 20.2634 425.176V409.268C20.2634 409.066 20.1834 408.872 20.0409 408.728C19.8983 408.584 19.7047 408.503 19.5022 408.501H-8.80835C-8.9328 408.499 -9.05498 408.468 -9.1645 408.408C-9.27402 408.349 -9.36766 408.265 -9.43747 408.162L-18.3207 394.876C-18.4127 394.74 -18.5457 394.638 -18.7004 394.583C-18.855 394.529 -19.0231 394.525 -19.18 394.573C-19.3368 394.62 -19.4743 394.717 -19.5721 394.849C-19.6699 394.98 -19.723 395.14 -19.7236 395.304V395.304Z" fill="#F4F6F7"/>
<path d="M-19.7236 428.182V442.863C-19.7243 443.016 -19.6782 443.165 -19.5915 443.291L-9.43747 458.475C-9.36766 458.578 -9.27402 458.663 -9.1645 458.722C-9.05498 458.781 -8.9328 458.813 -8.80835 458.814H19.5022C19.7041 458.814 19.8977 458.734 20.0405 458.592C20.1832 458.449 20.2634 458.255 20.2634 458.054V442.146C20.2634 441.944 20.1834 441.75 20.0409 441.606C19.8983 441.462 19.7047 441.381 19.5022 441.379H-8.80835C-8.9328 441.377 -9.05498 441.345 -9.1645 441.286C-9.27402 441.227 -9.36766 441.143 -9.43747 441.04L-18.3207 427.754C-18.4127 427.618 -18.5457 427.516 -18.7004 427.461C-18.855 427.406 -19.0231 427.403 -19.18 427.451C-19.3368 427.498 -19.4743 427.595 -19.5721 427.727C-19.6699 427.858 -19.723 428.018 -19.7236 428.182V428.182Z" fill="#F4F6F7"/>
<path d="M-19.7236 461.06V475.741C-19.7243 475.894 -19.6782 476.043 -19.5915 476.169L-9.43747 491.353C-9.36766 491.456 -9.27402 491.541 -9.1645 491.6C-9.05498 491.659 -8.9328 491.691 -8.80835 491.693H19.5022C19.7041 491.693 19.8977 491.613 20.0405 491.47C20.1832 491.327 20.2634 491.134 20.2634 490.932V475.024C20.2634 474.822 20.1834 474.628 20.0409 474.484C19.8983 474.341 19.7047 474.259 19.5022 474.257H-8.80835C-8.9328 474.255 -9.05498 474.224 -9.1645 474.165C-9.27402 474.105 -9.36766 474.021 -9.43747 473.918L-18.3207 460.632C-18.4127 460.497 -18.5457 460.394 -18.7004 460.339C-18.855 460.285 -19.0231 460.281 -19.18 460.329C-19.3368 460.377 -19.4743 460.473 -19.5721 460.605C-19.6699 460.736 -19.723 460.896 -19.7236 461.06V461.06Z" fill="#F4F6F7"/>
<path d="M-19.7236 493.938V508.619C-19.7243 508.772 -19.6782 508.921 -19.5915 509.047L-9.43747 524.231C-9.36766 524.334 -9.27402 524.419 -9.1645 524.478C-9.05498 524.537 -8.9328 524.569 -8.80835 524.571H19.5022C19.7041 524.571 19.8977 524.491 20.0405 524.348C20.1832 524.205 20.2634 524.012 20.2634 523.81V507.903C20.2634 507.7 20.1834 507.506 20.0409 507.362C19.8983 507.219 19.7047 507.137 19.5022 507.135H-8.80835C-8.9328 507.134 -9.05498 507.102 -9.1645 507.043C-9.27402 506.984 -9.36766 506.899 -9.43747 506.796L-18.3207 493.51C-18.4127 493.375 -18.5457 493.272 -18.7004 493.217C-18.855 493.163 -19.0231 493.159 -19.18 493.207C-19.3368 493.255 -19.4743 493.352 -19.5721 493.483C-19.6699 493.615 -19.723 493.774 -19.7236 493.938V493.938Z" fill="#F4F6F7"/>
<path d="M21.7441 395.304V409.985C21.7435 410.138 21.7896 410.287 21.8763 410.413L32.0303 425.597C32.1001 425.7 32.1938 425.785 32.3033 425.844C32.4128 425.903 32.535 425.935 32.6594 425.937H60.97C61.1719 425.937 61.3655 425.856 61.5082 425.714C61.651 425.571 61.7312 425.378 61.7312 425.176V409.268C61.7312 409.066 61.6512 408.872 61.5086 408.728C61.366 408.584 61.1724 408.503 60.97 408.501H32.6594C32.535 408.499 32.4128 408.468 32.3033 408.408C32.1938 408.349 32.1001 408.265 32.0303 408.162L23.1471 394.876C23.0551 394.74 22.922 394.638 22.7674 394.583C22.6128 394.529 22.4447 394.525 22.2878 394.573C22.1309 394.62 21.9935 394.717 21.8957 394.849C21.7978 394.98 21.7447 395.14 21.7441 395.304V395.304Z" fill="#F4F6F7"/>
<path d="M63.2129 395.304V409.985C63.2123 410.138 63.2584 410.287 63.345 410.413L73.4991 425.597C73.5689 425.7 73.6625 425.785 73.772 425.844C73.8815 425.903 74.0037 425.935 74.1282 425.937H102.439C102.641 425.937 102.834 425.856 102.977 425.714C103.12 425.571 103.2 425.378 103.2 425.176V409.268C103.2 409.066 103.12 408.872 102.977 408.728C102.835 408.584 102.641 408.503 102.439 408.501H74.1282C74.0037 408.499 73.8815 408.468 73.772 408.408C73.6625 408.349 73.5689 408.265 73.4991 408.162L64.6158 394.876C64.5238 394.74 64.3908 394.638 64.2361 394.583C64.0815 394.529 63.9134 394.525 63.7566 394.573C63.5997 394.62 63.4622 394.717 63.3644 394.849C63.2666 394.98 63.2135 395.14 63.2129 395.304V395.304Z" fill="#F4F6F7"/>
<path d="M104.681 395.304V409.985C104.68 410.138 104.726 410.287 104.813 410.413L114.967 425.597C115.037 425.7 115.13 425.785 115.24 425.844C115.349 425.903 115.471 425.935 115.596 425.937H143.906C144.108 425.937 144.302 425.856 144.445 425.714C144.588 425.571 144.668 425.378 144.668 425.176V409.268C144.668 409.066 144.588 408.872 144.445 408.728C144.303 408.584 144.109 408.503 143.906 408.501H115.596C115.471 408.499 115.349 408.468 115.24 408.408C115.13 408.349 115.037 408.265 114.967 408.162L106.084 394.876C105.992 394.74 105.859 394.638 105.704 394.583C105.549 394.529 105.381 394.525 105.224 394.573C105.067 394.62 104.93 394.717 104.832 394.849C104.734 394.98 104.681 395.14 104.681 395.304V395.304Z" fill="#F4F6F7"/>
<path d="M146.149 395.304V409.985C146.149 410.138 146.195 410.287 146.282 410.413L156.436 425.597C156.505 425.7 156.599 425.785 156.709 425.844C156.818 425.903 156.94 425.935 157.065 425.937H185.375C185.577 425.937 185.771 425.856 185.914 425.714C186.056 425.571 186.136 425.378 186.136 425.176V409.268C186.136 409.066 186.056 408.872 185.914 408.728C185.771 408.584 185.578 408.503 185.375 408.501H157.065C156.94 408.499 156.818 408.468 156.709 408.408C156.599 408.349 156.505 408.265 156.436 408.162L147.552 394.876C147.46 394.74 147.327 394.638 147.173 394.583C147.018 394.529 146.85 394.525 146.693 394.573C146.536 394.62 146.399 394.717 146.301 394.849C146.203 394.98 146.15 395.14 146.149 395.304V395.304Z" fill="#F4F6F7"/>
<path d="M21.7441 428.182V442.863C21.7435 443.016 21.7896 443.165 21.8763 443.291L32.0303 458.475C32.1001 458.578 32.1938 458.663 32.3033 458.722C32.4128 458.781 32.535 458.813 32.6594 458.814H60.97C61.1719 458.814 61.3655 458.734 61.5082 458.592C61.651 458.449 61.7312 458.255 61.7312 458.054V442.146C61.7312 441.944 61.6512 441.75 61.5086 441.606C61.366 441.462 61.1724 441.381 60.97 441.379H32.6594C32.535 441.377 32.4128 441.345 32.3033 441.286C32.1938 441.227 32.1001 441.143 32.0303 441.04L23.1471 427.754C23.0551 427.618 22.922 427.516 22.7674 427.461C22.6128 427.406 22.4447 427.403 22.2878 427.451C22.1309 427.498 21.9935 427.595 21.8957 427.727C21.7978 427.858 21.7447 428.018 21.7441 428.182V428.182Z" fill="#F4F6F7"/>
<path d="M63.2129 428.182V442.863C63.2123 443.016 63.2584 443.165 63.345 443.291L73.4991 458.475C73.5689 458.578 73.6625 458.663 73.772 458.722C73.8815 458.781 74.0037 458.813 74.1282 458.814H102.439C102.641 458.814 102.834 458.734 102.977 458.592C103.12 458.449 103.2 458.255 103.2 458.054V442.146C103.2 441.944 103.12 441.75 102.977 441.606C102.835 441.462 102.641 441.381 102.439 441.379H74.1282C74.0037 441.377 73.8815 441.345 73.772 441.286C73.6625 441.227 73.5689 441.143 73.4991 441.04L64.6158 427.754C64.5238 427.618 64.3908 427.516 64.2361 427.461C64.0815 427.406 63.9134 427.403 63.7566 427.451C63.5997 427.498 63.4622 427.595 63.3644 427.727C63.2666 427.858 63.2135 428.018 63.2129 428.182V428.182Z" fill="#F4F6F7"/>
<path d="M104.681 428.182V442.863C104.68 443.016 104.726 443.165 104.813 443.291L114.967 458.475C115.037 458.578 115.13 458.663 115.24 458.722C115.349 458.781 115.471 458.813 115.596 458.814H143.906C144.108 458.814 144.302 458.734 144.445 458.592C144.588 458.449 144.668 458.255 144.668 458.054V442.146C144.668 441.944 144.588 441.75 144.445 441.606C144.303 441.462 144.109 441.381 143.906 441.379H115.596C115.471 441.377 115.349 441.345 115.24 441.286C115.13 441.227 115.037 441.143 114.967 441.04L106.084 427.754C105.992 427.618 105.859 427.516 105.704 427.461C105.549 427.406 105.381 427.403 105.224 427.451C105.067 427.498 104.93 427.595 104.832 427.727C104.734 427.858 104.681 428.018 104.681 428.182V428.182Z" fill="#F4F6F7"/>
<path d="M146.149 428.182V442.863C146.149 443.016 146.195 443.165 146.282 443.291L156.436 458.475C156.505 458.578 156.599 458.663 156.709 458.722C156.818 458.781 156.94 458.813 157.065 458.814H185.375C185.577 458.814 185.771 458.734 185.914 458.592C186.056 458.449 186.136 458.255 186.136 458.054V442.146C186.136 441.944 186.056 441.75 185.914 441.606C185.771 441.462 185.578 441.381 185.375 441.379H157.065C156.94 441.377 156.818 441.345 156.709 441.286C156.599 441.227 156.505 441.143 156.436 441.04L147.552 427.754C147.46 427.618 147.327 427.516 147.173 427.461C147.018 427.406 146.85 427.403 146.693 427.451C146.536 427.498 146.399 427.595 146.301 427.727C146.203 427.858 146.15 428.018 146.149 428.182V428.182Z" fill="#F4F6F7"/>
<path d="M21.7441 461.06V475.741C21.7435 475.894 21.7896 476.043 21.8763 476.169L32.0303 491.353C32.1001 491.456 32.1938 491.541 32.3033 491.6C32.4128 491.659 32.535 491.691 32.6594 491.693H60.97C61.1719 491.693 61.3655 491.613 61.5082 491.47C61.651 491.327 61.7312 491.134 61.7312 490.932V475.024C61.7312 474.822 61.6512 474.628 61.5086 474.484C61.366 474.341 61.1724 474.259 60.97 474.257H32.6594C32.535 474.255 32.4128 474.224 32.3033 474.165C32.1938 474.105 32.1001 474.021 32.0303 473.918L23.1471 460.632C23.0551 460.497 22.922 460.394 22.7674 460.339C22.6128 460.285 22.4447 460.281 22.2878 460.329C22.1309 460.377 21.9935 460.473 21.8957 460.605C21.7978 460.736 21.7447 460.896 21.7441 461.06V461.06Z" fill="#F4F6F7"/>
<path d="M63.2129 461.06V475.741C63.2123 475.894 63.2584 476.043 63.345 476.169L73.4991 491.353C73.5689 491.456 73.6625 491.541 73.772 491.6C73.8815 491.659 74.0037 491.691 74.1282 491.693H102.439C102.641 491.693 102.834 491.613 102.977 491.47C103.12 491.327 103.2 491.134 103.2 490.932V475.024C103.2 474.822 103.12 474.628 102.977 474.484C102.835 474.341 102.641 474.259 102.439 474.257H74.1282C74.0037 474.255 73.8815 474.224 73.772 474.165C73.6625 474.105 73.5689 474.021 73.4991 473.918L64.6158 460.632C64.5238 460.497 64.3908 460.394 64.2361 460.339C64.0815 460.285 63.9134 460.281 63.7566 460.329C63.5997 460.377 63.4622 460.473 63.3644 460.605C63.2666 460.736 63.2135 460.896 63.2129 461.06V461.06Z" fill="#F4F6F7"/>
<path d="M146.149 461.06V475.741C146.149 475.894 146.195 476.043 146.282 476.169L156.436 491.353C156.505 491.456 156.599 491.541 156.709 491.6C156.818 491.659 156.94 491.691 157.065 491.693H185.375C185.577 491.693 185.771 491.613 185.914 491.47C186.056 491.327 186.136 491.134 186.136 490.932V475.024C186.136 474.822 186.056 474.628 185.914 474.484C185.771 474.341 185.578 474.259 185.375 474.257H157.065C156.94 474.255 156.818 474.224 156.709 474.165C156.599 474.105 156.505 474.021 156.436 473.918L147.552 460.632C147.46 460.497 147.327 460.394 147.173 460.339C147.018 460.285 146.85 460.281 146.693 460.329C146.536 460.377 146.399 460.473 146.301 460.605C146.203 460.736 146.15 460.896 146.149 461.06V461.06Z" fill="#F4F6F7"/>
<path d="M63.2129 493.938V508.619C63.2123 508.772 63.2584 508.921 63.345 509.047L73.4991 524.231C73.5689 524.334 73.6625 524.419 73.772 524.478C73.8815 524.537 74.0037 524.569 74.1282 524.571H102.439C102.641 524.571 102.834 524.491 102.977 524.348C103.12 524.205 103.2 524.012 103.2 523.81V507.903C103.2 507.7 103.12 507.506 102.977 507.362C102.835 507.219 102.641 507.137 102.439 507.135H74.1282C74.0037 507.134 73.8815 507.102 73.772 507.043C73.6625 506.984 73.5689 506.899 73.4991 506.796L64.6158 493.51C64.5238 493.375 64.3908 493.272 64.2361 493.217C64.0815 493.163 63.9134 493.159 63.7566 493.207C63.5997 493.255 63.4622 493.352 63.3644 493.483C63.2666 493.615 63.2135 493.774 63.2129 493.938V493.938Z" fill="#F4F6F7"/>
<path d="M187.617 395.304V409.985C187.617 410.138 187.663 410.287 187.749 410.413L197.903 425.597C197.973 425.7 198.067 425.785 198.176 425.844C198.286 425.903 198.408 425.935 198.532 425.937H226.843C227.045 425.937 227.239 425.856 227.381 425.714C227.524 425.571 227.604 425.378 227.604 425.176V409.268C227.604 409.066 227.524 408.872 227.382 408.728C227.239 408.584 227.045 408.503 226.843 408.501H198.532C198.408 408.499 198.286 408.468 198.176 408.408C198.067 408.349 197.973 408.265 197.903 408.162L189.02 394.876C188.928 394.74 188.795 394.638 188.64 394.583C188.486 394.529 188.318 394.525 188.161 394.573C188.004 394.62 187.867 394.717 187.769 394.849C187.671 394.98 187.618 395.14 187.617 395.304V395.304Z" fill="#F4F6F7"/>
<path d="M229.085 395.304V409.985C229.084 410.138 229.13 410.287 229.217 410.413L239.371 425.597C239.441 425.7 239.535 425.785 239.644 425.844C239.754 425.903 239.876 425.935 240 425.937H268.311C268.513 425.937 268.706 425.856 268.849 425.714C268.992 425.571 269.072 425.378 269.072 425.176V409.268C269.072 409.066 268.992 408.872 268.849 408.728C268.707 408.584 268.513 408.503 268.311 408.501H240C239.876 408.499 239.754 408.468 239.644 408.408C239.535 408.349 239.441 408.265 239.371 408.162L230.488 394.876C230.396 394.74 230.263 394.638 230.108 394.583C229.954 394.529 229.786 394.525 229.629 394.573C229.472 394.62 229.334 394.717 229.236 394.849C229.139 394.98 229.086 395.14 229.085 395.304V395.304Z" fill="#F4F6F7"/>
<path d="M270.553 395.304V409.985C270.552 410.138 270.598 410.287 270.685 410.413L280.839 425.597C280.909 425.7 281.002 425.785 281.112 425.844C281.221 425.903 281.344 425.935 281.468 425.937H309.779C309.98 425.937 310.174 425.856 310.317 425.714C310.46 425.571 310.54 425.378 310.54 425.176V409.268C310.54 409.066 310.46 408.872 310.317 408.728C310.175 408.584 309.981 408.503 309.779 408.501H281.468C281.344 408.499 281.221 408.468 281.112 408.408C281.002 408.349 280.909 408.265 280.839 408.162L271.956 394.876C271.864 394.74 271.731 394.638 271.576 394.583C271.421 394.529 271.253 394.525 271.096 394.573C270.94 394.62 270.802 394.717 270.704 394.849C270.606 394.98 270.553 395.14 270.553 395.304V395.304Z" fill="#F4F6F7"/>
<path d="M187.617 428.182V442.863C187.617 443.016 187.663 443.165 187.749 443.291L197.903 458.475C197.973 458.578 198.067 458.663 198.176 458.722C198.286 458.781 198.408 458.813 198.532 458.814H226.843C227.045 458.814 227.239 458.734 227.381 458.592C227.524 458.449 227.604 458.255 227.604 458.054V442.146C227.604 441.944 227.524 441.75 227.382 441.606C227.239 441.462 227.045 441.381 226.843 441.379H198.532C198.408 441.377 198.286 441.345 198.176 441.286C198.067 441.227 197.973 441.143 197.903 441.04L189.02 427.754C188.928 427.618 188.795 427.516 188.64 427.461C188.486 427.406 188.318 427.403 188.161 427.451C188.004 427.498 187.867 427.595 187.769 427.727C187.671 427.858 187.618 428.018 187.617 428.182V428.182Z" fill="#F4F6F7"/>
<path d="M229.085 428.182V442.863C229.084 443.016 229.13 443.165 229.217 443.291L239.371 458.475C239.441 458.578 239.535 458.663 239.644 458.722C239.754 458.781 239.876 458.813 240 458.814H268.311C268.513 458.814 268.706 458.734 268.849 458.592C268.992 458.449 269.072 458.255 269.072 458.054V442.146C269.072 441.944 268.992 441.75 268.849 441.606C268.707 441.462 268.513 441.381 268.311 441.379H240C239.876 441.377 239.754 441.345 239.644 441.286C239.535 441.227 239.441 441.143 239.371 441.04L230.488 427.754C230.396 427.618 230.263 427.516 230.108 427.461C229.954 427.406 229.786 427.403 229.629 427.451C229.472 427.498 229.334 427.595 229.236 427.727C229.139 427.858 229.086 428.018 229.085 428.182V428.182Z" fill="#F4F6F7"/>
<path d="M270.553 428.182V442.863C270.552 443.016 270.598 443.165 270.685 443.291L280.839 458.475C280.909 458.578 281.002 458.663 281.112 458.722C281.221 458.781 281.344 458.813 281.468 458.814H309.779C309.98 458.814 310.174 458.734 310.317 458.592C310.46 458.449 310.54 458.255 310.54 458.054V442.146C310.54 441.944 310.46 441.75 310.317 441.606C310.175 441.462 309.981 441.381 309.779 441.379H281.468C281.344 441.377 281.221 441.345 281.112 441.286C281.002 441.227 280.909 441.143 280.839 441.04L271.956 427.754C271.864 427.618 271.731 427.516 271.576 427.461C271.421 427.406 271.253 427.403 271.096 427.451C270.94 427.498 270.802 427.595 270.704 427.727C270.606 427.858 270.553 428.018 270.553 428.182V428.182Z" fill="#F4F6F7"/>
<path d="M312.021 428.182V442.863C312.02 443.016 312.066 443.165 312.153 443.291L322.307 458.475C322.376 458.578 322.47 458.663 322.58 458.722C322.689 458.781 322.811 458.813 322.936 458.814H351.246C351.448 458.814 351.642 458.734 351.785 458.592C351.927 458.449 352.008 458.255 352.008 458.054V442.146C352.008 441.944 351.928 441.75 351.785 441.606C351.642 441.462 351.449 441.381 351.246 441.379H322.936C322.811 441.377 322.689 441.345 322.58 441.286C322.47 441.227 322.376 441.143 322.307 441.04L313.423 427.754C313.331 427.618 313.198 427.516 313.044 427.461C312.889 427.406 312.721 427.403 312.564 427.451C312.407 427.498 312.27 427.595 312.172 427.727C312.074 427.858 312.021 428.018 312.021 428.182V428.182Z" fill="#F4F6F7"/>
<path d="M187.617 461.06V475.741C187.617 475.894 187.663 476.043 187.749 476.169L197.903 491.353C197.973 491.456 198.067 491.541 198.176 491.6C198.286 491.659 198.408 491.691 198.532 491.693H226.843C227.045 491.693 227.239 491.613 227.381 491.47C227.524 491.327 227.604 491.134 227.604 490.932V475.024C227.604 474.822 227.524 474.628 227.382 474.484C227.239 474.341 227.045 474.259 226.843 474.257H198.532C198.408 474.255 198.286 474.224 198.176 474.165C198.067 474.105 197.973 474.021 197.903 473.918L189.02 460.632C188.928 460.497 188.795 460.394 188.64 460.339C188.486 460.285 188.318 460.281 188.161 460.329C188.004 460.377 187.867 460.473 187.769 460.605C187.671 460.736 187.618 460.896 187.617 461.06V461.06Z" fill="#F4F6F7"/>
<path d="M229.085 461.06V475.741C229.084 475.894 229.13 476.043 229.217 476.169L239.371 491.353C239.441 491.456 239.535 491.541 239.644 491.6C239.754 491.659 239.876 491.691 240 491.693H268.311C268.513 491.693 268.706 491.613 268.849 491.47C268.992 491.327 269.072 491.134 269.072 490.932V475.024C269.072 474.822 268.992 474.628 268.849 474.484C268.707 474.341 268.513 474.259 268.311 474.257H240C239.876 474.255 239.754 474.224 239.644 474.165C239.535 474.105 239.441 474.021 239.371 473.918L230.488 460.632C230.396 460.497 230.263 460.394 230.108 460.339C229.954 460.285 229.786 460.281 229.629 460.329C229.472 460.377 229.334 460.473 229.236 460.605C229.139 460.736 229.086 460.896 229.085 461.06V461.06Z" fill="#F4F6F7"/>
<path d="M270.553 461.06V475.741C270.552 475.894 270.598 476.043 270.685 476.169L280.839 491.353C280.909 491.456 281.002 491.541 281.112 491.6C281.221 491.659 281.344 491.691 281.468 491.693H309.779C309.98 491.693 310.174 491.613 310.317 491.47C310.46 491.327 310.54 491.134 310.54 490.932V475.024C310.54 474.822 310.46 474.628 310.317 474.484C310.175 474.341 309.981 474.259 309.779 474.257H281.468C281.344 474.255 281.221 474.224 281.112 474.165C281.002 474.105 280.909 474.021 280.839 473.918L271.956 460.632C271.864 460.497 271.731 460.394 271.576 460.339C271.421 460.285 271.253 460.281 271.096 460.329C270.94 460.377 270.802 460.473 270.704 460.605C270.606 460.736 270.553 460.896 270.553 461.06V461.06Z" fill="#F4F6F7"/>
<path d="M187.617 493.938V508.619C187.617 508.772 187.663 508.921 187.749 509.047L197.903 524.231C197.973 524.334 198.067 524.419 198.176 524.478C198.286 524.537 198.408 524.569 198.532 524.571H226.843C227.045 524.571 227.239 524.491 227.381 524.348C227.524 524.205 227.604 524.012 227.604 523.81V507.903C227.604 507.7 227.524 507.506 227.382 507.362C227.239 507.219 227.045 507.137 226.843 507.135H198.532C198.408 507.134 198.286 507.102 198.176 507.043C198.067 506.984 197.973 506.899 197.903 506.796L189.02 493.51C188.928 493.375 188.795 493.272 188.64 493.217C188.486 493.163 188.318 493.159 188.161 493.207C188.004 493.255 187.867 493.352 187.769 493.483C187.671 493.615 187.618 493.774 187.617 493.938V493.938Z" fill="#F4F6F7"/>
<path d="M229.085 493.938V508.619C229.084 508.772 229.13 508.921 229.217 509.047L239.371 524.231C239.441 524.334 239.535 524.419 239.644 524.478C239.754 524.537 239.876 524.569 240 524.571H268.311C268.513 524.571 268.706 524.491 268.849 524.348C268.992 524.205 269.072 524.012 269.072 523.81V507.903C269.072 507.7 268.992 507.506 268.849 507.362C268.707 507.219 268.513 507.137 268.311 507.135H240C239.876 507.134 239.754 507.102 239.644 507.043C239.535 506.984 239.441 506.899 239.371 506.796L230.488 493.51C230.396 493.375 230.263 493.272 230.108 493.217C229.954 493.163 229.786 493.159 229.629 493.207C229.472 493.255 229.334 493.352 229.236 493.483C229.139 493.615 229.086 493.774 229.085 493.938V493.938Z" fill="#F4F6F7"/>
</svg>
