<svg width="16" height="48" viewBox="0 0 16 48" fill="none" xmlns="http://www.w3.org/2000/svg">
<path d="M0 0.287823V5.81371C0.000485857 5.87108 0.0177706 5.92705 0.0497186 5.97471L3.87333 11.6947C3.89916 11.734 3.9343 11.7662 3.97562 11.7885C4.01693 11.8108 4.06314 11.8225 4.11009 11.8226H14.7641C14.8407 11.8226 14.9142 11.7922 14.9684 11.738C15.0225 11.6838 15.053 11.6104 15.053 11.5337V5.54381C15.0523 5.46762 15.0216 5.39475 14.9675 5.3411C14.9134 5.28744 14.8403 5.25733 14.7641 5.25734H4.11009C4.06321 5.25684 4.01716 5.24494 3.97592 5.22266C3.93467 5.20039 3.89946 5.16841 3.87333 5.12949L0.527966 0.126827C0.493347 0.0757304 0.44327 0.0370653 0.385076 0.0165017C0.326882 -0.0040619 0.26363 -0.00544192 0.204593 0.0125604C0.145556 0.0305626 0.0938383 0.0670025 0.0570197 0.116539C0.0202011 0.166075 0.000218209 0.226103 0 0.287823Z" fill="#172B38"/>
<path d="M0 12.1103V17.3734C0.000585759 17.602 0.0689737 17.8253 0.196508 18.015L3.87333 23.5291C3.89916 23.5683 3.9343 23.6005 3.97562 23.6228C4.01693 23.6451 4.06314 23.6569 4.11009 23.6569H14.7641C14.8407 23.6569 14.9142 23.6265 14.9684 23.5723C15.0225 23.5182 15.053 23.4447 15.053 23.3681V17.3734C15.053 17.2968 15.0225 17.2233 14.9684 17.1692C14.9142 17.115 14.8407 17.0846 14.7641 17.0846H4.11009C4.06314 17.0845 4.01693 17.0728 3.97562 17.0505C3.9343 17.0282 3.89916 16.9959 3.87333 16.9567L0.527966 11.9493C0.493347 11.8982 0.44327 11.8596 0.385076 11.839C0.326882 11.8184 0.26363 11.8171 0.204593 11.8351C0.145556 11.8531 0.0938383 11.8895 0.0570197 11.939C0.0202011 11.9886 0.000218209 12.0486 0 12.1103Z" fill="#172B38"/>
<path d="M0 23.9448V29.4731C0.000890482 29.5304 0.0181406 29.5862 0.0497186 29.634L3.87333 35.3517C3.89916 35.3909 3.9343 35.4231 3.97562 35.4454C4.01693 35.4677 4.06314 35.4795 4.11009 35.4796H14.7641C14.8403 35.4796 14.9134 35.4495 14.9675 35.3958C15.0216 35.3421 15.0523 35.2693 15.053 35.1931V29.2032C15.053 29.1266 15.0225 29.0531 14.9684 28.9989C14.9142 28.9447 14.8407 28.9143 14.7641 28.9143H4.11009C4.06314 28.9142 4.01693 28.9025 3.97562 28.8802C3.9343 28.8579 3.89916 28.8257 3.87333 28.7865L0.527966 23.7838C0.493347 23.7327 0.44327 23.694 0.385076 23.6735C0.326882 23.6529 0.26363 23.6515 0.204593 23.6695C0.145556 23.6875 0.0938383 23.724 0.0570197 23.7735C0.0202011 23.8231 0.000218209 23.8831 0 23.9448Z" fill="#172B38"/>
<path d="M0 35.7604V41.2886C0.000890482 41.3459 0.0181406 41.4018 0.0497186 41.4496L3.87333 47.1673C3.89904 47.2068 3.9341 47.2394 3.9754 47.2621C4.01669 47.2848 4.06296 47.297 4.11009 47.2975H14.7641C14.8021 47.2975 14.8396 47.29 14.8747 47.2755C14.9097 47.261 14.9415 47.2397 14.9684 47.2129C14.9952 47.1861 15.0165 47.1542 15.031 47.1192C15.0455 47.0842 15.053 47.0466 15.053 47.0087V41.0187C15.053 40.9421 15.0225 40.8687 14.9684 40.8145C14.9142 40.7603 14.8407 40.7299 14.7641 40.7299H4.11009C4.06314 40.7298 4.01693 40.7181 3.97562 40.6958C3.9343 40.6735 3.89916 40.6413 3.87333 40.602L0.527966 35.6065C0.493704 35.5558 0.444255 35.5174 0.386739 35.4966C0.329222 35.4759 0.266606 35.4739 0.207905 35.491C0.149204 35.5081 0.0974473 35.5434 0.0600859 35.5918C0.0227246 35.6402 0.00168593 35.6992 0 35.7604Z" fill="#172B38"/>
</svg>
