<svg width="75" height="12" viewBox="0 0 75 12" fill="none" xmlns="http://www.w3.org/2000/svg">
<path d="M12.466 4.58336L7.93636 4.28556L6.2305 0L4.52463 4.28556L0 4.58336L3.47036 7.53005L2.33157 12L6.2305 9.53551L10.1294 12L8.99066 7.53005L12.466 4.58336Z" fill="#172B38"/>
<path d="M27.9319 4.58336L23.4023 4.28556L21.6965 0L19.9906 4.28556L15.466 4.58336L18.9363 7.53005L17.7975 12L21.6965 9.53551L25.5954 12L24.4566 7.53005L27.9319 4.58336Z" fill="#172B38"/>
<path d="M43.3979 4.58336L38.8683 4.28556L37.1624 0L35.4566 4.28556L30.9319 4.58336L34.4023 7.53005L33.2635 12L37.1624 9.53551L41.0614 12L39.9226 7.53005L43.3979 4.58336Z" fill="#172B38"/>
<path d="M58.8639 4.58336L54.3343 4.28556L52.6284 0L50.9225 4.28556L46.3979 4.58336L49.8682 7.53005L48.7295 12L52.6284 9.53551L56.5273 12L55.3886 7.53005L58.8639 4.58336Z" fill="#172B38"/>
<path d="M74.3298 4.58336L69.8002 4.28556L68.0944 0L66.3885 4.28556L61.8639 4.58336L65.3342 7.53005L64.1954 12L68.0944 9.53551L71.9933 12L70.8545 7.53005L74.3298 4.58336Z" fill="#172B38"/>
</svg>
