<svg width="259" height="59" viewBox="0 0 259 59" fill="none" xmlns="http://www.w3.org/2000/svg">
<path opacity="0.05" d="M14.3204 -31.4477L8.58189 -21.5084C8.5218 -21.4053 8.49469 -21.2862 8.50422 -21.1673L9.44344 -6.91848C9.45045 -6.82147 9.48076 -6.72757 9.5318 -6.64474C9.58285 -6.56192 9.65311 -6.49261 9.73665 -6.44271L28.903 4.62296C29.0396 4.70188 29.2021 4.72329 29.3545 4.6825C29.5069 4.64171 29.6368 4.54204 29.7157 4.40544L35.9334 -6.36396C36.0125 -6.50095 36.0342 -6.66367 35.9939 -6.81667C35.9535 -6.96967 35.8543 -7.10055 35.7179 -7.18081L16.5516 -18.2465C16.468 -18.2964 16.3978 -18.3657 16.3467 -18.4485C16.2957 -18.5313 16.2654 -18.6252 16.2584 -18.7223L15.4373 -31.1888C15.4281 -31.3166 15.3781 -31.4381 15.2948 -31.5356C15.2114 -31.633 15.0991 -31.7011 14.9742 -31.7301C14.8493 -31.7591 14.7184 -31.7473 14.6008 -31.6964C14.4831 -31.6456 14.3848 -31.5584 14.3204 -31.4477Z" fill="#9CAEBC"/>
<path opacity="0.08" d="M1.4693 -9.18905L-4.26918 0.750283C-4.32927 0.85338 -4.35638 0.972412 -4.34686 1.09139L-3.40763 15.3402C-3.40062 15.4372 -3.37032 15.5311 -3.31927 15.6139C-3.26823 15.6967 -3.19796 15.766 -3.11443 15.8159L16.0519 26.8816C16.1886 26.9605 16.351 26.9819 16.5034 26.9411C16.6558 26.9003 16.7858 26.8007 16.8646 26.6641L23.0823 15.8947C23.1614 15.7577 23.1832 15.595 23.1428 15.442C23.1024 15.289 23.0032 15.1581 22.8668 15.0778L3.70049 4.01215C3.61695 3.96224 3.54669 3.89294 3.49564 3.81012C3.4446 3.72729 3.41429 3.63339 3.40728 3.53638L2.58622 -8.93015C2.57698 -9.05798 2.52702 -9.1795 2.44368 -9.27692C2.36033 -9.37433 2.24798 -9.44251 2.12309 -9.47146C1.9982 -9.50041 1.86733 -9.48861 1.74968 -9.43779C1.63202 -9.38697 1.53376 -9.2998 1.4693 -9.18905Z" fill="#9CAEBC"/>
<path opacity="0.05" d="M-11.3818 13.0695L-17.1203 23.0088C-17.1803 23.1119 -17.2075 23.231 -17.1979 23.3499L-16.2587 37.5987C-16.2517 37.6957 -16.2214 37.7896 -16.1703 37.8724C-16.1193 37.9553 -16.049 38.0246 -15.9655 38.0745L3.20081 49.1401C3.3375 49.2191 3.49991 49.2405 3.65233 49.1997C3.80474 49.1589 3.93468 49.0592 4.01355 48.9226L10.2313 38.1532C10.3104 38.0162 10.3321 37.8535 10.2917 37.7005C10.2514 37.5475 10.1522 37.4166 10.0157 37.3364L-9.15059 26.2707C-9.23412 26.2208 -9.30439 26.1515 -9.35543 26.0687C-9.40648 25.9858 -9.43678 25.8919 -9.44379 25.7949L-10.2649 13.3284C-10.2741 13.2006 -10.3241 13.079 -10.4074 12.9816C-10.4907 12.8842 -10.6031 12.816 -10.728 12.7871C-10.8529 12.7581 -10.9837 12.7699 -11.1014 12.8208C-11.2191 12.8716 -11.3173 12.9587 -11.3818 13.0695Z" fill="#9CAEBC"/>
<path opacity="0.05" d="M-24.2328 35.3283L-29.9713 45.2676C-30.0314 45.3707 -30.0585 45.4897 -30.0489 45.6087L-29.1097 59.8575C-29.1027 59.9545 -29.0724 60.0484 -29.0214 60.1312C-28.9703 60.2141 -28.9 60.2834 -28.8165 60.3333L-9.6502 71.3989C-9.51352 71.4778 -9.3511 71.4993 -9.19869 71.4585C-9.04627 71.4177 -8.91633 71.318 -8.83746 71.1814L-2.61975 60.412C-2.54065 60.275 -2.51892 60.1123 -2.55929 59.9593C-2.59966 59.8063 -2.69886 59.6754 -2.83529 59.5952L-22.0016 48.5295C-22.0851 48.4796 -22.1554 48.4103 -22.2064 48.3274C-22.2575 48.2446 -22.2878 48.1507 -22.2948 48.0537L-23.1159 35.5872C-23.1251 35.4594 -23.1751 35.3378 -23.2584 35.2404C-23.3418 35.143 -23.4541 35.0748 -23.579 35.0459C-23.7039 35.0169 -23.8348 35.0287 -23.9524 35.0795C-24.0701 35.1304 -24.1683 35.2175 -24.2328 35.3283Z" fill="#9CAEBC"/>
<path opacity="0.05" d="M60.3051 -34.5767L54.5666 -24.6374C54.5065 -24.5343 54.4794 -24.4153 54.4889 -24.2963L55.4281 -10.0475C55.4351 -9.9505 55.4654 -9.8566 55.5165 -9.77377C55.5675 -9.69095 55.6378 -9.62164 55.7213 -9.57174L74.8876 1.49393C75.0243 1.57285 75.1867 1.59427 75.3392 1.55347C75.4916 1.51268 75.6215 1.41301 75.7004 1.27641L81.9181 -9.49298C81.9972 -9.62998 82.0189 -9.7927 81.9786 -9.9457C81.9382 -10.0987 81.839 -10.2296 81.7026 -10.3098L62.5362 -21.3755C62.4527 -21.4254 62.3824 -21.4947 62.3314 -21.5775C62.2804 -21.6604 62.25 -21.7543 62.243 -21.8513L61.422 -34.3178C61.4127 -34.4456 61.3628 -34.5672 61.2794 -34.6646C61.1961 -34.762 61.0837 -34.8302 60.9588 -34.8591C60.834 -34.8881 60.7031 -34.8763 60.5854 -34.8255C60.4678 -34.7746 60.3695 -34.6875 60.3051 -34.5767Z" fill="#9CAEBC"/>
<path opacity="0.05" d="M47.454 -12.318L41.7155 -2.37865C41.6554 -2.27556 41.6283 -2.15652 41.6378 -2.03755L42.577 12.2112C42.5841 12.3082 42.6144 12.4021 42.6654 12.485C42.7165 12.5678 42.7867 12.6371 42.8703 12.687L62.0366 23.7527C62.1733 23.8316 62.3357 23.853 62.4881 23.8122C62.6405 23.7714 62.7704 23.6717 62.8493 23.5351L69.067 12.7657C69.1461 12.6288 69.1679 12.466 69.1275 12.313C69.0871 12.16 68.9879 12.0291 68.8515 11.9489L49.6852 0.883209C49.6016 0.833308 49.5314 0.764003 49.4803 0.681179C49.4293 0.598355 49.399 0.504451 49.392 0.40744L48.5709 -12.0591C48.5617 -12.1869 48.5117 -12.3084 48.4284 -12.4059C48.345 -12.5033 48.2327 -12.5714 48.1078 -12.6004C47.9829 -12.6294 47.852 -12.6176 47.7344 -12.5667C47.6167 -12.5159 47.5184 -12.4287 47.454 -12.318Z" fill="#9CAEBC"/>
<path opacity="0.03" d="M34.6029 9.94065L28.8644 19.88C28.8043 19.9831 28.7772 20.1021 28.7867 20.2211L29.726 34.4699C29.733 34.5669 29.7633 34.6608 29.8143 34.7436C29.8654 34.8264 29.9356 34.8957 30.0192 34.9456L49.1855 46.0113C49.3222 46.0902 49.4846 46.1116 49.637 46.0708C49.7894 46.03 49.9194 45.9304 49.9982 45.7938L56.2159 35.0244C56.295 34.8874 56.3168 34.7247 56.2764 34.5717C56.236 34.4187 56.1368 34.2878 56.0004 34.2075L36.8341 23.1418C36.7506 23.0919 36.6803 23.0226 36.6292 22.9398C36.5782 22.857 36.5479 22.7631 36.5409 22.6661L35.7198 10.1995C35.7106 10.0717 35.6606 9.9502 35.5773 9.85278C35.4939 9.75537 35.3816 9.68719 35.2567 9.65824C35.1318 9.62929 35.0009 9.64109 34.8833 9.69191C34.7656 9.74273 34.6674 9.8299 34.6029 9.94065Z" fill="#9CAEBC"/>
<path opacity="0.05" d="M21.7518 32.1992L16.0134 42.1385C15.9533 42.2416 15.9261 42.3607 15.9357 42.4796L16.8749 56.7284C16.8819 56.8254 16.9122 56.9193 16.9633 57.0021C17.0143 57.085 17.0846 57.1543 17.1681 57.2042L36.3344 68.2698C36.4711 68.3488 36.6335 68.3702 36.7859 68.3294C36.9383 68.2886 37.0683 68.1889 37.1472 68.0523L43.3649 57.2829C43.444 57.1459 43.4657 56.9832 43.4253 56.8302C43.385 56.6772 43.2858 56.5463 43.1493 56.4661L23.983 45.4004C23.8995 45.3505 23.8292 45.2812 23.7782 45.1984C23.7271 45.1155 23.6968 45.0216 23.6898 44.9246L22.8688 32.4581C22.8595 32.3303 22.8096 32.2087 22.7262 32.1113C22.6429 32.0139 22.5305 31.9457 22.4056 31.9168C22.2807 31.8878 22.1499 31.8996 22.0322 31.9505C21.9146 32.0013 21.8163 32.0884 21.7518 32.1992Z" fill="#9CAEBC"/>
<path opacity="0.05" d="M8.90082 54.458L3.16234 64.3973C3.10225 64.5004 3.07514 64.6194 3.08466 64.7384L4.02389 78.9872C4.03089 79.0842 4.0612 79.1781 4.11225 79.2609C4.16329 79.3438 4.23356 79.4131 4.31709 79.463L23.4834 90.5286C23.6201 90.6075 23.7825 90.629 23.9349 90.5882C24.0873 90.5474 24.2173 90.4477 24.2961 90.3111L30.5139 79.5417C30.593 79.4047 30.6147 79.242 30.5743 79.089C30.5339 78.936 30.4347 78.8051 30.2983 78.7249L11.132 67.6592C11.0485 67.6093 10.9782 67.54 10.9272 67.4571C10.8761 67.3743 10.8458 67.2804 10.8388 67.1834L10.0177 54.7169C10.0085 54.5891 9.95854 54.4675 9.8752 54.3701C9.79185 54.2727 9.6795 54.2045 9.55461 54.1756C9.42972 54.1466 9.29885 54.1584 9.1812 54.2092C9.06354 54.2601 8.96528 54.3472 8.90082 54.458Z" fill="#9CAEBC"/>
<path opacity="0.05" d="M93.4387 -15.447L87.7002 -5.50768C87.6401 -5.40459 87.613 -5.28555 87.6225 -5.16658L88.5617 9.08219C88.5687 9.1792 88.599 9.2731 88.6501 9.35593C88.7011 9.43875 88.7714 9.50806 88.8549 9.55796L108.021 20.6236C108.158 20.7025 108.32 20.724 108.473 20.6832C108.625 20.6424 108.755 20.5427 108.834 20.4061L115.052 9.63672C115.131 9.49972 115.153 9.337 115.112 9.184C115.072 9.031 114.973 8.90012 114.836 8.81986L95.6698 -2.24582C95.5863 -2.29572 95.516 -2.36503 95.465 -2.44785C95.414 -2.53067 95.3836 -2.62458 95.3766 -2.72159L94.5556 -15.1881C94.5463 -15.3159 94.4964 -15.4375 94.413 -15.5349C94.3297 -15.6323 94.2173 -15.7005 94.0925 -15.7294C93.9676 -15.7584 93.8367 -15.7466 93.719 -15.6958C93.6014 -15.6449 93.5031 -15.5578 93.4387 -15.447Z" fill="#9CAEBC"/>
<path opacity="0.08" d="M80.5876 6.81171L74.8491 16.751C74.789 16.8541 74.7619 16.9732 74.7714 17.0921L75.7107 31.3409C75.7177 31.4379 75.748 31.5318 75.799 31.6147C75.8501 31.6975 75.9203 31.7668 76.0039 31.8167L95.1702 42.8824C95.3069 42.9613 95.4693 42.9827 95.6217 42.9419C95.7741 42.9011 95.904 42.8014 95.9829 42.6648L102.201 31.8954C102.28 31.7585 102.301 31.5957 102.261 31.4427C102.221 31.2897 102.122 31.1588 101.985 31.0786L82.8188 20.0129C82.7352 19.963 82.665 19.8937 82.6139 19.8109C82.5629 19.7281 82.5326 19.6342 82.5256 19.5371L81.7045 7.07061C81.6953 6.94278 81.6453 6.82126 81.562 6.72385C81.4786 6.62643 81.3663 6.55825 81.2414 6.5293C81.1165 6.50035 80.9856 6.51215 80.868 6.56297C80.7503 6.61379 80.652 6.70097 80.5876 6.81171Z" fill="#9CAEBC"/>
<path opacity="0.15" d="M67.7365 29.0703L61.998 39.0097C61.9379 39.1128 61.9108 39.2318 61.9204 39.3508L62.8596 53.5996C62.8666 53.6966 62.8969 53.7905 62.9479 53.8733C62.999 53.9561 63.0693 54.0254 63.1528 54.0753L82.3191 65.141C82.4558 65.2199 82.6182 65.2413 82.7706 65.2005C82.923 65.1597 83.053 65.0601 83.1318 64.9235L89.3495 54.1541C89.4286 54.0171 89.4504 53.8544 89.41 53.7014C89.3696 53.5484 89.2704 53.4175 89.134 53.3372L69.9677 42.2715C69.8842 42.2216 69.8139 42.1523 69.7629 42.0695C69.7118 41.9867 69.6815 41.8928 69.6745 41.7958L68.8534 29.3292C68.8442 29.2014 68.7942 29.0799 68.7109 28.9825C68.6275 28.8851 68.5152 28.8169 68.3903 28.7879C68.2654 28.759 68.1345 28.7708 68.0169 28.8216C67.8992 28.8724 67.801 28.9596 67.7365 29.0703Z" fill="#9CAEBC"/>
<path opacity="0.05" d="M54.8854 51.3289L49.147 61.2682C49.0869 61.3713 49.0598 61.4904 49.0693 61.6093L50.0085 75.8581C50.0155 75.9551 50.0458 76.049 50.0969 76.1318C50.1479 76.2147 50.2182 76.284 50.3017 76.3339L69.468 87.3995C69.6047 87.4785 69.7671 87.4999 69.9195 87.4591C70.072 87.4183 70.2019 87.3186 70.2808 87.182L76.4985 76.4126C76.5776 76.2756 76.5993 76.1129 76.5589 75.9599C76.5186 75.8069 76.4194 75.676 76.2829 75.5958L57.1166 64.5301C57.0331 64.4802 56.9628 64.4109 56.9118 64.3281C56.8607 64.2452 56.8304 64.1513 56.8234 64.0543L56.0024 51.5878C55.9931 51.46 55.9432 51.3384 55.8598 51.241C55.7765 51.1436 55.6641 51.0754 55.5392 51.0465C55.4143 51.0175 55.2835 51.0293 55.1658 51.0802C55.0482 51.131 54.9499 51.2181 54.8854 51.3289Z" fill="#9CAEBC"/>
<path opacity="0.05" d="M139.423 -18.576L133.685 -8.63665C133.625 -8.53355 133.598 -8.41452 133.607 -8.29555L134.546 5.95322C134.553 6.05023 134.584 6.14414 134.635 6.22696C134.686 6.30979 134.756 6.37909 134.84 6.42899L154.006 17.4947C154.143 17.5736 154.305 17.595 154.457 17.5542C154.61 17.5134 154.74 17.4137 154.819 17.2771L161.036 6.50775C161.115 6.37076 161.137 6.20803 161.097 6.05503C161.056 5.90203 160.957 5.77115 160.821 5.69089L141.654 -5.37479C141.571 -5.42469 141.501 -5.49399 141.45 -5.57682C141.399 -5.65964 141.368 -5.75354 141.361 -5.85056L140.54 -18.3171C140.531 -18.4449 140.481 -18.5664 140.398 -18.6638C140.314 -18.7613 140.202 -18.8294 140.077 -18.8584C139.952 -18.8873 139.821 -18.8755 139.704 -18.8247C139.586 -18.7739 139.488 -18.6867 139.423 -18.576Z" fill="#9CAEBC"/>
<path opacity="0.05" d="M126.572 3.68268L120.834 13.622C120.774 13.7251 120.747 13.8441 120.756 13.9631L121.695 28.2119C121.702 28.3089 121.733 28.4028 121.784 28.4856C121.835 28.5685 121.905 28.6378 121.989 28.6877L141.155 39.7533C141.292 39.8322 141.454 39.8537 141.606 39.8129C141.759 39.7721 141.889 39.6724 141.968 39.5358L148.185 28.7664C148.264 28.6294 148.286 28.4667 148.246 28.3137C148.205 28.1607 148.106 28.0298 147.97 27.9496L128.803 16.8839C128.72 16.834 128.65 16.7647 128.599 16.6819C128.548 16.599 128.517 16.5051 128.51 16.4081L127.689 3.94158C127.68 3.81376 127.63 3.69223 127.547 3.59482C127.463 3.49741 127.351 3.42922 127.226 3.40027C127.101 3.37132 126.97 3.38312 126.853 3.43394C126.735 3.48476 126.637 3.57194 126.572 3.68268Z" fill="#9CAEBC"/>
<path opacity="0.05" d="M113.721 25.9414L107.983 35.8807C107.923 35.9838 107.896 36.1029 107.905 36.2218L108.844 50.4706C108.851 50.5676 108.882 50.6615 108.933 50.7444C108.984 50.8272 109.054 50.8965 109.137 50.9464L128.304 62.0121C128.44 62.091 128.603 62.1124 128.755 62.0716C128.908 62.0308 129.038 61.9311 129.117 61.7945L135.334 51.0251C135.413 50.8882 135.435 50.7254 135.395 50.5724C135.354 50.4194 135.255 50.2885 135.119 50.2083L115.952 39.1426C115.869 39.0927 115.799 39.0234 115.748 38.9406C115.696 38.8578 115.666 38.7639 115.659 38.6668L114.838 26.2003C114.829 26.0725 114.779 25.951 114.696 25.8535C114.612 25.7561 114.5 25.688 114.375 25.659C114.25 25.63 114.119 25.6418 114.002 25.6927C113.884 25.7435 113.786 25.8307 113.721 25.9414Z" fill="#9CAEBC"/>
<path opacity="0.05" d="M100.87 48.2L95.1316 58.1394C95.0715 58.2425 95.0444 58.3615 95.054 58.4805L95.9932 72.7293C96.0002 72.8263 96.0305 72.9202 96.0815 73.003C96.1326 73.0858 96.2029 73.1551 96.2864 73.205L115.453 84.2707C115.589 84.3496 115.752 84.371 115.904 84.3302C116.057 84.2894 116.187 84.1898 116.265 84.0532L122.483 73.2838C122.562 73.1468 122.584 72.9841 122.544 72.8311C122.503 72.6781 122.404 72.5472 122.268 72.4669L103.101 61.4012C103.018 61.3513 102.948 61.282 102.896 61.1992C102.845 61.1164 102.815 61.0225 102.808 60.9255L101.987 48.4589C101.978 48.3311 101.928 48.2096 101.844 48.1122C101.761 48.0148 101.649 47.9466 101.524 47.9176C101.399 47.8887 101.268 47.9005 101.15 47.9513C101.033 48.0021 100.935 48.0893 100.87 48.2Z" fill="#9CAEBC"/>
<path opacity="0.05" d="M185.408 -21.705L179.669 -11.7656C179.609 -11.6626 179.582 -11.5435 179.592 -11.4245L180.531 2.82422C180.538 2.92124 180.568 3.01514 180.619 3.09796C180.67 3.18079 180.741 3.25009 180.824 3.29999L199.99 14.3657C200.127 14.4446 200.29 14.466 200.442 14.4252C200.594 14.3844 200.724 14.2847 200.803 14.1481L207.021 3.37875C207.1 3.24176 207.122 3.07904 207.081 2.92604C207.041 2.77304 206.942 2.64215 206.805 2.56189L187.639 -8.50378C187.555 -8.55369 187.485 -8.62299 187.434 -8.70581C187.383 -8.78864 187.353 -8.88254 187.346 -8.97955L186.525 -21.4461C186.516 -21.5739 186.466 -21.6954 186.382 -21.7928C186.299 -21.8903 186.187 -21.9584 186.062 -21.9874C185.937 -22.0163 185.806 -22.0045 185.688 -21.9537C185.571 -21.9029 185.472 -21.8157 185.408 -21.705Z" fill="#9CAEBC"/>
<path opacity="0.1" d="M172.557 0.553713L166.818 10.4931C166.758 10.5961 166.731 10.7152 166.741 10.8342L167.68 25.0829C167.687 25.1799 167.717 25.2738 167.768 25.3567C167.819 25.4395 167.89 25.5088 167.973 25.5587L187.14 36.6244C187.276 36.7033 187.439 36.7247 187.591 36.6839C187.743 36.6431 187.873 36.5434 187.952 36.4068L194.17 25.6374C194.249 25.5005 194.271 25.3377 194.23 25.1847C194.19 25.0317 194.091 24.9009 193.954 24.8206L174.788 13.7549C174.705 13.705 174.634 13.6357 174.583 13.5529C174.532 13.4701 174.502 13.3762 174.495 13.2791L173.674 0.812615C173.665 0.684789 173.615 0.563267 173.531 0.465852C173.448 0.368438 173.336 0.300256 173.211 0.271305C173.086 0.242353 172.955 0.254153 172.837 0.304973C172.72 0.355794 172.621 0.442972 172.557 0.553713Z" fill="#9CAEBC"/>
<path opacity="0.05" d="M159.706 22.8124L153.967 32.7517C153.907 32.8548 153.88 32.9738 153.89 33.0928L154.829 47.3416C154.836 47.4386 154.866 47.5325 154.917 47.6153C154.968 47.6982 155.039 47.7675 155.122 47.8174L174.288 58.883C174.425 58.9619 174.588 58.9834 174.74 58.9426C174.892 58.9018 175.022 58.8021 175.101 58.6655L181.319 47.8961C181.398 47.7591 181.42 47.5964 181.379 47.4434C181.339 47.2904 181.24 47.1595 181.103 47.0793L161.937 36.0136C161.854 35.9637 161.783 35.8944 161.732 35.8115C161.681 35.7287 161.651 35.6348 161.644 35.5378L160.823 23.0713C160.814 22.9435 160.764 22.8219 160.68 22.7245C160.597 22.6271 160.485 22.5589 160.36 22.53C160.235 22.501 160.104 22.5128 159.986 22.5636C159.869 22.6145 159.77 22.7016 159.706 22.8124Z" fill="#9CAEBC"/>
<path opacity="0.05" d="M146.855 45.0711L141.116 55.0104C141.056 55.1135 141.029 55.2326 141.039 55.3515L141.978 69.6003C141.985 69.6973 142.015 69.7912 142.066 69.8741C142.117 69.9569 142.188 70.0262 142.271 70.0761L161.437 81.1418C161.574 81.2207 161.736 81.2421 161.889 81.2013C162.041 81.1605 162.171 81.0608 162.25 80.9242L168.468 70.1548C168.547 70.0178 168.569 69.8551 168.528 69.7021C168.488 69.5491 168.389 69.4182 168.252 69.338L149.086 58.2723C149.002 58.2224 148.932 58.1531 148.881 58.0703C148.83 57.9875 148.8 57.8936 148.793 57.7965L147.972 45.33C147.962 45.2022 147.913 45.0807 147.829 44.9832C147.746 44.8858 147.633 44.8177 147.509 44.7887C147.384 44.7597 147.253 44.7715 147.135 44.8224C147.018 44.8732 146.919 44.9604 146.855 45.0711Z" fill="#9CAEBC"/>
<path opacity="0.01" d="M231.393 -24.834L225.654 -14.8946C225.594 -14.7915 225.567 -14.6725 225.576 -14.5535L226.516 -0.304744C226.523 -0.207732 226.553 -0.113829 226.604 -0.0310054C226.655 0.05182 226.725 0.121125 226.809 0.171025L245.975 11.2367C246.112 11.3156 246.274 11.337 246.427 11.2962C246.579 11.2554 246.709 11.1558 246.788 11.0192L253.006 0.249784C253.085 0.11279 253.107 -0.049931 253.066 -0.20293C253.026 -0.355931 252.927 -0.486814 252.79 -0.567075L233.624 -11.6328C233.54 -11.6827 233.47 -11.752 233.419 -11.8348C233.368 -11.9176 233.338 -12.0115 233.331 -12.1085L232.51 -24.5751C232.5 -24.7029 232.45 -24.8244 232.367 -24.9218C232.284 -25.0192 232.171 -25.0874 232.046 -25.1164C231.922 -25.1453 231.791 -25.1335 231.673 -25.0827C231.555 -25.0319 231.457 -24.9447 231.393 -24.834Z" fill="#9CAEBC"/>
<path opacity="0.05" d="M218.541 -2.57528L212.803 7.36405C212.743 7.46715 212.716 7.58618 212.725 7.70516L213.665 21.9539C213.672 22.0509 213.702 22.1448 213.753 22.2277C213.804 22.3105 213.874 22.3798 213.958 22.4297L233.124 33.4954C233.261 33.5743 233.423 33.5957 233.576 33.5549C233.728 33.5141 233.858 33.4144 233.937 33.2778L240.154 22.5085C240.234 22.3715 240.255 22.2087 240.215 22.0557C240.175 21.9027 240.075 21.7719 239.939 21.6916L220.773 10.6259C220.689 10.576 220.619 10.5067 220.568 10.4239C220.517 10.3411 220.486 10.2472 220.479 10.1501L219.658 -2.31638C219.649 -2.44421 219.599 -2.56573 219.516 -2.66315C219.432 -2.76056 219.32 -2.82874 219.195 -2.85769C219.07 -2.88664 218.939 -2.87485 218.822 -2.82402C218.704 -2.7732 218.606 -2.68603 218.541 -2.57528Z" fill="#9CAEBC"/>
<path opacity="0.03" d="M205.691 19.6834L199.952 29.6228C199.892 29.7258 199.865 29.8449 199.874 29.9639L200.814 44.2126C200.821 44.3096 200.851 44.4035 200.902 44.4864C200.953 44.5692 201.023 44.6385 201.107 44.6884L220.273 55.7541C220.41 55.833 220.572 55.8544 220.725 55.8136C220.877 55.7728 221.007 55.6731 221.086 55.5365L227.304 44.7671C227.383 44.6302 227.404 44.4674 227.364 44.3144C227.324 44.1614 227.224 44.0306 227.088 43.9503L207.922 32.8846C207.838 32.8347 207.768 32.7654 207.717 32.6826C207.666 32.5998 207.636 32.5059 207.629 32.4088L206.807 19.9423C206.798 19.8145 206.748 19.693 206.665 19.5956C206.582 19.4981 206.469 19.43 206.344 19.401C206.219 19.3721 206.089 19.3839 205.971 19.4347C205.853 19.4855 205.755 19.5727 205.691 19.6834Z" fill="#9CAEBC"/>
<path opacity="0.05" d="M192.839 41.9421L187.101 51.8814C187.041 51.9845 187.014 52.1035 187.023 52.2225L187.963 66.4713C187.97 66.5683 188 66.6622 188.051 66.745C188.102 66.8279 188.172 66.8972 188.256 66.9471L207.422 78.0127C207.559 78.0916 207.721 78.1131 207.874 78.0723C208.026 78.0315 208.156 77.9318 208.235 77.7952L214.453 67.0258C214.532 66.8888 214.553 66.7261 214.513 66.5731C214.473 66.4201 214.373 66.2892 214.237 66.209L195.071 55.1433C194.987 55.0934 194.917 55.0241 194.866 54.9412C194.815 54.8584 194.784 54.7645 194.777 54.6675L193.956 42.201C193.947 42.0732 193.897 41.9516 193.814 41.8542C193.731 41.7568 193.618 41.6886 193.493 41.6597C193.368 41.6307 193.238 41.6425 193.12 41.6933C193.002 41.7442 192.904 41.8313 192.839 41.9421Z" fill="#9CAEBC"/>
</svg>
